G75*
%MOIN*%
%OFA0B0*%
%FSLAX24Y24*%
%IPPOS*%
%LPD*%
%AMOC8*
5,1,8,0,0,1.08239X$1,22.5*
%
%ADD10C,0.0000*%
%ADD11C,0.1655*%
%ADD12OC8,0.0600*%
%ADD13C,0.0114*%
%ADD14R,0.0552X0.0297*%
%ADD15R,0.0395X0.0237*%
%ADD16C,0.7087*%
%ADD17C,0.4017*%
%ADD18C,0.0247*%
%ADD19R,0.0789X0.0789*%
%ADD20R,0.0623X0.0257*%
%ADD21R,0.0907X0.0661*%
%ADD22R,0.0828X0.1015*%
%ADD23R,0.0828X0.0543*%
%ADD24R,0.0540X0.0710*%
%ADD25R,0.0690X0.0290*%
%ADD26C,0.0095*%
%ADD27R,0.0580X0.1482*%
%ADD28R,0.0260X0.0540*%
%ADD29C,0.0154*%
%ADD30R,0.0434X0.0434*%
%ADD31R,0.0513X0.0356*%
%ADD32R,0.0395X0.0513*%
%ADD33C,0.0490*%
D10*
X000950Y003328D02*
X004410Y001330D01*
X004427Y001322D01*
X004446Y001318D01*
X004465Y001317D01*
X004484Y001320D01*
X004502Y001326D01*
X004518Y001336D01*
X004532Y001348D01*
X004544Y001363D01*
X004553Y001380D01*
X004558Y001398D01*
X004560Y001417D01*
X004560Y002431D01*
X004562Y002450D01*
X004567Y002468D01*
X004576Y002485D01*
X004588Y002500D01*
X004602Y002512D01*
X004618Y002522D01*
X004636Y002528D01*
X004655Y002531D01*
X004674Y002530D01*
X004693Y002525D01*
X004710Y002518D01*
X004710Y002517D02*
X008760Y000179D01*
X008760Y000178D02*
X008776Y000171D01*
X008793Y000167D01*
X008810Y000165D01*
X008827Y000167D01*
X008844Y000171D01*
X008860Y000178D01*
X008860Y000179D02*
X012911Y002517D01*
X012911Y002518D02*
X012928Y002526D01*
X012947Y002530D01*
X012966Y002531D01*
X012985Y002528D01*
X013003Y002522D01*
X013019Y002512D01*
X013033Y002500D01*
X013045Y002485D01*
X013054Y002468D01*
X013059Y002450D01*
X013061Y002431D01*
X013061Y001417D01*
X013063Y001398D01*
X013068Y001380D01*
X013077Y001363D01*
X013089Y001348D01*
X013103Y001336D01*
X013119Y001326D01*
X013137Y001320D01*
X013156Y001317D01*
X013175Y001318D01*
X013194Y001323D01*
X013211Y001330D01*
X016671Y003328D01*
X016721Y003415D02*
X016721Y004659D01*
X016723Y004676D01*
X016727Y004693D01*
X016734Y004709D01*
X016744Y004723D01*
X016757Y004736D01*
X016771Y004746D01*
X017421Y005121D01*
X017471Y005208D02*
X017471Y015092D01*
X017421Y015179D02*
X016771Y015554D01*
X016757Y015564D01*
X016744Y015577D01*
X016734Y015591D01*
X016727Y015607D01*
X016723Y015624D01*
X016721Y015641D01*
X016721Y016755D01*
X016671Y016842D02*
X013336Y018767D01*
X013336Y018768D02*
X013319Y018775D01*
X013301Y018780D01*
X013283Y018781D01*
X013264Y018779D01*
X013247Y018773D01*
X013230Y018764D01*
X013216Y018752D01*
X013204Y018738D01*
X012696Y018012D01*
X012696Y018013D02*
X012684Y017999D01*
X012670Y017987D01*
X012653Y017978D01*
X012636Y017972D01*
X012617Y017970D01*
X012599Y017971D01*
X012581Y017976D01*
X012564Y017983D01*
X008860Y020121D01*
X008760Y020121D02*
X005057Y017983D01*
X005040Y017976D01*
X005022Y017971D01*
X005004Y017970D01*
X004985Y017972D01*
X004968Y017978D01*
X004951Y017987D01*
X004937Y017999D01*
X004925Y018013D01*
X004925Y018012D02*
X004417Y018738D01*
X004405Y018752D01*
X004391Y018764D01*
X004374Y018773D01*
X004357Y018779D01*
X004338Y018781D01*
X004320Y018780D01*
X004302Y018775D01*
X004285Y018768D01*
X004285Y018767D02*
X000950Y016842D01*
X000936Y016832D01*
X000923Y016819D01*
X000913Y016805D01*
X000906Y016789D01*
X000902Y016772D01*
X000900Y016755D01*
X000900Y015641D01*
X000898Y015624D01*
X000894Y015607D01*
X000887Y015591D01*
X000877Y015577D01*
X000864Y015564D01*
X000850Y015554D01*
X000200Y015179D01*
X000186Y015169D01*
X000173Y015156D01*
X000163Y015142D01*
X000156Y015126D01*
X000152Y015109D01*
X000150Y015092D01*
X000150Y005208D01*
X000152Y005191D01*
X000156Y005174D01*
X000163Y005158D01*
X000173Y005144D01*
X000186Y005131D01*
X000200Y005121D01*
X000850Y004746D01*
X000900Y004659D02*
X000900Y003415D01*
X000902Y003398D01*
X000906Y003381D01*
X000913Y003365D01*
X000923Y003351D01*
X000936Y003338D01*
X000950Y003328D01*
X000900Y004659D02*
X000898Y004676D01*
X000894Y004693D01*
X000887Y004709D01*
X000877Y004723D01*
X000864Y004736D01*
X000850Y004746D01*
X008023Y018050D02*
X008025Y018106D01*
X008031Y018161D01*
X008041Y018215D01*
X008054Y018269D01*
X008072Y018322D01*
X008093Y018373D01*
X008117Y018423D01*
X008145Y018471D01*
X008177Y018517D01*
X008211Y018561D01*
X008249Y018602D01*
X008289Y018640D01*
X008332Y018675D01*
X008377Y018707D01*
X008425Y018736D01*
X008474Y018762D01*
X008525Y018784D01*
X008577Y018802D01*
X008631Y018816D01*
X008686Y018827D01*
X008741Y018834D01*
X008796Y018837D01*
X008852Y018836D01*
X008907Y018831D01*
X008962Y018822D01*
X009016Y018810D01*
X009069Y018793D01*
X009121Y018773D01*
X009171Y018749D01*
X009219Y018722D01*
X009266Y018692D01*
X009310Y018658D01*
X009352Y018621D01*
X009390Y018581D01*
X009427Y018539D01*
X009460Y018494D01*
X009489Y018448D01*
X009516Y018399D01*
X009538Y018348D01*
X009558Y018296D01*
X009573Y018242D01*
X009585Y018188D01*
X009593Y018133D01*
X009597Y018078D01*
X009597Y018022D01*
X009593Y017967D01*
X009585Y017912D01*
X009573Y017858D01*
X009558Y017804D01*
X009538Y017752D01*
X009516Y017701D01*
X009489Y017652D01*
X009460Y017606D01*
X009427Y017561D01*
X009390Y017519D01*
X009352Y017479D01*
X009310Y017442D01*
X009266Y017408D01*
X009219Y017378D01*
X009171Y017351D01*
X009121Y017327D01*
X009069Y017307D01*
X009016Y017290D01*
X008962Y017278D01*
X008907Y017269D01*
X008852Y017264D01*
X008796Y017263D01*
X008741Y017266D01*
X008686Y017273D01*
X008631Y017284D01*
X008577Y017298D01*
X008525Y017316D01*
X008474Y017338D01*
X008425Y017364D01*
X008377Y017393D01*
X008332Y017425D01*
X008289Y017460D01*
X008249Y017498D01*
X008211Y017539D01*
X008177Y017583D01*
X008145Y017629D01*
X008117Y017677D01*
X008093Y017727D01*
X008072Y017778D01*
X008054Y017831D01*
X008041Y017885D01*
X008031Y017939D01*
X008025Y017994D01*
X008023Y018050D01*
X008760Y020122D02*
X008776Y020129D01*
X008793Y020133D01*
X008810Y020135D01*
X008827Y020133D01*
X008844Y020129D01*
X008860Y020122D01*
X016671Y016842D02*
X016685Y016832D01*
X016698Y016819D01*
X016708Y016805D01*
X016715Y016789D01*
X016719Y016772D01*
X016721Y016755D01*
X017421Y015179D02*
X017435Y015169D01*
X017448Y015156D01*
X017458Y015142D01*
X017465Y015126D01*
X017469Y015109D01*
X017471Y015092D01*
X017471Y005208D02*
X017469Y005191D01*
X017465Y005174D01*
X017458Y005158D01*
X017448Y005144D01*
X017435Y005131D01*
X017421Y005121D01*
X016721Y003415D02*
X016719Y003398D01*
X016715Y003381D01*
X016708Y003365D01*
X016698Y003351D01*
X016685Y003338D01*
X016671Y003328D01*
D11*
X008810Y018050D03*
D12*
X008310Y006150D03*
X009310Y006150D03*
D13*
X008403Y005578D02*
X008403Y005022D01*
X007945Y005022D01*
X007945Y005578D01*
X008403Y005578D01*
X008403Y005135D02*
X007945Y005135D01*
X007945Y005248D02*
X008403Y005248D01*
X008403Y005361D02*
X007945Y005361D01*
X007945Y005474D02*
X008403Y005474D01*
X007655Y005578D02*
X007655Y005022D01*
X007197Y005022D01*
X007197Y005578D01*
X007655Y005578D01*
X007655Y005135D02*
X007197Y005135D01*
X007197Y005248D02*
X007655Y005248D01*
X007655Y005361D02*
X007197Y005361D01*
X007197Y005474D02*
X007655Y005474D01*
X010222Y007555D02*
X010778Y007555D01*
X010778Y007097D01*
X010222Y007097D01*
X010222Y007555D01*
X010222Y007210D02*
X010778Y007210D01*
X010778Y007323D02*
X010222Y007323D01*
X010222Y007436D02*
X010778Y007436D01*
X010778Y007549D02*
X010222Y007549D01*
X010222Y008303D02*
X010778Y008303D01*
X010778Y007845D01*
X010222Y007845D01*
X010222Y008303D01*
X010222Y007958D02*
X010778Y007958D01*
X010778Y008071D02*
X010222Y008071D01*
X010222Y008184D02*
X010778Y008184D01*
X010778Y008297D02*
X010222Y008297D01*
X010753Y008472D02*
X010753Y009028D01*
X010753Y008472D02*
X010295Y008472D01*
X010295Y009028D01*
X010753Y009028D01*
X010753Y008585D02*
X010295Y008585D01*
X010295Y008698D02*
X010753Y008698D01*
X010753Y008811D02*
X010295Y008811D01*
X010295Y008924D02*
X010753Y008924D01*
X010005Y009028D02*
X010005Y008472D01*
X009547Y008472D01*
X009547Y009028D01*
X010005Y009028D01*
X010005Y008585D02*
X009547Y008585D01*
X009547Y008698D02*
X010005Y008698D01*
X010005Y008811D02*
X009547Y008811D01*
X009547Y008924D02*
X010005Y008924D01*
X011697Y008972D02*
X011697Y009528D01*
X012155Y009528D01*
X012155Y008972D01*
X011697Y008972D01*
X011697Y009085D02*
X012155Y009085D01*
X012155Y009198D02*
X011697Y009198D01*
X011697Y009311D02*
X012155Y009311D01*
X012155Y009424D02*
X011697Y009424D01*
X012445Y009528D02*
X012445Y008972D01*
X012445Y009528D02*
X012903Y009528D01*
X012903Y008972D01*
X012445Y008972D01*
X012445Y009085D02*
X012903Y009085D01*
X012903Y009198D02*
X012445Y009198D01*
X012445Y009311D02*
X012903Y009311D01*
X012903Y009424D02*
X012445Y009424D01*
X013605Y009528D02*
X013605Y008972D01*
X013147Y008972D01*
X013147Y009528D01*
X013605Y009528D01*
X013605Y009085D02*
X013147Y009085D01*
X013147Y009198D02*
X013605Y009198D01*
X013605Y009311D02*
X013147Y009311D01*
X013147Y009424D02*
X013605Y009424D01*
X014353Y009528D02*
X014353Y008972D01*
X013895Y008972D01*
X013895Y009528D01*
X014353Y009528D01*
X014353Y009085D02*
X013895Y009085D01*
X013895Y009198D02*
X014353Y009198D01*
X014353Y009311D02*
X013895Y009311D01*
X013895Y009424D02*
X014353Y009424D01*
X014553Y009722D02*
X014553Y010278D01*
X014553Y009722D02*
X014095Y009722D01*
X014095Y010278D01*
X014553Y010278D01*
X014553Y009835D02*
X014095Y009835D01*
X014095Y009948D02*
X014553Y009948D01*
X014553Y010061D02*
X014095Y010061D01*
X014095Y010174D02*
X014553Y010174D01*
X014053Y010422D02*
X014053Y010978D01*
X014053Y010422D02*
X013595Y010422D01*
X013595Y010978D01*
X014053Y010978D01*
X014053Y010535D02*
X013595Y010535D01*
X013595Y010648D02*
X014053Y010648D01*
X014053Y010761D02*
X013595Y010761D01*
X013595Y010874D02*
X014053Y010874D01*
X013805Y010278D02*
X013805Y009722D01*
X013347Y009722D01*
X013347Y010278D01*
X013805Y010278D01*
X013805Y009835D02*
X013347Y009835D01*
X013347Y009948D02*
X013805Y009948D01*
X013805Y010061D02*
X013347Y010061D01*
X013347Y010174D02*
X013805Y010174D01*
X013305Y010422D02*
X013305Y010978D01*
X013305Y010422D02*
X012847Y010422D01*
X012847Y010978D01*
X013305Y010978D01*
X013305Y010535D02*
X012847Y010535D01*
X012847Y010648D02*
X013305Y010648D01*
X013305Y010761D02*
X012847Y010761D01*
X012847Y010874D02*
X013305Y010874D01*
X013205Y008278D02*
X013205Y007722D01*
X012747Y007722D01*
X012747Y008278D01*
X013205Y008278D01*
X013205Y007835D02*
X012747Y007835D01*
X012747Y007948D02*
X013205Y007948D01*
X013205Y008061D02*
X012747Y008061D01*
X012747Y008174D02*
X013205Y008174D01*
X013953Y008278D02*
X013953Y007722D01*
X013495Y007722D01*
X013495Y008278D01*
X013953Y008278D01*
X013953Y007835D02*
X013495Y007835D01*
X013495Y007948D02*
X013953Y007948D01*
X013953Y008061D02*
X013495Y008061D01*
X013495Y008174D02*
X013953Y008174D01*
X013978Y007453D02*
X013422Y007453D01*
X013978Y007453D02*
X013978Y006995D01*
X013422Y006995D01*
X013422Y007453D01*
X013422Y007108D02*
X013978Y007108D01*
X013978Y007221D02*
X013422Y007221D01*
X013422Y007334D02*
X013978Y007334D01*
X013978Y007447D02*
X013422Y007447D01*
X013278Y007453D02*
X012722Y007453D01*
X013278Y007453D02*
X013278Y006995D01*
X012722Y006995D01*
X012722Y007453D01*
X012722Y007108D02*
X013278Y007108D01*
X013278Y007221D02*
X012722Y007221D01*
X012722Y007334D02*
X013278Y007334D01*
X013278Y007447D02*
X012722Y007447D01*
X012722Y006705D02*
X013278Y006705D01*
X013278Y006247D01*
X012722Y006247D01*
X012722Y006705D01*
X012722Y006360D02*
X013278Y006360D01*
X013278Y006473D02*
X012722Y006473D01*
X012722Y006586D02*
X013278Y006586D01*
X013278Y006699D02*
X012722Y006699D01*
X013422Y006705D02*
X013978Y006705D01*
X013978Y006247D01*
X013422Y006247D01*
X013422Y006705D01*
X013422Y006360D02*
X013978Y006360D01*
X013978Y006473D02*
X013422Y006473D01*
X013422Y006586D02*
X013978Y006586D01*
X013978Y006699D02*
X013422Y006699D01*
X016405Y006872D02*
X016405Y007428D01*
X016405Y006872D02*
X015947Y006872D01*
X015947Y007428D01*
X016405Y007428D01*
X016405Y006985D02*
X015947Y006985D01*
X015947Y007098D02*
X016405Y007098D01*
X016405Y007211D02*
X015947Y007211D01*
X015947Y007324D02*
X016405Y007324D01*
X015947Y007622D02*
X015947Y008178D01*
X016405Y008178D01*
X016405Y007622D01*
X015947Y007622D01*
X015947Y007735D02*
X016405Y007735D01*
X016405Y007848D02*
X015947Y007848D01*
X015947Y007961D02*
X016405Y007961D01*
X016405Y008074D02*
X015947Y008074D01*
X016695Y008178D02*
X016695Y007622D01*
X016695Y008178D02*
X017153Y008178D01*
X017153Y007622D01*
X016695Y007622D01*
X016695Y007735D02*
X017153Y007735D01*
X017153Y007848D02*
X016695Y007848D01*
X016695Y007961D02*
X017153Y007961D01*
X017153Y008074D02*
X016695Y008074D01*
X017153Y007428D02*
X017153Y006872D01*
X016695Y006872D01*
X016695Y007428D01*
X017153Y007428D01*
X017153Y006985D02*
X016695Y006985D01*
X016695Y007098D02*
X017153Y007098D01*
X017153Y007211D02*
X016695Y007211D01*
X016695Y007324D02*
X017153Y007324D01*
D14*
X012262Y007826D03*
X012262Y008574D03*
X011238Y008574D03*
X011238Y008200D03*
X011238Y007826D03*
D15*
X014385Y011144D03*
X014385Y011400D03*
X014385Y011656D03*
X015015Y011656D03*
X015015Y011400D03*
X015015Y011144D03*
D16*
X008810Y013400D03*
D17*
X008810Y013400D03*
D18*
X004751Y014512D02*
X002527Y014512D01*
X004751Y014512D02*
X004751Y012288D01*
X002527Y012288D01*
X002527Y014512D01*
X002527Y012534D02*
X004751Y012534D01*
X004751Y012780D02*
X002527Y012780D01*
X002527Y013026D02*
X004751Y013026D01*
X004751Y013272D02*
X002527Y013272D01*
X002527Y013518D02*
X004751Y013518D01*
X004751Y013764D02*
X002527Y013764D01*
X002527Y014010D02*
X004751Y014010D01*
X004751Y014256D02*
X002527Y014256D01*
X002527Y014502D02*
X004751Y014502D01*
X012870Y014512D02*
X015094Y014512D01*
X015094Y012288D01*
X012870Y012288D01*
X012870Y014512D01*
X012870Y012534D02*
X015094Y012534D01*
X015094Y012780D02*
X012870Y012780D01*
X012870Y013026D02*
X015094Y013026D01*
X015094Y013272D02*
X012870Y013272D01*
X012870Y013518D02*
X015094Y013518D01*
X015094Y013764D02*
X012870Y013764D01*
X012870Y014010D02*
X015094Y014010D01*
X015094Y014256D02*
X012870Y014256D01*
X012870Y014502D02*
X015094Y014502D01*
D19*
X004700Y010700D03*
X003700Y010700D03*
D20*
X015850Y010662D03*
X015850Y010406D03*
X015850Y010150D03*
X015850Y009894D03*
X015850Y009638D03*
D21*
X015992Y009181D03*
X015992Y011119D03*
D22*
X016897Y011297D03*
X016897Y009003D03*
D23*
X016897Y009815D03*
X016897Y010473D03*
D24*
X011850Y003500D03*
X011250Y003500D03*
X010650Y003500D03*
X009250Y006900D03*
X008650Y006900D03*
X008050Y006900D03*
X006950Y003500D03*
X006350Y003500D03*
X005750Y003500D03*
D25*
X009140Y004150D03*
X009140Y004650D03*
X009140Y005150D03*
X009140Y005650D03*
X012060Y005650D03*
X012060Y005150D03*
X012060Y004650D03*
X012060Y004150D03*
D26*
X014130Y006921D02*
X014130Y007379D01*
X014510Y007379D01*
X014510Y006921D01*
X014130Y006921D01*
X014130Y007015D02*
X014510Y007015D01*
X014510Y007109D02*
X014130Y007109D01*
X014130Y007203D02*
X014510Y007203D01*
X014510Y007297D02*
X014130Y007297D01*
X014130Y007771D02*
X014130Y008229D01*
X014510Y008229D01*
X014510Y007771D01*
X014130Y007771D01*
X014130Y007865D02*
X014510Y007865D01*
X014510Y007959D02*
X014130Y007959D01*
X014130Y008053D02*
X014510Y008053D01*
X014510Y008147D02*
X014130Y008147D01*
X015390Y008229D02*
X015390Y007771D01*
X015390Y008229D02*
X015770Y008229D01*
X015770Y007771D01*
X015390Y007771D01*
X015390Y007865D02*
X015770Y007865D01*
X015770Y007959D02*
X015390Y007959D01*
X015390Y008053D02*
X015770Y008053D01*
X015770Y008147D02*
X015390Y008147D01*
X015390Y007379D02*
X015390Y006921D01*
X015390Y007379D02*
X015770Y007379D01*
X015770Y006921D01*
X015390Y006921D01*
X015390Y007015D02*
X015770Y007015D01*
X015770Y007109D02*
X015390Y007109D01*
X015390Y007203D02*
X015770Y007203D01*
X015770Y007297D02*
X015390Y007297D01*
D27*
X005950Y006824D03*
X004950Y006824D03*
X003950Y006824D03*
X003950Y008876D03*
X004950Y008876D03*
X005950Y008876D03*
D28*
X002510Y007610D03*
X002250Y007610D03*
X001990Y007610D03*
X001990Y006790D03*
X002510Y006790D03*
D29*
X002342Y005401D02*
X002891Y005085D01*
X002712Y004775D01*
X002163Y005091D01*
X002342Y005401D01*
X002446Y004928D02*
X002800Y004928D01*
X002889Y005081D02*
X002180Y005081D01*
X002246Y005234D02*
X002632Y005234D01*
X002366Y005387D02*
X002334Y005387D01*
X002027Y004855D02*
X002576Y004539D01*
X002397Y004229D01*
X001848Y004545D01*
X002027Y004855D01*
X002131Y004382D02*
X002485Y004382D01*
X002574Y004535D02*
X001865Y004535D01*
X001931Y004688D02*
X002317Y004688D01*
X002051Y004841D02*
X002019Y004841D01*
X001712Y004310D02*
X002261Y003994D01*
X002082Y003684D01*
X001533Y004000D01*
X001712Y004310D01*
X001816Y003837D02*
X002170Y003837D01*
X002259Y003990D02*
X001550Y003990D01*
X001616Y004143D02*
X002002Y004143D01*
X001736Y004296D02*
X001704Y004296D01*
X003348Y003365D02*
X003897Y003049D01*
X003718Y002739D01*
X003169Y003055D01*
X003348Y003365D01*
X003452Y002892D02*
X003806Y002892D01*
X003895Y003045D02*
X003186Y003045D01*
X003252Y003198D02*
X003638Y003198D01*
X003372Y003351D02*
X003340Y003351D01*
X003663Y003911D02*
X004212Y003595D01*
X004033Y003285D01*
X003484Y003601D01*
X003663Y003911D01*
X003767Y003438D02*
X004121Y003438D01*
X004210Y003591D02*
X003501Y003591D01*
X003567Y003744D02*
X003953Y003744D01*
X003687Y003897D02*
X003655Y003897D01*
X003978Y004456D02*
X004527Y004140D01*
X004348Y003830D01*
X003799Y004146D01*
X003978Y004456D01*
X004082Y003983D02*
X004436Y003983D01*
X004525Y004136D02*
X003816Y004136D01*
X003882Y004289D02*
X004268Y004289D01*
X004002Y004442D02*
X003970Y004442D01*
X002639Y008888D02*
X002639Y009522D01*
X002639Y008888D02*
X002281Y008888D01*
X002281Y009522D01*
X002639Y009522D01*
X002639Y009041D02*
X002281Y009041D01*
X002281Y009194D02*
X002639Y009194D01*
X002639Y009347D02*
X002281Y009347D01*
X002281Y009500D02*
X002639Y009500D01*
X002009Y009522D02*
X002009Y008888D01*
X001651Y008888D01*
X001651Y009522D01*
X002009Y009522D01*
X002009Y009041D02*
X001651Y009041D01*
X001651Y009194D02*
X002009Y009194D01*
X002009Y009347D02*
X001651Y009347D01*
X001651Y009500D02*
X002009Y009500D01*
X001379Y009522D02*
X001379Y008888D01*
X001021Y008888D01*
X001021Y009522D01*
X001379Y009522D01*
X001379Y009041D02*
X001021Y009041D01*
X001021Y009194D02*
X001379Y009194D01*
X001379Y009347D02*
X001021Y009347D01*
X001021Y009500D02*
X001379Y009500D01*
X001379Y010778D02*
X001379Y011412D01*
X001379Y010778D02*
X001021Y010778D01*
X001021Y011412D01*
X001379Y011412D01*
X001379Y010931D02*
X001021Y010931D01*
X001021Y011084D02*
X001379Y011084D01*
X001379Y011237D02*
X001021Y011237D01*
X001021Y011390D02*
X001379Y011390D01*
X002009Y011412D02*
X002009Y010778D01*
X001651Y010778D01*
X001651Y011412D01*
X002009Y011412D01*
X002009Y010931D02*
X001651Y010931D01*
X001651Y011084D02*
X002009Y011084D01*
X002009Y011237D02*
X001651Y011237D01*
X001651Y011390D02*
X002009Y011390D01*
X002639Y011412D02*
X002639Y010778D01*
X002281Y010778D01*
X002281Y011412D01*
X002639Y011412D01*
X002639Y010931D02*
X002281Y010931D01*
X002281Y011084D02*
X002639Y011084D01*
X002639Y011237D02*
X002281Y011237D01*
X002281Y011390D02*
X002639Y011390D01*
X002342Y014769D02*
X002891Y015085D01*
X002342Y014769D02*
X002163Y015079D01*
X002712Y015395D01*
X002891Y015085D01*
X002608Y014922D02*
X002254Y014922D01*
X002165Y015075D02*
X002874Y015075D01*
X002808Y015228D02*
X002422Y015228D01*
X002688Y015381D02*
X002720Y015381D01*
X002576Y015631D02*
X002027Y015315D01*
X001848Y015625D01*
X002397Y015941D01*
X002576Y015631D01*
X002293Y015468D02*
X001939Y015468D01*
X001850Y015621D02*
X002559Y015621D01*
X002493Y015774D02*
X002107Y015774D01*
X002373Y015927D02*
X002405Y015927D01*
X002261Y016176D02*
X001712Y015860D01*
X001533Y016170D01*
X002082Y016486D01*
X002261Y016176D01*
X001978Y016013D02*
X001624Y016013D01*
X001535Y016166D02*
X002244Y016166D01*
X002178Y016319D02*
X001792Y016319D01*
X002058Y016472D02*
X002090Y016472D01*
X003348Y016805D02*
X003897Y017121D01*
X003348Y016805D02*
X003169Y017115D01*
X003718Y017431D01*
X003897Y017121D01*
X003614Y016958D02*
X003260Y016958D01*
X003171Y017111D02*
X003880Y017111D01*
X003814Y017264D02*
X003428Y017264D01*
X003694Y017417D02*
X003726Y017417D01*
X004212Y016575D02*
X003663Y016259D01*
X003484Y016569D01*
X004033Y016885D01*
X004212Y016575D01*
X003929Y016412D02*
X003575Y016412D01*
X003486Y016565D02*
X004195Y016565D01*
X004129Y016718D02*
X003743Y016718D01*
X004009Y016871D02*
X004041Y016871D01*
X004527Y016030D02*
X003978Y015714D01*
X003799Y016024D01*
X004348Y016340D01*
X004527Y016030D01*
X004244Y015867D02*
X003890Y015867D01*
X003801Y016020D02*
X004510Y016020D01*
X004444Y016173D02*
X004058Y016173D01*
X004324Y016326D02*
X004356Y016326D01*
X013093Y016030D02*
X013642Y015714D01*
X013093Y016030D02*
X013272Y016340D01*
X013821Y016024D01*
X013642Y015714D01*
X013730Y015867D02*
X013376Y015867D01*
X013110Y016020D02*
X013819Y016020D01*
X013562Y016173D02*
X013176Y016173D01*
X013264Y016326D02*
X013296Y016326D01*
X013408Y016575D02*
X013957Y016259D01*
X013408Y016575D02*
X013587Y016885D01*
X014136Y016569D01*
X013957Y016259D01*
X014045Y016412D02*
X013691Y016412D01*
X013425Y016565D02*
X014134Y016565D01*
X013877Y016718D02*
X013491Y016718D01*
X013579Y016871D02*
X013611Y016871D01*
X013723Y017121D02*
X014272Y016805D01*
X013723Y017121D02*
X013902Y017431D01*
X014451Y017115D01*
X014272Y016805D01*
X014360Y016958D02*
X014006Y016958D01*
X013740Y017111D02*
X014449Y017111D01*
X014192Y017264D02*
X013806Y017264D01*
X013894Y017417D02*
X013926Y017417D01*
X015359Y016176D02*
X015908Y015860D01*
X015359Y016176D02*
X015538Y016486D01*
X016087Y016170D01*
X015908Y015860D01*
X015996Y016013D02*
X015642Y016013D01*
X015376Y016166D02*
X016085Y016166D01*
X015828Y016319D02*
X015442Y016319D01*
X015530Y016472D02*
X015562Y016472D01*
X015044Y015631D02*
X015593Y015315D01*
X015044Y015631D02*
X015223Y015941D01*
X015772Y015625D01*
X015593Y015315D01*
X015681Y015468D02*
X015327Y015468D01*
X015061Y015621D02*
X015770Y015621D01*
X015513Y015774D02*
X015127Y015774D01*
X015215Y015927D02*
X015247Y015927D01*
X014729Y015085D02*
X015278Y014769D01*
X014729Y015085D02*
X014908Y015395D01*
X015457Y015079D01*
X015278Y014769D01*
X015366Y014922D02*
X015012Y014922D01*
X014746Y015075D02*
X015455Y015075D01*
X015198Y015228D02*
X014812Y015228D01*
X014900Y015381D02*
X014932Y015381D01*
X015457Y005091D02*
X014908Y004775D01*
X014729Y005085D01*
X015278Y005401D01*
X015457Y005091D01*
X015174Y004928D02*
X014820Y004928D01*
X014731Y005081D02*
X015440Y005081D01*
X015374Y005234D02*
X014988Y005234D01*
X015254Y005387D02*
X015286Y005387D01*
X015772Y004545D02*
X015223Y004229D01*
X015044Y004539D01*
X015593Y004855D01*
X015772Y004545D01*
X015489Y004382D02*
X015135Y004382D01*
X015046Y004535D02*
X015755Y004535D01*
X015689Y004688D02*
X015303Y004688D01*
X015569Y004841D02*
X015601Y004841D01*
X016087Y004000D02*
X015538Y003684D01*
X015359Y003994D01*
X015908Y004310D01*
X016087Y004000D01*
X015804Y003837D02*
X015450Y003837D01*
X015361Y003990D02*
X016070Y003990D01*
X016004Y004143D02*
X015618Y004143D01*
X015884Y004296D02*
X015916Y004296D01*
X014451Y003055D02*
X013902Y002739D01*
X013723Y003049D01*
X014272Y003365D01*
X014451Y003055D01*
X014168Y002892D02*
X013814Y002892D01*
X013725Y003045D02*
X014434Y003045D01*
X014368Y003198D02*
X013982Y003198D01*
X014248Y003351D02*
X014280Y003351D01*
X014136Y003601D02*
X013587Y003285D01*
X013408Y003595D01*
X013957Y003911D01*
X014136Y003601D01*
X013853Y003438D02*
X013499Y003438D01*
X013410Y003591D02*
X014119Y003591D01*
X014053Y003744D02*
X013667Y003744D01*
X013933Y003897D02*
X013965Y003897D01*
X013821Y004146D02*
X013272Y003830D01*
X013093Y004140D01*
X013642Y004456D01*
X013821Y004146D01*
X013538Y003983D02*
X013184Y003983D01*
X013095Y004136D02*
X013804Y004136D01*
X013738Y004289D02*
X013352Y004289D01*
X013618Y004442D02*
X013650Y004442D01*
D30*
G36*
X014121Y015246D02*
X014496Y015029D01*
X014279Y014654D01*
X013904Y014871D01*
X014121Y015246D01*
G37*
G36*
X013671Y015496D02*
X014046Y015279D01*
X013829Y014904D01*
X013454Y015121D01*
X013671Y015496D01*
G37*
G36*
X013221Y015746D02*
X013596Y015529D01*
X013379Y015154D01*
X013004Y015371D01*
X013221Y015746D01*
G37*
D31*
X016438Y013944D03*
X016438Y013550D03*
X016438Y013156D03*
D32*
X016950Y012369D03*
X016950Y014731D03*
D33*
X012170Y009900D03*
X011170Y009400D03*
X010530Y010150D03*
X011030Y011150D03*
X011010Y015650D03*
X011010Y016650D03*
X006450Y008000D03*
X005450Y008000D03*
X004820Y004270D03*
X006220Y002870D03*
X008810Y002695D03*
X008810Y001495D03*
X011400Y002870D03*
X012800Y004270D03*
M02*
