G75*
%MOIN*%
%OFA0B0*%
%FSLAX24Y24*%
%IPPOS*%
%LPD*%
%AMOC8*
5,1,8,0,0,1.08239X$1,22.5*
%
%ADD10OC8,0.0520*%
%ADD11C,0.0098*%
%ADD12R,0.0472X0.0217*%
%ADD13R,0.0315X0.0157*%
%ADD14C,0.3937*%
%ADD15C,0.0239*%
%ADD16R,0.0709X0.0709*%
%ADD17R,0.0543X0.0177*%
%ADD18R,0.0827X0.0581*%
%ADD19R,0.0748X0.0935*%
%ADD20R,0.0748X0.0463*%
%ADD21R,0.0460X0.0630*%
%ADD22R,0.0610X0.0210*%
%ADD23C,0.0079*%
%ADD24R,0.0500X0.1402*%
%ADD25R,0.0180X0.0460*%
%ADD26C,0.0130*%
%ADD27R,0.0354X0.0354*%
%ADD28R,0.0433X0.0276*%
%ADD29R,0.0315X0.0433*%
%ADD30C,0.0410*%
%ADD31C,0.0100*%
%ADD32C,0.0150*%
%ADD33C,0.0130*%
%ADD34C,0.0120*%
%ADD35C,0.0140*%
%ADD36C,0.0240*%
%ADD37C,0.0095*%
%ADD38C,0.0080*%
%ADD39C,0.0060*%
D10*
X008310Y006150D03*
X009310Y006150D03*
D11*
X008371Y005546D02*
X008371Y005054D01*
X007977Y005054D01*
X007977Y005546D01*
X008371Y005546D01*
X008371Y005151D02*
X007977Y005151D01*
X007977Y005248D02*
X008371Y005248D01*
X008371Y005345D02*
X007977Y005345D01*
X007977Y005442D02*
X008371Y005442D01*
X008371Y005539D02*
X007977Y005539D01*
X007623Y005546D02*
X007623Y005054D01*
X007229Y005054D01*
X007229Y005546D01*
X007623Y005546D01*
X007623Y005151D02*
X007229Y005151D01*
X007229Y005248D02*
X007623Y005248D01*
X007623Y005345D02*
X007229Y005345D01*
X007229Y005442D02*
X007623Y005442D01*
X007623Y005539D02*
X007229Y005539D01*
X009973Y008504D02*
X009973Y008996D01*
X009973Y008504D02*
X009579Y008504D01*
X009579Y008996D01*
X009973Y008996D01*
X009973Y008601D02*
X009579Y008601D01*
X009579Y008698D02*
X009973Y008698D01*
X009973Y008795D02*
X009579Y008795D01*
X009579Y008892D02*
X009973Y008892D01*
X009973Y008989D02*
X009579Y008989D01*
X010721Y008996D02*
X010721Y008504D01*
X010327Y008504D01*
X010327Y008996D01*
X010721Y008996D01*
X010721Y008601D02*
X010327Y008601D01*
X010327Y008698D02*
X010721Y008698D01*
X010721Y008795D02*
X010327Y008795D01*
X010327Y008892D02*
X010721Y008892D01*
X010721Y008989D02*
X010327Y008989D01*
X010254Y008271D02*
X010746Y008271D01*
X010746Y007877D01*
X010254Y007877D01*
X010254Y008271D01*
X010254Y007974D02*
X010746Y007974D01*
X010746Y008071D02*
X010254Y008071D01*
X010254Y008168D02*
X010746Y008168D01*
X010746Y008265D02*
X010254Y008265D01*
X010254Y007523D02*
X010746Y007523D01*
X010746Y007129D01*
X010254Y007129D01*
X010254Y007523D01*
X010254Y007226D02*
X010746Y007226D01*
X010746Y007323D02*
X010254Y007323D01*
X010254Y007420D02*
X010746Y007420D01*
X010746Y007517D02*
X010254Y007517D01*
X011729Y009004D02*
X011729Y009496D01*
X012123Y009496D01*
X012123Y009004D01*
X011729Y009004D01*
X011729Y009101D02*
X012123Y009101D01*
X012123Y009198D02*
X011729Y009198D01*
X011729Y009295D02*
X012123Y009295D01*
X012123Y009392D02*
X011729Y009392D01*
X011729Y009489D02*
X012123Y009489D01*
X012477Y009496D02*
X012477Y009004D01*
X012477Y009496D02*
X012871Y009496D01*
X012871Y009004D01*
X012477Y009004D01*
X012477Y009101D02*
X012871Y009101D01*
X012871Y009198D02*
X012477Y009198D01*
X012477Y009295D02*
X012871Y009295D01*
X012871Y009392D02*
X012477Y009392D01*
X012477Y009489D02*
X012871Y009489D01*
X013573Y009496D02*
X013573Y009004D01*
X013179Y009004D01*
X013179Y009496D01*
X013573Y009496D01*
X013573Y009101D02*
X013179Y009101D01*
X013179Y009198D02*
X013573Y009198D01*
X013573Y009295D02*
X013179Y009295D01*
X013179Y009392D02*
X013573Y009392D01*
X013573Y009489D02*
X013179Y009489D01*
X013773Y009754D02*
X013773Y010246D01*
X013773Y009754D02*
X013379Y009754D01*
X013379Y010246D01*
X013773Y010246D01*
X013773Y009851D02*
X013379Y009851D01*
X013379Y009948D02*
X013773Y009948D01*
X013773Y010045D02*
X013379Y010045D01*
X013379Y010142D02*
X013773Y010142D01*
X013773Y010239D02*
X013379Y010239D01*
X013273Y010454D02*
X013273Y010946D01*
X013273Y010454D02*
X012879Y010454D01*
X012879Y010946D01*
X013273Y010946D01*
X013273Y010551D02*
X012879Y010551D01*
X012879Y010648D02*
X013273Y010648D01*
X013273Y010745D02*
X012879Y010745D01*
X012879Y010842D02*
X013273Y010842D01*
X013273Y010939D02*
X012879Y010939D01*
X014021Y010946D02*
X014021Y010454D01*
X013627Y010454D01*
X013627Y010946D01*
X014021Y010946D01*
X014021Y010551D02*
X013627Y010551D01*
X013627Y010648D02*
X014021Y010648D01*
X014021Y010745D02*
X013627Y010745D01*
X013627Y010842D02*
X014021Y010842D01*
X014021Y010939D02*
X013627Y010939D01*
X014521Y010246D02*
X014521Y009754D01*
X014127Y009754D01*
X014127Y010246D01*
X014521Y010246D01*
X014521Y009851D02*
X014127Y009851D01*
X014127Y009948D02*
X014521Y009948D01*
X014521Y010045D02*
X014127Y010045D01*
X014127Y010142D02*
X014521Y010142D01*
X014521Y010239D02*
X014127Y010239D01*
X014321Y009496D02*
X014321Y009004D01*
X013927Y009004D01*
X013927Y009496D01*
X014321Y009496D01*
X014321Y009101D02*
X013927Y009101D01*
X013927Y009198D02*
X014321Y009198D01*
X014321Y009295D02*
X013927Y009295D01*
X013927Y009392D02*
X014321Y009392D01*
X014321Y009489D02*
X013927Y009489D01*
X013921Y008246D02*
X013921Y007754D01*
X013527Y007754D01*
X013527Y008246D01*
X013921Y008246D01*
X013921Y007851D02*
X013527Y007851D01*
X013527Y007948D02*
X013921Y007948D01*
X013921Y008045D02*
X013527Y008045D01*
X013527Y008142D02*
X013921Y008142D01*
X013921Y008239D02*
X013527Y008239D01*
X013173Y008246D02*
X013173Y007754D01*
X012779Y007754D01*
X012779Y008246D01*
X013173Y008246D01*
X013173Y007851D02*
X012779Y007851D01*
X012779Y007948D02*
X013173Y007948D01*
X013173Y008045D02*
X012779Y008045D01*
X012779Y008142D02*
X013173Y008142D01*
X013173Y008239D02*
X012779Y008239D01*
X012754Y007421D02*
X013246Y007421D01*
X013246Y007027D01*
X012754Y007027D01*
X012754Y007421D01*
X012754Y007124D02*
X013246Y007124D01*
X013246Y007221D02*
X012754Y007221D01*
X012754Y007318D02*
X013246Y007318D01*
X013246Y007415D02*
X012754Y007415D01*
X013454Y007421D02*
X013946Y007421D01*
X013946Y007027D01*
X013454Y007027D01*
X013454Y007421D01*
X013454Y007124D02*
X013946Y007124D01*
X013946Y007221D02*
X013454Y007221D01*
X013454Y007318D02*
X013946Y007318D01*
X013946Y007415D02*
X013454Y007415D01*
X013454Y006673D02*
X013946Y006673D01*
X013946Y006279D01*
X013454Y006279D01*
X013454Y006673D01*
X013454Y006376D02*
X013946Y006376D01*
X013946Y006473D02*
X013454Y006473D01*
X013454Y006570D02*
X013946Y006570D01*
X013946Y006667D02*
X013454Y006667D01*
X013246Y006673D02*
X012754Y006673D01*
X013246Y006673D02*
X013246Y006279D01*
X012754Y006279D01*
X012754Y006673D01*
X012754Y006376D02*
X013246Y006376D01*
X013246Y006473D02*
X012754Y006473D01*
X012754Y006570D02*
X013246Y006570D01*
X013246Y006667D02*
X012754Y006667D01*
X016373Y006904D02*
X016373Y007396D01*
X016373Y006904D02*
X015979Y006904D01*
X015979Y007396D01*
X016373Y007396D01*
X016373Y007001D02*
X015979Y007001D01*
X015979Y007098D02*
X016373Y007098D01*
X016373Y007195D02*
X015979Y007195D01*
X015979Y007292D02*
X016373Y007292D01*
X016373Y007389D02*
X015979Y007389D01*
X015979Y007654D02*
X015979Y008146D01*
X016373Y008146D01*
X016373Y007654D01*
X015979Y007654D01*
X015979Y007751D02*
X016373Y007751D01*
X016373Y007848D02*
X015979Y007848D01*
X015979Y007945D02*
X016373Y007945D01*
X016373Y008042D02*
X015979Y008042D01*
X015979Y008139D02*
X016373Y008139D01*
X016727Y008146D02*
X016727Y007654D01*
X016727Y008146D02*
X017121Y008146D01*
X017121Y007654D01*
X016727Y007654D01*
X016727Y007751D02*
X017121Y007751D01*
X017121Y007848D02*
X016727Y007848D01*
X016727Y007945D02*
X017121Y007945D01*
X017121Y008042D02*
X016727Y008042D01*
X016727Y008139D02*
X017121Y008139D01*
X017121Y007396D02*
X017121Y006904D01*
X016727Y006904D01*
X016727Y007396D01*
X017121Y007396D01*
X017121Y007001D02*
X016727Y007001D01*
X016727Y007098D02*
X017121Y007098D01*
X017121Y007195D02*
X016727Y007195D01*
X016727Y007292D02*
X017121Y007292D01*
X017121Y007389D02*
X016727Y007389D01*
D12*
X012262Y007826D03*
X012262Y008574D03*
X011238Y008574D03*
X011238Y008200D03*
X011238Y007826D03*
D13*
X014385Y011144D03*
X014385Y011400D03*
X014385Y011656D03*
X015015Y011656D03*
X015015Y011400D03*
X015015Y011144D03*
D14*
X008810Y013400D03*
D15*
X004715Y014476D02*
X002563Y014476D01*
X004715Y014476D02*
X004715Y012324D01*
X002563Y012324D01*
X002563Y014476D01*
X002563Y012562D02*
X004715Y012562D01*
X004715Y012800D02*
X002563Y012800D01*
X002563Y013038D02*
X004715Y013038D01*
X004715Y013276D02*
X002563Y013276D01*
X002563Y013514D02*
X004715Y013514D01*
X004715Y013752D02*
X002563Y013752D01*
X002563Y013990D02*
X004715Y013990D01*
X004715Y014228D02*
X002563Y014228D01*
X002563Y014466D02*
X004715Y014466D01*
X012906Y014476D02*
X015058Y014476D01*
X015058Y012324D01*
X012906Y012324D01*
X012906Y014476D01*
X012906Y012562D02*
X015058Y012562D01*
X015058Y012800D02*
X012906Y012800D01*
X012906Y013038D02*
X015058Y013038D01*
X015058Y013276D02*
X012906Y013276D01*
X012906Y013514D02*
X015058Y013514D01*
X015058Y013752D02*
X012906Y013752D01*
X012906Y013990D02*
X015058Y013990D01*
X015058Y014228D02*
X012906Y014228D01*
X012906Y014466D02*
X015058Y014466D01*
D16*
X004700Y010700D03*
X003700Y010700D03*
D17*
X015850Y010662D03*
X015850Y010406D03*
X015850Y010150D03*
X015850Y009894D03*
X015850Y009638D03*
D18*
X015992Y009181D03*
X015992Y011119D03*
D19*
X016897Y011297D03*
X016897Y009003D03*
D20*
X016897Y009815D03*
X016897Y010473D03*
D21*
X011850Y003500D03*
X011250Y003500D03*
X010650Y003500D03*
X009250Y006900D03*
X008650Y006900D03*
X008050Y006900D03*
X006950Y003500D03*
X006350Y003500D03*
X005750Y003500D03*
D22*
X009140Y004150D03*
X009140Y004650D03*
X009140Y005150D03*
X009140Y005650D03*
X012060Y005650D03*
X012060Y005150D03*
X012060Y004650D03*
X012060Y004150D03*
D23*
X014162Y006953D02*
X014162Y007347D01*
X014478Y007347D01*
X014478Y006953D01*
X014162Y006953D01*
X014162Y007031D02*
X014478Y007031D01*
X014478Y007109D02*
X014162Y007109D01*
X014162Y007187D02*
X014478Y007187D01*
X014478Y007265D02*
X014162Y007265D01*
X014162Y007343D02*
X014478Y007343D01*
X014162Y007803D02*
X014162Y008197D01*
X014478Y008197D01*
X014478Y007803D01*
X014162Y007803D01*
X014162Y007881D02*
X014478Y007881D01*
X014478Y007959D02*
X014162Y007959D01*
X014162Y008037D02*
X014478Y008037D01*
X014478Y008115D02*
X014162Y008115D01*
X014162Y008193D02*
X014478Y008193D01*
X015422Y008197D02*
X015422Y007803D01*
X015422Y008197D02*
X015738Y008197D01*
X015738Y007803D01*
X015422Y007803D01*
X015422Y007881D02*
X015738Y007881D01*
X015738Y007959D02*
X015422Y007959D01*
X015422Y008037D02*
X015738Y008037D01*
X015738Y008115D02*
X015422Y008115D01*
X015422Y008193D02*
X015738Y008193D01*
X015422Y007347D02*
X015422Y006953D01*
X015422Y007347D02*
X015738Y007347D01*
X015738Y006953D01*
X015422Y006953D01*
X015422Y007031D02*
X015738Y007031D01*
X015738Y007109D02*
X015422Y007109D01*
X015422Y007187D02*
X015738Y007187D01*
X015738Y007265D02*
X015422Y007265D01*
X015422Y007343D02*
X015738Y007343D01*
D24*
X005950Y006824D03*
X004950Y006824D03*
X003950Y006824D03*
X003950Y008876D03*
X004950Y008876D03*
X005950Y008876D03*
D25*
X002510Y007610D03*
X002250Y007610D03*
X001990Y007610D03*
X001990Y006790D03*
X002510Y006790D03*
D26*
X002353Y005363D02*
X002852Y005075D01*
X002701Y004813D01*
X002202Y005101D01*
X002353Y005363D01*
X002477Y004942D02*
X002775Y004942D01*
X002850Y005071D02*
X002254Y005071D01*
X002259Y005200D02*
X002635Y005200D01*
X002412Y005329D02*
X002333Y005329D01*
X002038Y004817D02*
X002537Y004529D01*
X002386Y004267D01*
X001887Y004555D01*
X002038Y004817D01*
X002162Y004396D02*
X002460Y004396D01*
X002535Y004525D02*
X001939Y004525D01*
X001944Y004654D02*
X002320Y004654D01*
X002097Y004783D02*
X002018Y004783D01*
X001723Y004272D02*
X002222Y003984D01*
X002071Y003722D01*
X001572Y004010D01*
X001723Y004272D01*
X001847Y003851D02*
X002145Y003851D01*
X002220Y003980D02*
X001624Y003980D01*
X001629Y004109D02*
X002005Y004109D01*
X001782Y004238D02*
X001703Y004238D01*
X003359Y003327D02*
X003858Y003039D01*
X003707Y002777D01*
X003208Y003065D01*
X003359Y003327D01*
X003483Y002906D02*
X003781Y002906D01*
X003856Y003035D02*
X003260Y003035D01*
X003265Y003164D02*
X003641Y003164D01*
X003418Y003293D02*
X003339Y003293D01*
X003674Y003873D02*
X004173Y003585D01*
X004022Y003323D01*
X003523Y003611D01*
X003674Y003873D01*
X003798Y003452D02*
X004096Y003452D01*
X004171Y003581D02*
X003575Y003581D01*
X003580Y003710D02*
X003956Y003710D01*
X003733Y003839D02*
X003654Y003839D01*
X003989Y004418D02*
X004488Y004130D01*
X004337Y003868D01*
X003838Y004156D01*
X003989Y004418D01*
X004113Y003997D02*
X004411Y003997D01*
X004486Y004126D02*
X003890Y004126D01*
X003895Y004255D02*
X004271Y004255D01*
X004048Y004384D02*
X003969Y004384D01*
X002611Y008916D02*
X002611Y009494D01*
X002611Y008916D02*
X002309Y008916D01*
X002309Y009494D01*
X002611Y009494D01*
X002611Y009045D02*
X002309Y009045D01*
X002309Y009174D02*
X002611Y009174D01*
X002611Y009303D02*
X002309Y009303D01*
X002309Y009432D02*
X002611Y009432D01*
X001981Y009494D02*
X001981Y008916D01*
X001679Y008916D01*
X001679Y009494D01*
X001981Y009494D01*
X001981Y009045D02*
X001679Y009045D01*
X001679Y009174D02*
X001981Y009174D01*
X001981Y009303D02*
X001679Y009303D01*
X001679Y009432D02*
X001981Y009432D01*
X001351Y009494D02*
X001351Y008916D01*
X001049Y008916D01*
X001049Y009494D01*
X001351Y009494D01*
X001351Y009045D02*
X001049Y009045D01*
X001049Y009174D02*
X001351Y009174D01*
X001351Y009303D02*
X001049Y009303D01*
X001049Y009432D02*
X001351Y009432D01*
X001351Y010806D02*
X001351Y011384D01*
X001351Y010806D02*
X001049Y010806D01*
X001049Y011384D01*
X001351Y011384D01*
X001351Y010935D02*
X001049Y010935D01*
X001049Y011064D02*
X001351Y011064D01*
X001351Y011193D02*
X001049Y011193D01*
X001049Y011322D02*
X001351Y011322D01*
X001981Y011384D02*
X001981Y010806D01*
X001679Y010806D01*
X001679Y011384D01*
X001981Y011384D01*
X001981Y010935D02*
X001679Y010935D01*
X001679Y011064D02*
X001981Y011064D01*
X001981Y011193D02*
X001679Y011193D01*
X001679Y011322D02*
X001981Y011322D01*
X002611Y011384D02*
X002611Y010806D01*
X002309Y010806D01*
X002309Y011384D01*
X002611Y011384D01*
X002611Y010935D02*
X002309Y010935D01*
X002309Y011064D02*
X002611Y011064D01*
X002611Y011193D02*
X002309Y011193D01*
X002309Y011322D02*
X002611Y011322D01*
X002353Y014807D02*
X002852Y015095D01*
X002353Y014807D02*
X002202Y015069D01*
X002701Y015357D01*
X002852Y015095D01*
X002577Y014936D02*
X002279Y014936D01*
X002204Y015065D02*
X002800Y015065D01*
X002795Y015194D02*
X002419Y015194D01*
X002642Y015323D02*
X002721Y015323D01*
X002537Y015641D02*
X002038Y015353D01*
X001887Y015615D01*
X002386Y015903D01*
X002537Y015641D01*
X002262Y015482D02*
X001964Y015482D01*
X001889Y015611D02*
X002485Y015611D01*
X002480Y015740D02*
X002104Y015740D01*
X002327Y015869D02*
X002406Y015869D01*
X002222Y016186D02*
X001723Y015898D01*
X001572Y016160D01*
X002071Y016448D01*
X002222Y016186D01*
X001947Y016027D02*
X001649Y016027D01*
X001574Y016156D02*
X002170Y016156D01*
X002165Y016285D02*
X001789Y016285D01*
X002012Y016414D02*
X002091Y016414D01*
X003359Y016843D02*
X003858Y017131D01*
X003359Y016843D02*
X003208Y017105D01*
X003707Y017393D01*
X003858Y017131D01*
X003583Y016972D02*
X003285Y016972D01*
X003210Y017101D02*
X003806Y017101D01*
X003801Y017230D02*
X003425Y017230D01*
X003648Y017359D02*
X003727Y017359D01*
X004173Y016585D02*
X003674Y016297D01*
X003523Y016559D01*
X004022Y016847D01*
X004173Y016585D01*
X003898Y016426D02*
X003600Y016426D01*
X003525Y016555D02*
X004121Y016555D01*
X004116Y016684D02*
X003740Y016684D01*
X003963Y016813D02*
X004042Y016813D01*
X004488Y016040D02*
X003989Y015752D01*
X003838Y016014D01*
X004337Y016302D01*
X004488Y016040D01*
X004213Y015881D02*
X003915Y015881D01*
X003840Y016010D02*
X004436Y016010D01*
X004431Y016139D02*
X004055Y016139D01*
X004278Y016268D02*
X004357Y016268D01*
X013132Y016040D02*
X013631Y015752D01*
X013132Y016040D02*
X013283Y016302D01*
X013782Y016014D01*
X013631Y015752D01*
X013705Y015881D02*
X013407Y015881D01*
X013184Y016010D02*
X013780Y016010D01*
X013565Y016139D02*
X013189Y016139D01*
X013263Y016268D02*
X013342Y016268D01*
X013447Y016585D02*
X013946Y016297D01*
X013447Y016585D02*
X013598Y016847D01*
X014097Y016559D01*
X013946Y016297D01*
X014020Y016426D02*
X013722Y016426D01*
X013499Y016555D02*
X014095Y016555D01*
X013880Y016684D02*
X013504Y016684D01*
X013578Y016813D02*
X013657Y016813D01*
X013762Y017131D02*
X014261Y016843D01*
X013762Y017131D02*
X013913Y017393D01*
X014412Y017105D01*
X014261Y016843D01*
X014335Y016972D02*
X014037Y016972D01*
X013814Y017101D02*
X014410Y017101D01*
X014195Y017230D02*
X013819Y017230D01*
X013893Y017359D02*
X013972Y017359D01*
X015398Y016186D02*
X015897Y015898D01*
X015398Y016186D02*
X015549Y016448D01*
X016048Y016160D01*
X015897Y015898D01*
X015971Y016027D02*
X015673Y016027D01*
X015450Y016156D02*
X016046Y016156D01*
X015831Y016285D02*
X015455Y016285D01*
X015529Y016414D02*
X015608Y016414D01*
X015083Y015641D02*
X015582Y015353D01*
X015083Y015641D02*
X015234Y015903D01*
X015733Y015615D01*
X015582Y015353D01*
X015656Y015482D02*
X015358Y015482D01*
X015135Y015611D02*
X015731Y015611D01*
X015516Y015740D02*
X015140Y015740D01*
X015214Y015869D02*
X015293Y015869D01*
X014768Y015095D02*
X015267Y014807D01*
X014768Y015095D02*
X014919Y015357D01*
X015418Y015069D01*
X015267Y014807D01*
X015341Y014936D02*
X015043Y014936D01*
X014820Y015065D02*
X015416Y015065D01*
X015201Y015194D02*
X014825Y015194D01*
X014899Y015323D02*
X014978Y015323D01*
X015418Y005101D02*
X014919Y004813D01*
X014768Y005075D01*
X015267Y005363D01*
X015418Y005101D01*
X015143Y004942D02*
X014845Y004942D01*
X014770Y005071D02*
X015366Y005071D01*
X015361Y005200D02*
X014985Y005200D01*
X015208Y005329D02*
X015287Y005329D01*
X015733Y004555D02*
X015234Y004267D01*
X015083Y004529D01*
X015582Y004817D01*
X015733Y004555D01*
X015458Y004396D02*
X015160Y004396D01*
X015085Y004525D02*
X015681Y004525D01*
X015676Y004654D02*
X015300Y004654D01*
X015523Y004783D02*
X015602Y004783D01*
X016048Y004010D02*
X015549Y003722D01*
X015398Y003984D01*
X015897Y004272D01*
X016048Y004010D01*
X015773Y003851D02*
X015475Y003851D01*
X015400Y003980D02*
X015996Y003980D01*
X015991Y004109D02*
X015615Y004109D01*
X015838Y004238D02*
X015917Y004238D01*
X014412Y003065D02*
X013913Y002777D01*
X013762Y003039D01*
X014261Y003327D01*
X014412Y003065D01*
X014137Y002906D02*
X013839Y002906D01*
X013764Y003035D02*
X014360Y003035D01*
X014355Y003164D02*
X013979Y003164D01*
X014202Y003293D02*
X014281Y003293D01*
X014097Y003611D02*
X013598Y003323D01*
X013447Y003585D01*
X013946Y003873D01*
X014097Y003611D01*
X013822Y003452D02*
X013524Y003452D01*
X013449Y003581D02*
X014045Y003581D01*
X014040Y003710D02*
X013664Y003710D01*
X013887Y003839D02*
X013966Y003839D01*
X013782Y004156D02*
X013283Y003868D01*
X013132Y004130D01*
X013631Y004418D01*
X013782Y004156D01*
X013507Y003997D02*
X013209Y003997D01*
X013134Y004126D02*
X013730Y004126D01*
X013725Y004255D02*
X013349Y004255D01*
X013572Y004384D02*
X013651Y004384D01*
D27*
G36*
X014136Y015191D02*
X014441Y015014D01*
X014264Y014709D01*
X013959Y014886D01*
X014136Y015191D01*
G37*
G36*
X013686Y015441D02*
X013991Y015264D01*
X013814Y014959D01*
X013509Y015136D01*
X013686Y015441D01*
G37*
G36*
X013236Y015691D02*
X013541Y015514D01*
X013364Y015209D01*
X013059Y015386D01*
X013236Y015691D01*
G37*
D28*
X016438Y013944D03*
X016438Y013550D03*
X016438Y013156D03*
D29*
X016950Y012369D03*
X016950Y014731D03*
D30*
X012170Y009900D03*
X011170Y009400D03*
X010530Y010150D03*
X011030Y011150D03*
X011010Y015650D03*
X011010Y016650D03*
X006450Y008000D03*
X005450Y008000D03*
X004820Y004270D03*
X006220Y002870D03*
X008810Y002695D03*
X008810Y001495D03*
X011400Y002870D03*
X012800Y004270D03*
D31*
X003600Y002500D02*
X002800Y002950D01*
X002800Y003850D01*
X003100Y004150D01*
X003100Y005050D01*
X003800Y004350D01*
X004163Y004143D01*
X004476Y004386D02*
X004484Y004386D01*
X004482Y004382D02*
X004019Y004650D01*
X003847Y004604D01*
X003840Y004592D01*
X003300Y005133D01*
X003300Y005433D01*
X003183Y005550D01*
X002933Y005800D01*
X001283Y005800D01*
X001100Y005983D01*
X001100Y008367D01*
X001400Y008667D01*
X001400Y008701D01*
X001441Y008701D01*
X001515Y008775D01*
X001546Y008744D01*
X001595Y008715D01*
X001650Y008701D01*
X001780Y008701D01*
X001780Y009155D01*
X001880Y009155D01*
X001880Y008701D01*
X002010Y008701D01*
X002065Y008715D01*
X002114Y008744D01*
X002145Y008775D01*
X002219Y008701D01*
X002701Y008701D01*
X002826Y008827D01*
X002826Y009584D01*
X002701Y009709D01*
X002655Y009709D01*
X002651Y010218D01*
X003050Y010617D01*
X003050Y011583D01*
X002933Y011700D01*
X002583Y012050D01*
X001383Y012050D01*
X001100Y012333D01*
X001100Y014538D01*
X001607Y014850D01*
X001633Y014850D01*
X001675Y014892D01*
X001725Y014923D01*
X001731Y014949D01*
X001750Y014967D01*
X001750Y015027D01*
X001764Y015084D01*
X001750Y015107D01*
X001750Y015419D01*
X002143Y015646D01*
X002193Y015559D01*
X001800Y015332D01*
X001865Y015220D01*
X001905Y015180D01*
X001954Y015151D01*
X001997Y015140D01*
X001970Y015038D01*
X002210Y014621D01*
X002320Y014592D01*
X002294Y014529D01*
X002294Y012271D01*
X002335Y012172D01*
X002411Y012096D01*
X002510Y012055D01*
X003391Y012055D01*
X003410Y012008D01*
X003486Y011932D01*
X003486Y011932D01*
X004249Y011169D01*
X004196Y011116D01*
X004196Y011106D01*
X004194Y011112D01*
X004174Y011146D01*
X004146Y011174D01*
X004112Y011194D01*
X004074Y011204D01*
X003750Y011204D01*
X003750Y010750D01*
X003650Y010750D01*
X003650Y011204D01*
X003326Y011204D01*
X003288Y011194D01*
X003254Y011174D01*
X003226Y011146D01*
X003206Y011112D01*
X003196Y011074D01*
X003196Y010750D01*
X003650Y010750D01*
X003650Y010650D01*
X003750Y010650D01*
X003750Y010196D01*
X004074Y010196D01*
X004112Y010206D01*
X004146Y010226D01*
X004174Y010254D01*
X004194Y010288D01*
X004196Y010294D01*
X004196Y010284D01*
X004284Y010196D01*
X005116Y010196D01*
X005204Y010284D01*
X005204Y011116D01*
X005116Y011204D01*
X004949Y011204D01*
X004929Y011253D01*
X004127Y012055D01*
X004768Y012055D01*
X004867Y012096D01*
X004943Y012172D01*
X004984Y012271D01*
X004984Y014529D01*
X004943Y014628D01*
X004867Y014704D01*
X004768Y014745D01*
X002676Y014745D01*
X003038Y014954D01*
X003084Y015126D01*
X003075Y015141D01*
X003121Y015167D01*
X003129Y015196D01*
X003150Y015217D01*
X003150Y015273D01*
X003165Y015327D01*
X003150Y015353D01*
X003150Y015617D01*
X003467Y015300D01*
X004433Y015300D01*
X004550Y015417D01*
X004833Y015700D01*
X004950Y015817D01*
X004950Y016834D01*
X007885Y018522D01*
X007844Y018450D01*
X007773Y018187D01*
X007773Y017913D01*
X007844Y017650D01*
X007980Y017413D01*
X008173Y017220D01*
X008410Y017083D01*
X008674Y017013D01*
X008947Y017013D01*
X009211Y017083D01*
X009447Y017220D01*
X009640Y017413D01*
X009777Y017650D01*
X009848Y017913D01*
X009848Y018187D01*
X009777Y018450D01*
X009748Y018500D01*
X012277Y017040D01*
X012317Y017000D01*
X012346Y017000D01*
X012372Y016985D01*
X012426Y017000D01*
X013083Y017000D01*
X013200Y017117D01*
X013283Y017200D01*
X013501Y017200D01*
X013540Y017179D01*
X013530Y017162D01*
X013557Y017060D01*
X013514Y017049D01*
X013465Y017020D01*
X013425Y016980D01*
X013360Y016868D01*
X013753Y016641D01*
X013703Y016554D01*
X013310Y016781D01*
X013245Y016669D01*
X013230Y016614D01*
X013230Y016558D01*
X013242Y016515D01*
X013140Y016487D01*
X012900Y016071D01*
X012946Y015899D01*
X013126Y015795D01*
X013115Y015784D01*
X013036Y015647D01*
X013286Y015503D01*
X013247Y015436D01*
X012997Y015580D01*
X012918Y015443D01*
X012908Y015405D01*
X012908Y015365D01*
X012918Y015327D01*
X012938Y015293D01*
X012966Y015265D01*
X013103Y015186D01*
X013247Y015436D01*
X013314Y015397D01*
X013170Y015147D01*
X013307Y015068D01*
X013345Y015058D01*
X013373Y015058D01*
X013379Y015036D01*
X013794Y014797D01*
X013824Y014805D01*
X013829Y014786D01*
X013901Y014745D01*
X012853Y014745D01*
X012753Y014704D01*
X012678Y014628D01*
X012637Y014529D01*
X012637Y012271D01*
X012641Y012260D01*
X010782Y010400D01*
X010731Y010451D01*
X010601Y010505D01*
X010460Y010505D01*
X010329Y010451D01*
X010229Y010351D01*
X010175Y010221D01*
X010175Y010079D01*
X010229Y009949D01*
X010329Y009849D01*
X010460Y009795D01*
X010477Y009795D01*
X010299Y009617D01*
X010299Y009195D01*
X010245Y009195D01*
X010145Y009096D01*
X010132Y009118D01*
X010095Y009155D01*
X010050Y009182D01*
X009999Y009195D01*
X009826Y009195D01*
X009826Y008800D01*
X009726Y008800D01*
X009726Y009195D01*
X009553Y009195D01*
X009502Y009182D01*
X009457Y009155D01*
X009420Y009118D01*
X009393Y009073D01*
X009380Y009022D01*
X009380Y008800D01*
X009726Y008800D01*
X009726Y008700D01*
X009826Y008700D01*
X009826Y008305D01*
X009999Y008305D01*
X010050Y008318D01*
X010062Y008326D01*
X010062Y008326D01*
X010055Y008297D01*
X010055Y008124D01*
X010450Y008124D01*
X010450Y008024D01*
X010055Y008024D01*
X010055Y007851D01*
X010068Y007800D01*
X010095Y007755D01*
X010132Y007718D01*
X010154Y007705D01*
X010055Y007605D01*
X010055Y007047D01*
X010171Y006930D01*
X010829Y006930D01*
X010945Y007047D01*
X010945Y007101D01*
X012119Y007101D01*
X012355Y007337D01*
X012487Y007469D01*
X012487Y007568D01*
X012560Y007568D01*
X012622Y007629D01*
X012651Y007600D01*
X012555Y007503D01*
X012555Y006945D01*
X012649Y006850D01*
X012555Y006755D01*
X012555Y006197D01*
X012671Y006080D01*
X013000Y006080D01*
X013000Y006067D01*
X013100Y005967D01*
X013100Y005883D01*
X012567Y005350D01*
X012482Y005350D01*
X012432Y005400D01*
X012515Y005483D01*
X012515Y005817D01*
X012427Y005905D01*
X011693Y005905D01*
X011663Y005875D01*
X011158Y005875D01*
X009850Y007183D01*
X009850Y007333D01*
X009733Y007450D01*
X009583Y007600D01*
X007833Y007600D01*
X006474Y008958D01*
X006357Y009076D01*
X006350Y009076D01*
X006350Y009639D01*
X006262Y009726D01*
X005638Y009726D01*
X005550Y009639D01*
X005550Y008113D01*
X005638Y008025D01*
X006095Y008025D01*
X006095Y007929D01*
X006149Y007799D01*
X006249Y007699D01*
X006380Y007645D01*
X006521Y007645D01*
X006651Y007699D01*
X006751Y007799D01*
X006805Y007929D01*
X006805Y008062D01*
X007667Y007200D01*
X007670Y007200D01*
X007670Y006950D01*
X008000Y006950D01*
X008000Y006850D01*
X007670Y006850D01*
X007670Y006565D01*
X007680Y006527D01*
X007700Y006493D01*
X007728Y006465D01*
X007762Y006445D01*
X007800Y006435D01*
X008000Y006435D01*
X008000Y006817D01*
X008100Y006717D01*
X008100Y006520D01*
X007900Y006320D01*
X007900Y005980D01*
X007930Y005950D01*
X007817Y005950D01*
X007700Y005833D01*
X007700Y005833D01*
X007612Y005745D01*
X007476Y005745D01*
X007476Y005350D01*
X007376Y005350D01*
X007376Y005745D01*
X007203Y005745D01*
X007152Y005732D01*
X007107Y005705D01*
X007070Y005668D01*
X007043Y005623D01*
X007030Y005572D01*
X007030Y005350D01*
X007376Y005350D01*
X007376Y005250D01*
X007030Y005250D01*
X007030Y005050D01*
X006833Y005050D01*
X005950Y005933D01*
X005900Y005983D01*
X005900Y006774D01*
X006000Y006774D01*
X006000Y005974D01*
X006220Y005974D01*
X006258Y005984D01*
X006292Y006004D01*
X006320Y006032D01*
X006340Y006066D01*
X006350Y006104D01*
X006350Y006774D01*
X006000Y006774D01*
X006000Y006874D01*
X006350Y006874D01*
X006350Y007545D01*
X006340Y007583D01*
X006320Y007617D01*
X006292Y007645D01*
X006258Y007665D01*
X006220Y007675D01*
X006000Y007675D01*
X006000Y006874D01*
X005900Y006874D01*
X005900Y006774D01*
X005550Y006774D01*
X005550Y006104D01*
X005560Y006066D01*
X005569Y006050D01*
X005339Y006050D01*
X005350Y006061D01*
X005350Y007587D01*
X005262Y007675D01*
X004858Y007675D01*
X005150Y007967D01*
X005150Y008025D01*
X005262Y008025D01*
X005350Y008113D01*
X005350Y009639D01*
X005262Y009726D01*
X004638Y009726D01*
X004550Y009639D01*
X004550Y008113D01*
X004638Y008025D01*
X004642Y008025D01*
X004517Y007900D01*
X002750Y007900D01*
X002750Y007902D01*
X002662Y007990D01*
X002250Y007990D01*
X002250Y007610D01*
X002250Y007610D01*
X002250Y007990D01*
X002140Y007990D01*
X002073Y007990D01*
X002183Y008100D01*
X003133Y008100D01*
X003250Y008217D01*
X003550Y008517D01*
X003550Y008113D01*
X003638Y008025D01*
X004262Y008025D01*
X004350Y008113D01*
X004350Y009639D01*
X004262Y009726D01*
X003638Y009726D01*
X003550Y009639D01*
X003550Y009076D01*
X003543Y009076D01*
X002967Y008500D01*
X002017Y008500D01*
X001617Y008100D01*
X001500Y007983D01*
X001500Y006417D01*
X001850Y006067D01*
X001967Y005950D01*
X003017Y005950D01*
X004017Y004950D01*
X005367Y004950D01*
X006352Y003965D01*
X006058Y003965D01*
X006044Y003951D01*
X006038Y003955D01*
X006000Y003965D01*
X005800Y003965D01*
X005800Y003683D01*
X005700Y003583D01*
X005700Y003965D01*
X005500Y003965D01*
X005462Y003955D01*
X005428Y003935D01*
X005400Y003907D01*
X005380Y003873D01*
X005370Y003835D01*
X005370Y003550D01*
X005700Y003550D01*
X005700Y003450D01*
X005370Y003450D01*
X005370Y003195D01*
X004924Y003459D01*
X004883Y003500D01*
X004855Y003500D01*
X004831Y003514D01*
X004775Y003500D01*
X004374Y003500D01*
X004375Y003501D01*
X004390Y003556D01*
X004390Y003612D01*
X004378Y003655D01*
X004480Y003683D01*
X004640Y003960D01*
X004750Y003915D01*
X004891Y003915D01*
X005021Y003969D01*
X005121Y004069D01*
X005175Y004199D01*
X005175Y004341D01*
X005121Y004471D01*
X005021Y004571D01*
X004891Y004625D01*
X004750Y004625D01*
X004619Y004571D01*
X004519Y004471D01*
X004482Y004382D01*
X004532Y004484D02*
X004306Y004484D01*
X004135Y004583D02*
X004647Y004583D01*
X004993Y004583D02*
X005735Y004583D01*
X005636Y004681D02*
X003752Y004681D01*
X003653Y004780D02*
X005538Y004780D01*
X005439Y004878D02*
X003555Y004878D01*
X003456Y004977D02*
X003991Y004977D01*
X003892Y005075D02*
X003358Y005075D01*
X003300Y005174D02*
X003794Y005174D01*
X003695Y005272D02*
X003300Y005272D01*
X003300Y005371D02*
X003597Y005371D01*
X003498Y005469D02*
X003264Y005469D01*
X003165Y005568D02*
X003400Y005568D01*
X003301Y005666D02*
X003067Y005666D01*
X002968Y005765D02*
X003203Y005765D01*
X003104Y005863D02*
X001220Y005863D01*
X001121Y005962D02*
X001956Y005962D01*
X001857Y006060D02*
X001100Y006060D01*
X001100Y006159D02*
X001759Y006159D01*
X001660Y006257D02*
X001100Y006257D01*
X001100Y006356D02*
X001562Y006356D01*
X001500Y006454D02*
X001100Y006454D01*
X001100Y006553D02*
X001500Y006553D01*
X001500Y006651D02*
X001100Y006651D01*
X001100Y006750D02*
X001500Y006750D01*
X001500Y006848D02*
X001100Y006848D01*
X001100Y006947D02*
X001500Y006947D01*
X001500Y007045D02*
X001100Y007045D01*
X001100Y007144D02*
X001500Y007144D01*
X001500Y007242D02*
X001100Y007242D01*
X001100Y007341D02*
X001500Y007341D01*
X001500Y007439D02*
X001100Y007439D01*
X001100Y007538D02*
X001500Y007538D01*
X001500Y007636D02*
X001100Y007636D01*
X001100Y007735D02*
X001500Y007735D01*
X001500Y007833D02*
X001100Y007833D01*
X001100Y007932D02*
X001500Y007932D01*
X001547Y008030D02*
X001100Y008030D01*
X001100Y008129D02*
X001646Y008129D01*
X001744Y008227D02*
X001100Y008227D01*
X001100Y008326D02*
X001843Y008326D01*
X001941Y008424D02*
X001157Y008424D01*
X001255Y008523D02*
X002990Y008523D01*
X003088Y008621D02*
X001354Y008621D01*
X001459Y008720D02*
X001588Y008720D01*
X001780Y008720D02*
X001880Y008720D01*
X001880Y008818D02*
X001780Y008818D01*
X001780Y008917D02*
X001880Y008917D01*
X001880Y009015D02*
X001780Y009015D01*
X001780Y009114D02*
X001880Y009114D01*
X002072Y008720D02*
X002201Y008720D01*
X002100Y008300D02*
X001700Y007900D01*
X001700Y006500D01*
X002050Y006150D01*
X003100Y006150D01*
X004100Y005150D01*
X005450Y005150D01*
X006450Y004150D01*
X008400Y004150D01*
X007950Y004350D02*
X006550Y004350D01*
X005550Y005350D01*
X004200Y005350D01*
X003200Y006350D01*
X002400Y006350D01*
X002250Y006500D01*
X002250Y007050D01*
X002510Y007310D01*
X002510Y007610D01*
X002600Y007700D01*
X004600Y007700D01*
X004950Y008050D01*
X004950Y008876D01*
X005350Y008917D02*
X005550Y008917D01*
X005550Y009015D02*
X005350Y009015D01*
X005350Y009114D02*
X005550Y009114D01*
X005550Y009212D02*
X005350Y009212D01*
X005350Y009311D02*
X005550Y009311D01*
X005550Y009409D02*
X005350Y009409D01*
X005350Y009508D02*
X005550Y009508D01*
X005550Y009606D02*
X005350Y009606D01*
X005284Y009705D02*
X005616Y009705D01*
X006284Y009705D02*
X010386Y009705D01*
X010440Y009803D02*
X002655Y009803D01*
X002654Y009902D02*
X010277Y009902D01*
X010208Y010000D02*
X002653Y010000D01*
X002652Y010099D02*
X010175Y010099D01*
X010175Y010197D02*
X005118Y010197D01*
X005204Y010296D02*
X010206Y010296D01*
X010272Y010394D02*
X005204Y010394D01*
X005204Y010493D02*
X010430Y010493D01*
X010631Y010493D02*
X010874Y010493D01*
X010973Y010591D02*
X005204Y010591D01*
X005204Y010690D02*
X011071Y010690D01*
X011170Y010788D02*
X005204Y010788D01*
X005204Y010887D02*
X011268Y010887D01*
X011367Y010985D02*
X005204Y010985D01*
X005204Y011084D02*
X011465Y011084D01*
X011564Y011182D02*
X005139Y011182D01*
X004901Y011281D02*
X011662Y011281D01*
X011761Y011379D02*
X004803Y011379D01*
X004704Y011478D02*
X011859Y011478D01*
X011958Y011576D02*
X004606Y011576D01*
X004507Y011675D02*
X012056Y011675D01*
X012155Y011773D02*
X004409Y011773D01*
X004310Y011872D02*
X012253Y011872D01*
X012352Y011970D02*
X004212Y011970D01*
X003842Y011576D02*
X003050Y011576D01*
X003050Y011478D02*
X003941Y011478D01*
X004039Y011379D02*
X003050Y011379D01*
X003050Y011281D02*
X004138Y011281D01*
X004133Y011182D02*
X004236Y011182D01*
X003750Y011182D02*
X003650Y011182D01*
X003650Y011084D02*
X003750Y011084D01*
X003750Y010985D02*
X003650Y010985D01*
X003650Y010887D02*
X003750Y010887D01*
X003750Y010788D02*
X003650Y010788D01*
X003650Y010690D02*
X003050Y010690D01*
X003050Y010788D02*
X003196Y010788D01*
X003196Y010887D02*
X003050Y010887D01*
X003050Y010985D02*
X003196Y010985D01*
X003198Y011084D02*
X003050Y011084D01*
X003050Y011182D02*
X003267Y011182D01*
X002958Y011675D02*
X003744Y011675D01*
X003645Y011773D02*
X002860Y011773D01*
X002761Y011872D02*
X003547Y011872D01*
X003448Y011970D02*
X002663Y011970D01*
X002500Y011850D02*
X002850Y011500D01*
X002850Y010700D01*
X002450Y010300D01*
X001950Y009800D01*
X000950Y009800D01*
X000700Y009550D01*
X000700Y005750D01*
X001050Y005400D01*
X002000Y005400D01*
X002527Y005088D01*
X002850Y005600D02*
X003100Y005350D01*
X003100Y005050D01*
X003300Y004567D02*
X003621Y004246D01*
X003627Y004223D01*
X003606Y004187D01*
X003633Y004085D01*
X003591Y004074D01*
X003541Y004046D01*
X003501Y004005D01*
X003437Y003893D01*
X003126Y003893D01*
X003224Y003992D02*
X003493Y003992D01*
X003437Y003893D02*
X003830Y003666D01*
X003780Y003579D01*
X003387Y003806D01*
X003322Y003694D01*
X003307Y003639D01*
X003307Y003583D01*
X003318Y003540D01*
X003217Y003513D01*
X003000Y003137D01*
X003000Y003767D01*
X003300Y004067D01*
X003300Y004567D01*
X003300Y004484D02*
X003383Y004484D01*
X003300Y004386D02*
X003482Y004386D01*
X003580Y004287D02*
X003300Y004287D01*
X003300Y004189D02*
X003607Y004189D01*
X003632Y004090D02*
X003300Y004090D01*
X003380Y003795D02*
X003027Y003795D01*
X003000Y003696D02*
X003323Y003696D01*
X003307Y003598D02*
X003000Y003598D01*
X003000Y003499D02*
X003209Y003499D01*
X003152Y003401D02*
X003000Y003401D01*
X003000Y003302D02*
X003095Y003302D01*
X003038Y003204D02*
X003000Y003204D01*
X003533Y003052D02*
X004050Y003050D01*
X004300Y003300D01*
X004800Y003300D01*
X006150Y002500D01*
X007550Y001700D01*
X008200Y001700D01*
X008550Y002050D01*
X009050Y002050D01*
X009400Y001700D01*
X010100Y001700D01*
X012850Y003300D01*
X013300Y003300D01*
X013700Y002900D01*
X013935Y002900D01*
X014087Y003052D01*
X014302Y003540D02*
X014313Y003583D01*
X014313Y003639D01*
X014298Y003694D01*
X014233Y003806D01*
X013840Y003579D01*
X013790Y003666D01*
X014183Y003893D01*
X015201Y003893D01*
X015166Y003953D02*
X015193Y004055D01*
X015092Y004082D01*
X014851Y004499D01*
X014878Y004600D01*
X014777Y004627D01*
X014536Y005044D01*
X014582Y005216D01*
X015238Y005595D01*
X015410Y005549D01*
X015650Y005132D01*
X015623Y005030D01*
X015725Y005003D01*
X015770Y004925D01*
X016193Y004925D01*
X016325Y004793D01*
X016471Y004648D01*
X016471Y004753D01*
X016564Y004915D01*
X016564Y004915D01*
X016564Y004915D01*
X016646Y004962D01*
X016673Y004978D01*
X017221Y005294D01*
X017221Y006722D01*
X017203Y006705D01*
X016645Y006705D01*
X016545Y006804D01*
X016532Y006782D01*
X016495Y006745D01*
X016450Y006718D01*
X016399Y006705D01*
X016226Y006705D01*
X016226Y007100D01*
X016126Y007100D01*
X016126Y006705D01*
X015953Y006705D01*
X015902Y006718D01*
X015857Y006745D01*
X015820Y006782D01*
X015820Y006782D01*
X015810Y006777D01*
X015762Y006764D01*
X015628Y006764D01*
X015628Y007102D01*
X015531Y007102D01*
X015233Y007102D01*
X015233Y006928D01*
X015246Y006880D01*
X015271Y006837D01*
X015306Y006802D01*
X015349Y006777D01*
X015398Y006764D01*
X015531Y006764D01*
X015531Y007102D01*
X015531Y007198D01*
X015233Y007198D01*
X015233Y007372D01*
X015246Y007420D01*
X015271Y007463D01*
X015306Y007498D01*
X015349Y007523D01*
X015398Y007536D01*
X015531Y007536D01*
X015531Y007198D01*
X015628Y007198D01*
X015927Y007198D01*
X015927Y007200D01*
X016126Y007200D01*
X016126Y007850D01*
X016226Y007850D01*
X016226Y007455D01*
X016226Y007200D01*
X016126Y007200D01*
X016126Y007100D01*
X015927Y007100D01*
X015927Y007102D01*
X015628Y007102D01*
X015628Y007198D01*
X015628Y007536D01*
X015762Y007536D01*
X015810Y007523D01*
X015820Y007518D01*
X015820Y007518D01*
X015826Y007525D01*
X015820Y007532D01*
X015793Y007577D01*
X015782Y007619D01*
X015762Y007614D01*
X015628Y007614D01*
X015628Y007952D01*
X015531Y007952D01*
X015233Y007952D01*
X015233Y007778D01*
X015246Y007730D01*
X015271Y007687D01*
X015306Y007652D01*
X015349Y007627D01*
X015398Y007614D01*
X015531Y007614D01*
X015531Y007952D01*
X015531Y008048D01*
X015233Y008048D01*
X015233Y008222D01*
X015246Y008270D01*
X015271Y008313D01*
X015306Y008348D01*
X015349Y008373D01*
X015398Y008386D01*
X015531Y008386D01*
X015531Y008048D01*
X015628Y008048D01*
X015628Y008386D01*
X015762Y008386D01*
X015810Y008373D01*
X015854Y008348D01*
X015882Y008320D01*
X015902Y008332D01*
X015953Y008345D01*
X016126Y008345D01*
X016126Y007950D01*
X016226Y007950D01*
X016226Y008345D01*
X016399Y008345D01*
X016450Y008332D01*
X016495Y008305D01*
X016532Y008268D01*
X016545Y008246D01*
X016645Y008345D01*
X016654Y008345D01*
X016654Y008386D01*
X016461Y008386D01*
X016373Y008474D01*
X016373Y008740D01*
X015516Y008740D01*
X015428Y008828D01*
X015428Y009638D01*
X015850Y009638D01*
X015850Y009638D01*
X015850Y009638D01*
X016272Y009638D01*
X016272Y009621D01*
X016373Y009621D01*
X016373Y010109D01*
X016409Y010144D01*
X016373Y010179D01*
X016373Y010679D01*
X016272Y010679D01*
X016272Y009638D01*
X015850Y009638D01*
X015428Y009638D01*
X015428Y009746D01*
X015200Y009517D01*
X015200Y007417D01*
X014850Y007067D01*
X014733Y006950D01*
X014667Y006950D01*
X014667Y006875D01*
X014556Y006764D01*
X014137Y006764D01*
X014145Y006755D01*
X014145Y006197D01*
X014029Y006080D01*
X013700Y006080D01*
X013700Y005617D01*
X013000Y004917D01*
X012950Y004867D01*
X012833Y004750D01*
X012633Y004750D01*
X012515Y004632D01*
X012515Y004487D01*
X012599Y004571D01*
X012730Y004625D01*
X012871Y004625D01*
X013001Y004571D01*
X013101Y004471D01*
X013138Y004382D01*
X013601Y004650D01*
X013773Y004604D01*
X014014Y004187D01*
X013987Y004085D01*
X014029Y004074D01*
X014079Y004046D01*
X014119Y004005D01*
X014183Y003893D01*
X014213Y003795D02*
X014013Y003795D01*
X014042Y003696D02*
X013842Y003696D01*
X013829Y003598D02*
X013872Y003598D01*
X014240Y003795D02*
X015258Y003795D01*
X015315Y003696D02*
X014297Y003696D01*
X014313Y003598D02*
X015371Y003598D01*
X015407Y003536D02*
X015481Y003516D01*
X014622Y003015D01*
X014644Y003096D01*
X014403Y003513D01*
X014302Y003540D01*
X014411Y003499D02*
X015451Y003499D01*
X015407Y003536D02*
X015166Y003953D01*
X015176Y003992D02*
X014127Y003992D01*
X013988Y004090D02*
X015087Y004090D01*
X015030Y004189D02*
X014013Y004189D01*
X013956Y004287D02*
X014973Y004287D01*
X014917Y004386D02*
X013899Y004386D01*
X013842Y004484D02*
X014860Y004484D01*
X014874Y004583D02*
X013785Y004583D01*
X013485Y004583D02*
X012973Y004583D01*
X013088Y004484D02*
X013314Y004484D01*
X013144Y004386D02*
X013137Y004386D01*
X012980Y003960D02*
X013140Y003683D01*
X013242Y003655D01*
X013230Y003612D01*
X013230Y003556D01*
X013245Y003501D01*
X013246Y003500D01*
X012876Y003500D01*
X012821Y003515D01*
X012796Y003500D01*
X012767Y003500D01*
X012727Y003460D01*
X012230Y003171D01*
X012230Y003450D01*
X011950Y003450D01*
X011950Y003550D01*
X012230Y003550D01*
X012230Y003835D01*
X012220Y003873D01*
X012207Y003895D01*
X012385Y003895D01*
X012423Y003905D01*
X012457Y003925D01*
X012485Y003953D01*
X012505Y003987D01*
X012515Y004025D01*
X012515Y004053D01*
X012599Y003969D01*
X012730Y003915D01*
X012871Y003915D01*
X012980Y003960D01*
X013019Y003893D02*
X012208Y003893D01*
X012230Y003795D02*
X013076Y003795D01*
X013133Y003696D02*
X012230Y003696D01*
X012230Y003598D02*
X013230Y003598D01*
X013200Y003100D02*
X012900Y003100D01*
X010150Y001500D01*
X009300Y001500D01*
X008950Y001850D01*
X008650Y001850D01*
X008300Y001500D01*
X007500Y001500D01*
X004750Y003100D01*
X004400Y003100D01*
X003800Y002500D01*
X003600Y002500D01*
X004107Y003390D02*
X003867Y003529D01*
X003917Y003616D01*
X004181Y003463D01*
X004107Y003390D01*
X004118Y003401D02*
X004090Y003401D01*
X004119Y003499D02*
X003919Y003499D01*
X003906Y003598D02*
X003948Y003598D01*
X003791Y003598D02*
X003748Y003598D01*
X003778Y003696D02*
X003578Y003696D01*
X003607Y003795D02*
X003407Y003795D01*
X004390Y003598D02*
X005370Y003598D01*
X005370Y003696D02*
X004487Y003696D01*
X004544Y003795D02*
X005370Y003795D01*
X005392Y003893D02*
X004601Y003893D01*
X005044Y003992D02*
X006326Y003992D01*
X006227Y004090D02*
X005130Y004090D01*
X005171Y004189D02*
X006129Y004189D01*
X006030Y004287D02*
X005175Y004287D01*
X005157Y004386D02*
X005932Y004386D01*
X005833Y004484D02*
X005108Y004484D01*
X005700Y003893D02*
X005800Y003893D01*
X005800Y003795D02*
X005700Y003795D01*
X005700Y003696D02*
X005800Y003696D01*
X005715Y003598D02*
X005700Y003598D01*
X005700Y003499D02*
X004884Y003499D01*
X005023Y003401D02*
X005370Y003401D01*
X005370Y003302D02*
X005189Y003302D01*
X005355Y003204D02*
X005370Y003204D01*
X005639Y003035D02*
X005865Y002901D01*
X005865Y002941D01*
X005904Y003035D01*
X005800Y003035D01*
X005800Y003317D01*
X005700Y003417D01*
X005700Y003035D01*
X005639Y003035D01*
X005688Y003007D02*
X005893Y003007D01*
X005865Y002908D02*
X005854Y002908D01*
X005800Y003105D02*
X005700Y003105D01*
X005700Y003204D02*
X005800Y003204D01*
X005800Y003302D02*
X005700Y003302D01*
X005700Y003401D02*
X005717Y003401D01*
X005900Y003500D02*
X006350Y003500D01*
X006950Y003500D02*
X006950Y003050D01*
X006400Y002500D01*
X006150Y002500D01*
X007950Y004350D02*
X008750Y005150D01*
X009140Y005150D01*
X008500Y005750D02*
X008800Y006050D01*
X008800Y006250D01*
X009250Y006700D01*
X009250Y006900D01*
X009650Y007100D02*
X009650Y007250D01*
X009500Y007400D01*
X007750Y007400D01*
X006274Y008876D01*
X005950Y008876D01*
X005550Y008818D02*
X005350Y008818D01*
X005350Y008720D02*
X005550Y008720D01*
X005550Y008621D02*
X005350Y008621D01*
X005350Y008523D02*
X005550Y008523D01*
X005550Y008424D02*
X005350Y008424D01*
X005350Y008326D02*
X005550Y008326D01*
X005550Y008227D02*
X005350Y008227D01*
X005350Y008129D02*
X005550Y008129D01*
X005633Y008030D02*
X005267Y008030D01*
X005114Y007932D02*
X006095Y007932D01*
X006135Y007833D02*
X005016Y007833D01*
X004917Y007735D02*
X006214Y007735D01*
X006301Y007636D02*
X007231Y007636D01*
X007133Y007735D02*
X006687Y007735D01*
X006765Y007833D02*
X007034Y007833D01*
X006936Y007932D02*
X006805Y007932D01*
X006805Y008030D02*
X006837Y008030D01*
X007107Y008326D02*
X009490Y008326D01*
X009502Y008318D02*
X009457Y008345D01*
X009420Y008382D01*
X009393Y008427D01*
X009380Y008478D01*
X009380Y008700D01*
X009726Y008700D01*
X009726Y008305D01*
X009553Y008305D01*
X009502Y008318D01*
X009395Y008424D02*
X007009Y008424D01*
X006910Y008523D02*
X009380Y008523D01*
X009380Y008621D02*
X006812Y008621D01*
X006713Y008720D02*
X009726Y008720D01*
X009726Y008818D02*
X009826Y008818D01*
X009826Y008917D02*
X009726Y008917D01*
X009726Y009015D02*
X009826Y009015D01*
X009826Y009114D02*
X009726Y009114D01*
X009417Y009114D02*
X006350Y009114D01*
X006350Y009212D02*
X010299Y009212D01*
X010299Y009311D02*
X006350Y009311D01*
X006350Y009409D02*
X010299Y009409D01*
X010299Y009508D02*
X006350Y009508D01*
X006350Y009606D02*
X010299Y009606D01*
X010749Y009431D02*
X010749Y009195D01*
X010803Y009195D01*
X010920Y009079D01*
X010920Y008813D01*
X010940Y008832D01*
X011537Y008832D01*
X011624Y008744D01*
X011624Y008404D01*
X011604Y008383D01*
X011614Y008366D01*
X011624Y008328D01*
X011624Y008204D01*
X011242Y008204D01*
X011242Y008196D01*
X011624Y008196D01*
X011624Y008072D01*
X011614Y008034D01*
X011604Y008017D01*
X011624Y007996D01*
X011624Y007656D01*
X011537Y007568D01*
X010945Y007568D01*
X010945Y007551D01*
X011933Y007551D01*
X011957Y007575D01*
X011876Y007656D01*
X011876Y007996D01*
X011963Y008084D01*
X012560Y008084D01*
X012580Y008065D01*
X012580Y008329D01*
X012600Y008349D01*
X012593Y008349D01*
X012560Y008316D01*
X011963Y008316D01*
X011930Y008349D01*
X011883Y008349D01*
X011751Y008481D01*
X011701Y008531D01*
X011701Y008805D01*
X011647Y008805D01*
X011530Y008921D01*
X011530Y009579D01*
X011647Y009695D01*
X012205Y009695D01*
X012305Y009596D01*
X012318Y009618D01*
X012355Y009655D01*
X012400Y009682D01*
X012451Y009695D01*
X012624Y009695D01*
X012624Y009300D01*
X012724Y009300D01*
X012724Y009695D01*
X012897Y009695D01*
X012948Y009682D01*
X012993Y009655D01*
X013025Y009624D01*
X013057Y009655D01*
X013102Y009682D01*
X013153Y009695D01*
X013180Y009695D01*
X013180Y010255D01*
X013126Y010255D01*
X013126Y010650D01*
X013026Y010650D01*
X013026Y010255D01*
X012853Y010255D01*
X012802Y010268D01*
X012757Y010295D01*
X012720Y010332D01*
X012693Y010377D01*
X012680Y010428D01*
X012680Y010650D01*
X013026Y010650D01*
X013026Y010750D01*
X013026Y011145D01*
X012853Y011145D01*
X012802Y011132D01*
X012757Y011105D01*
X012720Y011068D01*
X012693Y011023D01*
X012680Y010972D01*
X012680Y010750D01*
X013026Y010750D01*
X013126Y010750D01*
X013126Y011145D01*
X013299Y011145D01*
X013350Y011132D01*
X013395Y011105D01*
X013432Y011068D01*
X013445Y011046D01*
X013545Y011145D01*
X014078Y011145D01*
X014078Y011175D01*
X013857Y011175D01*
X013757Y011275D01*
X012693Y011275D01*
X011395Y009977D01*
X011395Y009677D01*
X011471Y009601D01*
X011525Y009471D01*
X011525Y009329D01*
X011471Y009199D01*
X011371Y009099D01*
X011241Y009045D01*
X011100Y009045D01*
X010969Y009099D01*
X010869Y009199D01*
X010815Y009329D01*
X010815Y009471D01*
X010834Y009516D01*
X010749Y009431D01*
X010749Y009409D02*
X010815Y009409D01*
X010823Y009311D02*
X010749Y009311D01*
X010749Y009212D02*
X010864Y009212D01*
X010885Y009114D02*
X010955Y009114D01*
X010920Y009015D02*
X011530Y009015D01*
X011530Y009114D02*
X011386Y009114D01*
X011477Y009212D02*
X011530Y009212D01*
X011517Y009311D02*
X011530Y009311D01*
X011525Y009409D02*
X011530Y009409D01*
X011530Y009508D02*
X011510Y009508D01*
X011466Y009606D02*
X011557Y009606D01*
X011395Y009705D02*
X013180Y009705D01*
X013180Y009803D02*
X011395Y009803D01*
X011395Y009902D02*
X013180Y009902D01*
X013180Y010000D02*
X011418Y010000D01*
X011517Y010099D02*
X013180Y010099D01*
X013180Y010197D02*
X011615Y010197D01*
X011714Y010296D02*
X012756Y010296D01*
X012689Y010394D02*
X011812Y010394D01*
X011911Y010493D02*
X012680Y010493D01*
X012680Y010591D02*
X012009Y010591D01*
X012108Y010690D02*
X013026Y010690D01*
X013026Y010788D02*
X013126Y010788D01*
X013126Y010887D02*
X013026Y010887D01*
X013026Y010985D02*
X013126Y010985D01*
X013126Y011084D02*
X013026Y011084D01*
X012735Y011084D02*
X012502Y011084D01*
X012600Y011182D02*
X013850Y011182D01*
X013483Y011084D02*
X013417Y011084D01*
X013126Y010591D02*
X013026Y010591D01*
X013026Y010493D02*
X013126Y010493D01*
X013126Y010394D02*
X013026Y010394D01*
X013026Y010296D02*
X013126Y010296D01*
X012680Y010788D02*
X012206Y010788D01*
X012305Y010887D02*
X012680Y010887D01*
X012683Y010985D02*
X012403Y010985D01*
X012450Y012069D02*
X004800Y012069D01*
X004938Y012167D02*
X012549Y012167D01*
X012639Y012266D02*
X004982Y012266D01*
X004984Y012364D02*
X012637Y012364D01*
X012637Y012463D02*
X004984Y012463D01*
X004984Y012561D02*
X012637Y012561D01*
X012637Y012660D02*
X004984Y012660D01*
X004984Y012758D02*
X012637Y012758D01*
X012637Y012857D02*
X004984Y012857D01*
X004984Y012955D02*
X012637Y012955D01*
X012637Y013054D02*
X004984Y013054D01*
X004984Y013152D02*
X012637Y013152D01*
X012637Y013251D02*
X004984Y013251D01*
X004984Y013349D02*
X012637Y013349D01*
X012637Y013448D02*
X004984Y013448D01*
X004984Y013546D02*
X012637Y013546D01*
X012637Y013645D02*
X004984Y013645D01*
X004984Y013743D02*
X012637Y013743D01*
X012637Y013842D02*
X004984Y013842D01*
X004984Y013940D02*
X012637Y013940D01*
X012637Y014039D02*
X004984Y014039D01*
X004984Y014137D02*
X012637Y014137D01*
X012637Y014236D02*
X004984Y014236D01*
X004984Y014334D02*
X012637Y014334D01*
X012637Y014433D02*
X004984Y014433D01*
X004983Y014531D02*
X012637Y014531D01*
X012679Y014630D02*
X004941Y014630D01*
X004809Y014728D02*
X012812Y014728D01*
X013043Y015221D02*
X003150Y015221D01*
X003162Y015319D02*
X003448Y015319D01*
X003350Y015418D02*
X003150Y015418D01*
X003150Y015516D02*
X003251Y015516D01*
X003153Y015615D02*
X003150Y015615D01*
X002950Y015300D02*
X002950Y016100D01*
X003550Y015500D01*
X004350Y015500D01*
X004750Y015900D01*
X004750Y016950D01*
X008750Y019250D01*
X008850Y019250D01*
X012400Y017200D01*
X013000Y017200D01*
X013200Y017400D01*
X013550Y017400D01*
X014087Y017118D01*
X014500Y016825D02*
X014403Y016657D01*
X014302Y016630D01*
X014313Y016587D01*
X014313Y016531D01*
X014298Y016476D01*
X014233Y016364D01*
X013840Y016591D01*
X013790Y016504D01*
X014183Y016277D01*
X014119Y016164D01*
X014079Y016124D01*
X014029Y016096D01*
X013987Y016085D01*
X013996Y016050D01*
X014217Y016050D01*
X014500Y016333D01*
X014500Y016825D01*
X014500Y016797D02*
X014483Y016797D01*
X014500Y016698D02*
X014427Y016698D01*
X014500Y016600D02*
X014310Y016600D01*
X014305Y016501D02*
X014500Y016501D01*
X014500Y016403D02*
X014256Y016403D01*
X014166Y016403D02*
X013966Y016403D01*
X013995Y016501D02*
X013795Y016501D01*
X013730Y016600D02*
X013625Y016600D01*
X013654Y016698D02*
X013454Y016698D01*
X013484Y016797D02*
X011334Y016797D01*
X011311Y016851D02*
X011365Y016721D01*
X011365Y016579D01*
X011311Y016449D01*
X011211Y016349D01*
X011081Y016295D01*
X010940Y016295D01*
X010809Y016349D01*
X010709Y016449D01*
X010655Y016579D01*
X010655Y016721D01*
X010709Y016851D01*
X010809Y016951D01*
X010940Y017005D01*
X011081Y017005D01*
X011211Y016951D01*
X011311Y016851D01*
X011267Y016895D02*
X013376Y016895D01*
X013438Y016994D02*
X012402Y016994D01*
X012358Y016994D02*
X011109Y016994D01*
X010912Y016994D02*
X005227Y016994D01*
X005398Y017092D02*
X008395Y017092D01*
X008224Y017191D02*
X005570Y017191D01*
X005741Y017289D02*
X008104Y017289D01*
X008006Y017388D02*
X005912Y017388D01*
X006083Y017486D02*
X007938Y017486D01*
X007881Y017585D02*
X006255Y017585D01*
X006426Y017683D02*
X007835Y017683D01*
X007808Y017782D02*
X006597Y017782D01*
X006769Y017880D02*
X007782Y017880D01*
X007773Y017979D02*
X006940Y017979D01*
X007111Y018077D02*
X007773Y018077D01*
X007773Y018176D02*
X007283Y018176D01*
X007454Y018274D02*
X007796Y018274D01*
X007823Y018373D02*
X007625Y018373D01*
X007797Y018471D02*
X007855Y018471D01*
X008750Y019500D02*
X004550Y017050D01*
X004550Y016250D01*
X004163Y016027D01*
X004649Y015516D02*
X012960Y015516D01*
X012911Y015418D02*
X004550Y015418D01*
X004452Y015319D02*
X012923Y015319D01*
X013123Y015221D02*
X013212Y015221D01*
X013214Y015122D02*
X003083Y015122D01*
X003056Y015024D02*
X013401Y015024D01*
X013572Y014925D02*
X002988Y014925D01*
X002817Y014827D02*
X013743Y014827D01*
X013750Y015200D02*
X013950Y015500D01*
X014300Y015850D01*
X013750Y015850D01*
X013457Y016027D01*
X013097Y015812D02*
X004944Y015812D01*
X004950Y015910D02*
X012943Y015910D01*
X012916Y016009D02*
X004950Y016009D01*
X004950Y016107D02*
X012921Y016107D01*
X012978Y016206D02*
X004950Y016206D01*
X004950Y016304D02*
X010918Y016304D01*
X011103Y016304D02*
X013034Y016304D01*
X013091Y016403D02*
X011265Y016403D01*
X011333Y016501D02*
X013191Y016501D01*
X013230Y016600D02*
X011365Y016600D01*
X011365Y016698D02*
X013262Y016698D01*
X013175Y017092D02*
X013548Y017092D01*
X013519Y017191D02*
X013273Y017191D01*
X012900Y017400D02*
X012450Y017400D01*
X008850Y019500D01*
X008750Y019500D01*
X009765Y018471D02*
X009799Y018471D01*
X009798Y018373D02*
X009970Y018373D01*
X009824Y018274D02*
X010140Y018274D01*
X010311Y018176D02*
X009848Y018176D01*
X009848Y018077D02*
X010481Y018077D01*
X010652Y017979D02*
X009848Y017979D01*
X009839Y017880D02*
X010822Y017880D01*
X010993Y017782D02*
X009812Y017782D01*
X009786Y017683D02*
X011164Y017683D01*
X011334Y017585D02*
X009739Y017585D01*
X009683Y017486D02*
X011505Y017486D01*
X011675Y017388D02*
X009615Y017388D01*
X009516Y017289D02*
X011846Y017289D01*
X012016Y017191D02*
X009396Y017191D01*
X009226Y017092D02*
X012187Y017092D01*
X012900Y017400D02*
X013200Y017700D01*
X013900Y017700D01*
X014700Y017250D01*
X014700Y016250D01*
X014300Y015850D01*
X014274Y016107D02*
X014048Y016107D01*
X014142Y016206D02*
X014373Y016206D01*
X014471Y016304D02*
X014137Y016304D01*
X014450Y015300D02*
X014350Y015200D01*
X014200Y014950D01*
X014450Y015300D02*
X014700Y015300D01*
X015093Y015082D01*
X016300Y013932D02*
X016300Y013650D01*
X016300Y013538D02*
X016438Y013550D01*
X016300Y013538D02*
X016300Y013250D01*
X016300Y013932D02*
X016438Y013944D01*
X016373Y010591D02*
X016272Y010591D01*
X016272Y010493D02*
X016373Y010493D01*
X016373Y010394D02*
X016272Y010394D01*
X016272Y010296D02*
X016373Y010296D01*
X016373Y010197D02*
X016272Y010197D01*
X016272Y010099D02*
X016373Y010099D01*
X016373Y010000D02*
X016272Y010000D01*
X016272Y009902D02*
X016373Y009902D01*
X016373Y009803D02*
X016272Y009803D01*
X016272Y009705D02*
X016373Y009705D01*
X015850Y010150D02*
X015550Y010150D01*
X015000Y009600D01*
X015000Y007500D01*
X014650Y007150D01*
X014320Y007150D01*
X014246Y007224D01*
X013700Y007224D01*
X013200Y007424D02*
X013200Y007500D01*
X013700Y008000D01*
X013724Y008000D01*
X014320Y008000D01*
X014600Y008000D01*
X014800Y008200D01*
X014800Y009700D01*
X015506Y010406D01*
X015850Y010406D01*
X015428Y009705D02*
X015387Y009705D01*
X015428Y009606D02*
X015289Y009606D01*
X015200Y009508D02*
X015428Y009508D01*
X015428Y009409D02*
X015200Y009409D01*
X015200Y009311D02*
X015428Y009311D01*
X015428Y009212D02*
X015200Y009212D01*
X015200Y009114D02*
X015428Y009114D01*
X015428Y009015D02*
X015200Y009015D01*
X015200Y008917D02*
X015428Y008917D01*
X015438Y008818D02*
X015200Y008818D01*
X015200Y008720D02*
X016373Y008720D01*
X016373Y008621D02*
X015200Y008621D01*
X015200Y008523D02*
X016373Y008523D01*
X016423Y008424D02*
X015200Y008424D01*
X015200Y008326D02*
X015283Y008326D01*
X015234Y008227D02*
X015200Y008227D01*
X015200Y008129D02*
X015233Y008129D01*
X015200Y008030D02*
X015531Y008030D01*
X015531Y007932D02*
X015628Y007932D01*
X015628Y007833D02*
X015531Y007833D01*
X015531Y007735D02*
X015628Y007735D01*
X015628Y007636D02*
X015531Y007636D01*
X015531Y007439D02*
X015628Y007439D01*
X015628Y007341D02*
X015531Y007341D01*
X015531Y007242D02*
X015628Y007242D01*
X015628Y007144D02*
X016126Y007144D01*
X016126Y007242D02*
X016226Y007242D01*
X016226Y007341D02*
X016126Y007341D01*
X016126Y007439D02*
X016226Y007439D01*
X016226Y007538D02*
X016126Y007538D01*
X016126Y007636D02*
X016226Y007636D01*
X016226Y007735D02*
X016126Y007735D01*
X016126Y007833D02*
X016226Y007833D01*
X016226Y008030D02*
X016126Y008030D01*
X016126Y008129D02*
X016226Y008129D01*
X016226Y008227D02*
X016126Y008227D01*
X016126Y008326D02*
X016226Y008326D01*
X016460Y008326D02*
X016625Y008326D01*
X015892Y008326D02*
X015877Y008326D01*
X015628Y008326D02*
X015531Y008326D01*
X015531Y008227D02*
X015628Y008227D01*
X015628Y008129D02*
X015531Y008129D01*
X015233Y007932D02*
X015200Y007932D01*
X015200Y007833D02*
X015233Y007833D01*
X015245Y007735D02*
X015200Y007735D01*
X015200Y007636D02*
X015333Y007636D01*
X015200Y007538D02*
X015816Y007538D01*
X015531Y007144D02*
X014926Y007144D01*
X015025Y007242D02*
X015233Y007242D01*
X015233Y007341D02*
X015123Y007341D01*
X015200Y007439D02*
X015257Y007439D01*
X015233Y007045D02*
X014828Y007045D01*
X014667Y006947D02*
X015233Y006947D01*
X015264Y006848D02*
X014640Y006848D01*
X014145Y006750D02*
X015852Y006750D01*
X015628Y006848D02*
X015531Y006848D01*
X015531Y006947D02*
X015628Y006947D01*
X015628Y007045D02*
X015531Y007045D01*
X016126Y007045D02*
X016226Y007045D01*
X016226Y006947D02*
X016126Y006947D01*
X016126Y006848D02*
X016226Y006848D01*
X016226Y006750D02*
X016126Y006750D01*
X016500Y006750D02*
X016600Y006750D01*
X017221Y006651D02*
X014145Y006651D01*
X014145Y006553D02*
X017221Y006553D01*
X017221Y006454D02*
X014145Y006454D01*
X014145Y006356D02*
X017221Y006356D01*
X017221Y006257D02*
X014145Y006257D01*
X014107Y006159D02*
X017221Y006159D01*
X017221Y006060D02*
X013700Y006060D01*
X013700Y005962D02*
X017221Y005962D01*
X017221Y005863D02*
X013700Y005863D01*
X013700Y005765D02*
X017221Y005765D01*
X017221Y005666D02*
X013700Y005666D01*
X013650Y005568D02*
X015191Y005568D01*
X015339Y005568D02*
X017221Y005568D01*
X017221Y005469D02*
X015456Y005469D01*
X015513Y005371D02*
X017221Y005371D01*
X017182Y005272D02*
X015569Y005272D01*
X015626Y005174D02*
X017011Y005174D01*
X016841Y005075D02*
X015635Y005075D01*
X015740Y004977D02*
X016670Y004977D01*
X016543Y004878D02*
X016240Y004878D01*
X016339Y004780D02*
X016486Y004780D01*
X016471Y004681D02*
X016437Y004681D01*
X015723Y003997D02*
X015850Y003870D01*
X015850Y003500D01*
X014050Y002450D01*
X013850Y002450D01*
X013200Y003100D01*
X012766Y003499D02*
X011950Y003499D01*
X011900Y003367D02*
X011900Y003035D01*
X011997Y003035D01*
X011755Y002894D01*
X011755Y002941D01*
X011716Y003035D01*
X011800Y003035D01*
X011800Y003300D01*
X011833Y003300D01*
X011900Y003367D01*
X011900Y003302D02*
X011835Y003302D01*
X011800Y003204D02*
X011900Y003204D01*
X011900Y003105D02*
X011800Y003105D01*
X011728Y003007D02*
X011948Y003007D01*
X011779Y002908D02*
X011755Y002908D01*
X012230Y003204D02*
X012286Y003204D01*
X012230Y003302D02*
X012456Y003302D01*
X012625Y003401D02*
X012230Y003401D01*
X011900Y003633D02*
X011833Y003700D01*
X011800Y003700D01*
X011800Y003895D01*
X011900Y003895D01*
X011900Y003633D01*
X011900Y003696D02*
X011837Y003696D01*
X011800Y003795D02*
X011900Y003795D01*
X011900Y003893D02*
X011800Y003893D01*
X011628Y003965D02*
X011600Y003965D01*
X011562Y003955D01*
X011556Y003951D01*
X011542Y003965D01*
X010958Y003965D01*
X010950Y003957D01*
X010942Y003965D01*
X010875Y003965D01*
X010875Y005257D01*
X011043Y005425D01*
X011663Y005425D01*
X011688Y005400D01*
X011605Y005317D01*
X011605Y004983D01*
X011688Y004900D01*
X011605Y004817D01*
X011605Y004483D01*
X011693Y004395D01*
X011698Y004395D01*
X011697Y004395D01*
X011663Y004375D01*
X011635Y004347D01*
X011615Y004313D01*
X011605Y004275D01*
X011605Y004153D01*
X012057Y004153D01*
X012057Y004147D01*
X011605Y004147D01*
X011605Y004025D01*
X011615Y003987D01*
X011628Y003965D01*
X011614Y003992D02*
X010875Y003992D01*
X010875Y004090D02*
X011605Y004090D01*
X011605Y004189D02*
X010875Y004189D01*
X010875Y004287D02*
X011608Y004287D01*
X011681Y004386D02*
X010875Y004386D01*
X010875Y004484D02*
X011605Y004484D01*
X011605Y004583D02*
X010875Y004583D01*
X010875Y004681D02*
X011605Y004681D01*
X011605Y004780D02*
X010875Y004780D01*
X010875Y004878D02*
X011666Y004878D01*
X011611Y004977D02*
X010875Y004977D01*
X010875Y005075D02*
X011605Y005075D01*
X011605Y005174D02*
X010875Y005174D01*
X010890Y005272D02*
X011605Y005272D01*
X011658Y005371D02*
X010989Y005371D01*
X011100Y005650D02*
X009650Y007100D01*
X009889Y007144D02*
X010055Y007144D01*
X010055Y007242D02*
X009850Y007242D01*
X009842Y007341D02*
X010055Y007341D01*
X010055Y007439D02*
X009744Y007439D01*
X009645Y007538D02*
X010055Y007538D01*
X010085Y007636D02*
X007797Y007636D01*
X007698Y007735D02*
X010115Y007735D01*
X010060Y007833D02*
X007600Y007833D01*
X007501Y007932D02*
X010055Y007932D01*
X010055Y008129D02*
X007304Y008129D01*
X007206Y008227D02*
X010055Y008227D01*
X009826Y008326D02*
X009726Y008326D01*
X009726Y008424D02*
X009826Y008424D01*
X009826Y008523D02*
X009726Y008523D01*
X009726Y008621D02*
X009826Y008621D01*
X010135Y009114D02*
X010163Y009114D01*
X010826Y009508D02*
X010831Y009508D01*
X010920Y008917D02*
X011535Y008917D01*
X011551Y008818D02*
X011633Y008818D01*
X011624Y008720D02*
X011701Y008720D01*
X011701Y008621D02*
X011624Y008621D01*
X011624Y008523D02*
X011709Y008523D01*
X011624Y008424D02*
X011808Y008424D01*
X011954Y008326D02*
X011624Y008326D01*
X011624Y008227D02*
X012580Y008227D01*
X012580Y008129D02*
X011624Y008129D01*
X011612Y008030D02*
X011909Y008030D01*
X011876Y007932D02*
X011624Y007932D01*
X011624Y007833D02*
X011876Y007833D01*
X011876Y007735D02*
X011624Y007735D01*
X011605Y007636D02*
X011895Y007636D01*
X012260Y007242D02*
X012555Y007242D01*
X012555Y007144D02*
X012162Y007144D01*
X012359Y007341D02*
X012555Y007341D01*
X012555Y007439D02*
X012457Y007439D01*
X012487Y007538D02*
X012589Y007538D01*
X013000Y007224D02*
X013200Y007424D01*
X012555Y007045D02*
X010944Y007045D01*
X010845Y006947D02*
X012555Y006947D01*
X012647Y006848D02*
X010185Y006848D01*
X010155Y006947D02*
X010086Y006947D01*
X010056Y007045D02*
X009988Y007045D01*
X010283Y006750D02*
X012555Y006750D01*
X012555Y006651D02*
X010382Y006651D01*
X010480Y006553D02*
X012555Y006553D01*
X012555Y006454D02*
X010579Y006454D01*
X010677Y006356D02*
X012555Y006356D01*
X012555Y006257D02*
X010776Y006257D01*
X010874Y006159D02*
X012593Y006159D01*
X012469Y005863D02*
X013080Y005863D01*
X013100Y005962D02*
X011071Y005962D01*
X010973Y006060D02*
X013007Y006060D01*
X012982Y005765D02*
X012515Y005765D01*
X012515Y005666D02*
X012883Y005666D01*
X012785Y005568D02*
X012515Y005568D01*
X012501Y005469D02*
X012686Y005469D01*
X012588Y005371D02*
X012462Y005371D01*
X012650Y005150D02*
X012060Y005150D01*
X012060Y004650D02*
X012250Y004650D01*
X012550Y004950D01*
X012750Y004950D01*
X012800Y005000D01*
X013500Y005700D01*
X013500Y006276D01*
X013700Y006476D01*
X013200Y006276D02*
X013200Y006150D01*
X013300Y006050D01*
X013300Y005800D01*
X012650Y005150D01*
X012961Y004878D02*
X014632Y004878D01*
X014575Y004977D02*
X013059Y004977D01*
X013158Y005075D02*
X014545Y005075D01*
X014571Y005174D02*
X013256Y005174D01*
X013355Y005272D02*
X014679Y005272D01*
X014850Y005371D02*
X013453Y005371D01*
X013552Y005469D02*
X015020Y005469D01*
X014689Y004780D02*
X012862Y004780D01*
X012627Y004583D02*
X012515Y004583D01*
X012564Y004681D02*
X014746Y004681D01*
X014468Y003401D02*
X015283Y003401D01*
X015114Y003302D02*
X014525Y003302D01*
X014582Y003204D02*
X014945Y003204D01*
X014776Y003105D02*
X014638Y003105D01*
X012577Y003992D02*
X012506Y003992D01*
X012550Y004000D02*
X012450Y004150D01*
X012300Y004150D01*
X012465Y004153D02*
X012467Y004147D01*
X012063Y004147D01*
X012063Y004153D01*
X012465Y004153D01*
X011750Y003500D02*
X011250Y003500D01*
X013200Y006276D02*
X013000Y006476D01*
X012580Y008326D02*
X012570Y008326D01*
X012593Y008799D02*
X012588Y008805D01*
X012624Y008805D01*
X012624Y009200D01*
X012724Y009200D01*
X012724Y008805D01*
X012897Y008805D01*
X012948Y008818D01*
X012953Y008822D01*
X012883Y008751D01*
X012875Y008743D01*
X012819Y008799D01*
X012593Y008799D01*
X012624Y008818D02*
X012724Y008818D01*
X012724Y008917D02*
X012624Y008917D01*
X012624Y009015D02*
X012724Y009015D01*
X012724Y009114D02*
X012624Y009114D01*
X012724Y009200D02*
X012724Y009300D01*
X012980Y009300D01*
X013326Y009300D01*
X013326Y009200D01*
X012724Y009200D01*
X012724Y009212D02*
X013326Y009212D01*
X012950Y008818D02*
X012947Y008818D01*
X012724Y009311D02*
X012624Y009311D01*
X012624Y009409D02*
X012724Y009409D01*
X012724Y009508D02*
X012624Y009508D01*
X012624Y009606D02*
X012724Y009606D01*
X012311Y009606D02*
X012295Y009606D01*
X010926Y008818D02*
X010920Y008818D01*
X010450Y008030D02*
X007403Y008030D01*
X007330Y007538D02*
X006350Y007538D01*
X006350Y007439D02*
X007428Y007439D01*
X007527Y007341D02*
X006350Y007341D01*
X006350Y007242D02*
X007625Y007242D01*
X007670Y007144D02*
X006350Y007144D01*
X006350Y007045D02*
X007670Y007045D01*
X007670Y006848D02*
X006000Y006848D01*
X006000Y006750D02*
X005900Y006750D01*
X005900Y006848D02*
X005350Y006848D01*
X005350Y006750D02*
X005550Y006750D01*
X005550Y006651D02*
X005350Y006651D01*
X005350Y006553D02*
X005550Y006553D01*
X005550Y006454D02*
X005350Y006454D01*
X005350Y006356D02*
X005550Y006356D01*
X005550Y006257D02*
X005350Y006257D01*
X005350Y006159D02*
X005550Y006159D01*
X005564Y006060D02*
X005349Y006060D01*
X005200Y005850D02*
X004950Y006100D01*
X004950Y006824D01*
X005350Y006947D02*
X005550Y006947D01*
X005550Y006874D02*
X005900Y006874D01*
X005900Y007675D01*
X005680Y007675D01*
X005642Y007665D01*
X005608Y007645D01*
X005580Y007617D01*
X005560Y007583D01*
X005550Y007545D01*
X005550Y006874D01*
X005550Y007045D02*
X005350Y007045D01*
X005350Y007144D02*
X005550Y007144D01*
X005550Y007242D02*
X005350Y007242D01*
X005350Y007341D02*
X005550Y007341D01*
X005550Y007439D02*
X005350Y007439D01*
X005350Y007538D02*
X005550Y007538D01*
X005599Y007636D02*
X005301Y007636D01*
X005900Y007636D02*
X006000Y007636D01*
X006000Y007538D02*
X005900Y007538D01*
X005900Y007439D02*
X006000Y007439D01*
X006000Y007341D02*
X005900Y007341D01*
X005900Y007242D02*
X006000Y007242D01*
X006000Y007144D02*
X005900Y007144D01*
X005900Y007045D02*
X006000Y007045D01*
X006000Y006947D02*
X005900Y006947D01*
X005900Y006651D02*
X006000Y006651D01*
X006000Y006553D02*
X005900Y006553D01*
X005900Y006454D02*
X006000Y006454D01*
X006000Y006356D02*
X005900Y006356D01*
X005900Y006257D02*
X006000Y006257D01*
X006000Y006159D02*
X005900Y006159D01*
X005900Y006060D02*
X006000Y006060D01*
X005921Y005962D02*
X007919Y005962D01*
X007900Y006060D02*
X006336Y006060D01*
X006350Y006159D02*
X007900Y006159D01*
X007900Y006257D02*
X006350Y006257D01*
X006350Y006356D02*
X007936Y006356D01*
X008000Y006454D02*
X008034Y006454D01*
X008000Y006553D02*
X008100Y006553D01*
X008100Y006651D02*
X008000Y006651D01*
X008000Y006750D02*
X008068Y006750D01*
X008200Y006900D02*
X008650Y006900D01*
X008000Y006947D02*
X006350Y006947D01*
X006350Y006750D02*
X007670Y006750D01*
X007670Y006651D02*
X006350Y006651D01*
X006350Y006553D02*
X007673Y006553D01*
X007747Y006454D02*
X006350Y006454D01*
X006020Y005863D02*
X007730Y005863D01*
X007632Y005765D02*
X006118Y005765D01*
X006217Y005666D02*
X007068Y005666D01*
X007030Y005568D02*
X006315Y005568D01*
X006414Y005469D02*
X007030Y005469D01*
X007030Y005371D02*
X006512Y005371D01*
X006611Y005272D02*
X007376Y005272D01*
X007376Y005371D02*
X007476Y005371D01*
X007476Y005469D02*
X007376Y005469D01*
X007376Y005568D02*
X007476Y005568D01*
X007476Y005666D02*
X007376Y005666D01*
X007030Y005174D02*
X006709Y005174D01*
X006808Y005075D02*
X007030Y005075D01*
X006750Y004850D02*
X005750Y005850D01*
X005200Y005850D01*
X006750Y004850D02*
X007700Y004850D01*
X007800Y004950D01*
X007800Y005650D02*
X007900Y005750D01*
X008500Y005750D01*
X009380Y008818D02*
X006615Y008818D01*
X006516Y008917D02*
X009380Y008917D01*
X009380Y009015D02*
X006418Y009015D01*
X004550Y009015D02*
X004350Y009015D01*
X004350Y008917D02*
X004550Y008917D01*
X004550Y008818D02*
X004350Y008818D01*
X004350Y008720D02*
X004550Y008720D01*
X004550Y008621D02*
X004350Y008621D01*
X004350Y008523D02*
X004550Y008523D01*
X004550Y008424D02*
X004350Y008424D01*
X004350Y008326D02*
X004550Y008326D01*
X004550Y008227D02*
X004350Y008227D01*
X004350Y008129D02*
X004550Y008129D01*
X004633Y008030D02*
X004267Y008030D01*
X004549Y007932D02*
X002721Y007932D01*
X003050Y008300D02*
X002100Y008300D01*
X002113Y008030D02*
X003633Y008030D01*
X003550Y008129D02*
X003161Y008129D01*
X003260Y008227D02*
X003550Y008227D01*
X003550Y008326D02*
X003358Y008326D01*
X003457Y008424D02*
X003550Y008424D01*
X003626Y008876D02*
X003050Y008300D01*
X003187Y008720D02*
X002719Y008720D01*
X002818Y008818D02*
X003285Y008818D01*
X003384Y008917D02*
X002826Y008917D01*
X002826Y009015D02*
X003482Y009015D01*
X003550Y009114D02*
X002826Y009114D01*
X002826Y009212D02*
X003550Y009212D01*
X003550Y009311D02*
X002826Y009311D01*
X002826Y009409D02*
X003550Y009409D01*
X003550Y009508D02*
X002826Y009508D01*
X002804Y009606D02*
X003550Y009606D01*
X003616Y009705D02*
X002705Y009705D01*
X002460Y009205D02*
X002450Y010300D01*
X002651Y010197D02*
X003321Y010197D01*
X003326Y010196D02*
X003650Y010196D01*
X003650Y010650D01*
X003196Y010650D01*
X003196Y010326D01*
X003206Y010288D01*
X003226Y010254D01*
X003254Y010226D01*
X003288Y010206D01*
X003326Y010196D01*
X003204Y010296D02*
X002728Y010296D01*
X002827Y010394D02*
X003196Y010394D01*
X003196Y010493D02*
X002925Y010493D01*
X003024Y010591D02*
X003196Y010591D01*
X003650Y010591D02*
X003750Y010591D01*
X003750Y010493D02*
X003650Y010493D01*
X003650Y010394D02*
X003750Y010394D01*
X003750Y010296D02*
X003650Y010296D01*
X003650Y010197D02*
X003750Y010197D01*
X004079Y010197D02*
X004282Y010197D01*
X004284Y009705D02*
X004616Y009705D01*
X004550Y009606D02*
X004350Y009606D01*
X004350Y009508D02*
X004550Y009508D01*
X004550Y009409D02*
X004350Y009409D01*
X004350Y009311D02*
X004550Y009311D01*
X004550Y009212D02*
X004350Y009212D01*
X004350Y009114D02*
X004550Y009114D01*
X003950Y008876D02*
X003626Y008876D01*
X002250Y007932D02*
X002250Y007932D01*
X002250Y007833D02*
X002250Y007833D01*
X002250Y007735D02*
X002250Y007735D01*
X002250Y007636D02*
X002250Y007636D01*
X001200Y008750D02*
X000900Y008450D01*
X000900Y005900D01*
X001200Y005600D01*
X002850Y005600D01*
X001200Y008750D02*
X001200Y009205D01*
X002460Y011095D02*
X002460Y011440D01*
X002250Y011650D01*
X001150Y011650D01*
X000700Y012100D01*
X000700Y014800D01*
X001350Y015200D01*
X001350Y016400D01*
X001850Y016700D01*
X002350Y016700D01*
X002950Y016100D01*
X002750Y016017D02*
X002750Y015681D01*
X002738Y015724D01*
X002673Y015836D01*
X002280Y015609D01*
X002230Y015696D01*
X002623Y015923D01*
X002559Y016035D01*
X002519Y016076D01*
X002469Y016104D01*
X002427Y016115D01*
X002454Y016217D01*
X002322Y016445D01*
X002750Y016017D01*
X002750Y016009D02*
X002574Y016009D01*
X002601Y015910D02*
X002750Y015910D01*
X002750Y015812D02*
X002688Y015812D01*
X002630Y015812D02*
X002430Y015812D01*
X002460Y015713D02*
X002260Y015713D01*
X002277Y015615D02*
X002289Y015615D01*
X002161Y015615D02*
X002089Y015615D01*
X002119Y015516D02*
X001919Y015516D01*
X001948Y015418D02*
X001750Y015418D01*
X001750Y015319D02*
X001807Y015319D01*
X001750Y015221D02*
X001864Y015221D01*
X001750Y015122D02*
X001992Y015122D01*
X001978Y015024D02*
X001750Y015024D01*
X001726Y014925D02*
X002035Y014925D01*
X002092Y014827D02*
X001568Y014827D01*
X001408Y014728D02*
X002149Y014728D01*
X002206Y014630D02*
X001248Y014630D01*
X001100Y014531D02*
X002295Y014531D01*
X002294Y014433D02*
X001100Y014433D01*
X001100Y014334D02*
X002294Y014334D01*
X002294Y014236D02*
X001100Y014236D01*
X001100Y014137D02*
X002294Y014137D01*
X002294Y014039D02*
X001100Y014039D01*
X001100Y013940D02*
X002294Y013940D01*
X002294Y013842D02*
X001100Y013842D01*
X001100Y013743D02*
X002294Y013743D01*
X002294Y013645D02*
X001100Y013645D01*
X001100Y013546D02*
X002294Y013546D01*
X002294Y013448D02*
X001100Y013448D01*
X001100Y013349D02*
X002294Y013349D01*
X002294Y013251D02*
X001100Y013251D01*
X001100Y013152D02*
X002294Y013152D01*
X002294Y013054D02*
X001100Y013054D01*
X001100Y012955D02*
X002294Y012955D01*
X002294Y012857D02*
X001100Y012857D01*
X001100Y012758D02*
X002294Y012758D01*
X002294Y012660D02*
X001100Y012660D01*
X001100Y012561D02*
X002294Y012561D01*
X002294Y012463D02*
X001100Y012463D01*
X001100Y012364D02*
X002294Y012364D01*
X002296Y012266D02*
X001167Y012266D01*
X001266Y012167D02*
X002340Y012167D01*
X002478Y012069D02*
X001364Y012069D01*
X001300Y011850D02*
X002500Y011850D01*
X001300Y011850D02*
X000900Y012250D01*
X000900Y014650D01*
X001550Y015050D01*
X001550Y015950D01*
X001897Y016173D01*
X002347Y016403D02*
X002365Y016403D01*
X002403Y016304D02*
X002463Y016304D01*
X002451Y016206D02*
X002562Y016206D01*
X002660Y016107D02*
X002457Y016107D01*
X002741Y015713D02*
X002750Y015713D01*
X002950Y015300D02*
X002600Y015100D01*
X002545Y015100D01*
X002527Y015082D01*
X001150Y015350D02*
X001150Y016550D01*
X001200Y016600D01*
X001150Y015350D02*
X001100Y015350D01*
X004747Y015615D02*
X013092Y015615D01*
X013074Y015713D02*
X004846Y015713D01*
X004833Y015700D02*
X004833Y015700D01*
X004950Y016403D02*
X010756Y016403D01*
X010688Y016501D02*
X004950Y016501D01*
X004950Y016600D02*
X010655Y016600D01*
X010655Y016698D02*
X004950Y016698D01*
X004950Y016797D02*
X010687Y016797D01*
X010753Y016895D02*
X005056Y016895D01*
X013108Y015516D02*
X013263Y015516D01*
X013279Y015418D02*
X013237Y015418D01*
X013269Y015319D02*
X013180Y015319D01*
D32*
X013300Y015450D02*
X013150Y015550D01*
X012900Y015700D01*
X011060Y015700D01*
X011010Y015650D01*
X011010Y015660D01*
X012150Y016800D01*
X013350Y016800D01*
X013772Y016572D01*
X012750Y017650D02*
X012550Y017650D01*
X008900Y019750D01*
X008700Y019750D01*
X005050Y017650D01*
X004850Y017650D01*
X004650Y017650D01*
X004250Y017250D01*
X004250Y016800D01*
X003848Y016572D01*
X004850Y017650D02*
X004400Y018100D01*
X003800Y018100D01*
X001200Y016600D01*
X001100Y015350D02*
X000450Y014950D01*
X000450Y010750D01*
X000750Y010450D01*
X001600Y010450D01*
X001830Y010680D01*
X001830Y011095D01*
X002200Y012100D02*
X001800Y012500D01*
X001800Y015400D01*
X002212Y015628D01*
X002650Y012050D02*
X003700Y011000D01*
X003700Y010700D01*
X003700Y010200D01*
X003900Y010000D01*
X004750Y010000D01*
X004450Y009700D01*
X004450Y008100D01*
X004300Y007950D01*
X002800Y007950D01*
X002700Y008050D01*
X002350Y008050D01*
X002250Y007950D01*
X002250Y007610D01*
X002544Y006824D02*
X002510Y006790D01*
X002544Y006824D02*
X003950Y006824D01*
X003950Y006100D01*
X004450Y005600D01*
X005650Y005600D01*
X006650Y004600D01*
X007800Y004600D01*
X008174Y004974D01*
X008174Y005300D01*
X008424Y005300D01*
X008774Y005650D01*
X009140Y005650D01*
X009140Y005980D01*
X009310Y006150D01*
X009700Y005760D01*
X009700Y003585D01*
X008810Y002695D01*
X009050Y002300D02*
X008550Y002300D01*
X008350Y002500D01*
X008350Y003750D01*
X008750Y004150D01*
X009140Y004150D01*
X009140Y004650D02*
X008700Y004650D01*
X008600Y004550D01*
X008600Y004350D01*
X008400Y004150D01*
X007750Y003500D01*
X006950Y003500D01*
X006350Y003500D02*
X006350Y003000D01*
X006220Y002870D01*
X005750Y003500D02*
X005750Y003900D01*
X004900Y004750D01*
X004100Y004750D01*
X003000Y005850D01*
X001750Y005850D01*
X001150Y006450D01*
X001150Y008150D01*
X001550Y008550D01*
X002000Y008550D01*
X002900Y008550D01*
X003250Y008900D01*
X003250Y009750D01*
X003700Y010200D01*
X004750Y010000D02*
X005440Y010000D01*
X005440Y008010D01*
X005450Y008000D01*
X005950Y007500D01*
X005950Y006824D01*
X006500Y006824D01*
X006700Y006624D01*
X006700Y005550D01*
X006950Y005300D01*
X007426Y005300D01*
X008310Y006150D02*
X008650Y006490D01*
X008650Y006900D01*
X008050Y006900D02*
X007000Y006900D01*
X006924Y006824D01*
X006500Y006824D01*
X009250Y006900D02*
X009550Y006900D01*
X010000Y006450D01*
X010000Y003250D01*
X009050Y002300D01*
X008810Y001495D02*
X009055Y001250D01*
X010150Y001250D01*
X012900Y002850D01*
X013100Y002850D01*
X013800Y002150D01*
X014000Y002150D01*
X016350Y003500D01*
X016350Y004450D01*
X016100Y004700D01*
X015566Y004700D01*
X015408Y004542D01*
X014250Y004400D02*
X014250Y003850D01*
X013772Y003598D01*
X014250Y004400D02*
X013950Y004700D01*
X012900Y004700D01*
X012700Y004700D01*
X012900Y004700D02*
X014200Y006000D01*
X015050Y006000D01*
X015580Y006530D01*
X015580Y007150D01*
X015580Y008000D01*
X015680Y007900D01*
X016176Y007900D01*
X016176Y007150D01*
X015580Y008000D02*
X015580Y008420D01*
X015300Y008700D01*
X015300Y009450D01*
X015488Y009638D01*
X015850Y009638D01*
X015200Y010450D02*
X014774Y010450D01*
X014324Y010000D01*
X014250Y009926D01*
X014250Y009350D01*
X014124Y009250D01*
X013750Y008850D02*
X013550Y008650D01*
X013100Y008650D01*
X012976Y008526D01*
X012976Y008324D01*
X012726Y008574D01*
X012262Y008574D01*
X011976Y008574D01*
X011926Y008624D01*
X011926Y009250D01*
X012170Y009900D02*
X012450Y009900D01*
X012674Y009676D01*
X012674Y009250D01*
X013376Y009250D01*
X013750Y009650D02*
X013576Y009824D01*
X013576Y010000D01*
X013750Y010000D01*
X013700Y010124D02*
X013700Y010550D01*
X013824Y010674D01*
X013824Y010700D01*
X013924Y010800D01*
X015150Y010800D01*
X015300Y010950D01*
X015300Y011100D01*
X015300Y011150D01*
X015412Y010662D02*
X015200Y010450D01*
X015412Y010662D02*
X015850Y010662D01*
X015356Y011656D02*
X015015Y011656D01*
X015356Y011656D02*
X015800Y012100D01*
X015800Y012800D01*
X016150Y013150D01*
X016432Y013150D01*
X016438Y013156D01*
X016706Y013156D01*
X016950Y013400D01*
X016950Y014100D01*
X016300Y014750D01*
X016300Y014950D01*
X015900Y015350D01*
X015408Y015628D01*
X016300Y014950D02*
X016300Y016700D01*
X013850Y018100D01*
X013200Y018100D01*
X012750Y017650D01*
X013982Y013400D02*
X013982Y013282D01*
X010900Y010200D01*
X010900Y009900D01*
X010524Y009524D01*
X010524Y008750D01*
X010700Y008574D01*
X011238Y008574D01*
X011238Y008200D02*
X010626Y008200D01*
X010500Y008074D01*
X010126Y008074D01*
X009950Y008250D01*
X009950Y007100D01*
X010300Y006750D01*
X011850Y006750D01*
X012550Y006050D01*
X012550Y005500D01*
X012450Y005400D01*
X012060Y005650D02*
X011100Y005650D01*
X010950Y005650D01*
X010650Y005350D01*
X010650Y003500D01*
X011250Y003500D02*
X011250Y003020D01*
X011400Y002870D01*
X011850Y003500D02*
X011850Y003750D01*
X012050Y003950D01*
X012050Y004140D01*
X012060Y004150D01*
X012200Y004150D01*
X012060Y004150D02*
X011700Y004150D01*
X011350Y004500D01*
X011350Y005100D01*
X011650Y005400D01*
X012026Y007326D02*
X010500Y007326D01*
X009950Y008250D02*
X009776Y008424D01*
X009776Y008750D01*
X009776Y010276D01*
X010650Y011150D01*
X011030Y011150D01*
X008810Y013370D01*
X005440Y010000D01*
X008750Y013400D02*
X008810Y013400D01*
X008810Y013370D01*
X011170Y010070D02*
X012600Y011500D01*
X013850Y011500D01*
X013950Y011400D01*
X014385Y011400D01*
X014385Y011656D02*
X014385Y011735D01*
X014600Y011950D01*
X015250Y011950D01*
X015500Y012200D01*
X015500Y012900D01*
X016150Y013550D01*
X016438Y013550D01*
X013700Y010124D02*
X013576Y010000D01*
X013076Y010326D02*
X013076Y010700D01*
X013076Y010326D02*
X012650Y009900D01*
X012450Y009900D01*
X011170Y010070D02*
X011170Y009400D01*
X012262Y007826D02*
X012262Y007562D01*
X012026Y007326D01*
X012976Y008000D02*
X012976Y008324D01*
X008810Y001495D02*
X008565Y001250D01*
X007500Y001250D01*
X004700Y002850D01*
X004500Y002850D01*
X003800Y002150D01*
X003650Y002150D01*
X001200Y003550D01*
X001200Y004800D01*
X001750Y004800D01*
X001850Y004750D01*
X002212Y004542D01*
X001200Y004800D02*
X000450Y005550D01*
X000450Y010750D01*
X001830Y009205D02*
X001830Y008720D01*
X002000Y008550D01*
X003848Y003598D02*
X003896Y003550D01*
X005050Y003550D01*
X005100Y003500D01*
X005750Y003500D01*
D33*
X011650Y005400D02*
X012450Y005400D01*
D34*
X012700Y004700D02*
X012200Y004150D01*
X014385Y011144D02*
X014644Y011144D01*
X014700Y011200D01*
X014700Y011450D01*
X014650Y011400D01*
X014385Y011400D01*
X014700Y011450D02*
X014700Y011550D01*
X014806Y011656D01*
X015015Y011656D01*
X015015Y011400D02*
X015250Y011400D01*
X015300Y011350D01*
X015300Y011100D01*
X015244Y011144D01*
X015015Y011144D01*
D35*
X002650Y012050D02*
X002250Y012050D01*
X002200Y012100D01*
D36*
X003639Y012161D02*
X003639Y013400D01*
X003639Y012161D02*
X004700Y011100D01*
X004700Y010700D01*
X013982Y013400D02*
X014525Y013944D01*
X016438Y013944D01*
X016897Y011297D02*
X016897Y010473D01*
X016897Y009815D01*
X016897Y009003D01*
X016924Y008977D01*
X016924Y007900D01*
X016924Y007150D01*
X016897Y009003D02*
X016720Y009181D01*
X015992Y009181D01*
X015992Y011119D02*
X016720Y011119D01*
X016897Y011297D01*
D37*
X013750Y009650D02*
X013750Y008850D01*
D38*
X007800Y005650D02*
X007800Y004950D01*
D39*
X007750Y003950D02*
X007750Y003850D01*
X007650Y003850D01*
X007650Y003750D01*
X007650Y003850D02*
X007650Y003950D01*
X007500Y003950D02*
X007400Y003950D01*
X007400Y003850D01*
X007500Y003850D01*
X007500Y003750D01*
X007400Y003750D01*
M02*
