<svg xmlns="http://www.w3.org/2000/svg" xmlns:xlink="http://www.w3.org/1999/xlink" id="Ebene_1" viewBox="0 0 512.00002 512.00002" width="512" height="512"><style id="style4273">.st0{display:none;fill:#010202;} .st1{fill:#006633;} .st2{fill:#010202;} .st3{fill:#006633;stroke:#006633;stroke-width:0.8859;stroke-miterlimit:10;} .st4{fill:#1CA638;} .st5{fill:#FFFFFF;} .st6{fill:#F8DB76;} .st7{fill:#FFFFFF;stroke:#F8DB76;stroke-width:0.3543;stroke-miterlimit:10;} .st8{fill:#FFFFFF;stroke:#F8DB76;stroke-width:0.2658;stroke-miterlimit:10;} .st9{fill:#006633;stroke:#006633;stroke-width:0.3543;stroke-miterlimit:10;} .st10{fill:none;stroke:#000000;stroke-width:0.7087;stroke-miterlimit:10;} .st11{fill:#F8DB76;stroke:#7C7C7C;stroke-width:0.3543;stroke-miterlimit:10;} .st12{fill:none;} .st13{fill:#383838;} .st14{fill:#828281;} .st15{fill:none;stroke:#383838;stroke-width:0.4429;stroke-miterlimit:10;} .st16{fill:#353535;} .st17{fill:#A6A9B5;} .st18{fill:#1CA638;stroke:#FFFFFF;stroke-width:0.4429;stroke-miterlimit:10;} .st19{fill:#F28C40;} .st20{fill:#916D14;} .st21{fill:none;stroke:#010202;stroke-width:1.7703;stroke-miterlimit:10;}</style><text id="text4606" transform="translate(0 364.6)"><textPath xlink:href="#SVGID_x5F_1_x5F_" startOffset="83.293%" id="textPath4608"/></text><g id="g4754" transform="matrix(4.15247 0 0 4.15247 -49.83 -1560.915)"><g id="g4277"><path id="polygon4279" class="st1" fill="#063" d="M73.6 376.9l52.5 30.3v60.6l-52.5 30.3-52.5-30.3v-60.6z"/><path id="path4281" d="M73.6 499.2l-.4-.3-52.9-30.6v-61.6l53.4-30.8 53.3 30.8v61.6l-53.4 30.9zM22 467.3l51.6 29.8 51.6-29.8v-59.6L73.6 378 22 407.7v59.6z" class="st2" fill="#010202"/></g><g id="g4283"><path id="polygon4285" class="st2" fill="#010202" d="M73.6 379.8l49.8 28.7v57.6l-49.8 28.7-49.9-28.7v-57.6z"/><path id="path4287" d="M73.6 495.4l-50.3-29v-58.1l50.3-29 .2.1 50.1 28.9v58.1l-50.3 29zm-49.4-29.6l49.4 28.5 49.4-28.5v-57l-49.4-28.5-49.4 28.5v57z" class="st1" fill="#063"/></g><path id="polygon4289" class="st3" fill="#063" stroke="#063" stroke-width=".886" stroke-miterlimit="10" d="M81.7 386.4l-8.1-4.7-8.2 4.8 8.2 48.5z"/><path id="polygon4291" class="st3" fill="#063" stroke="#063" stroke-width=".886" stroke-miterlimit="10" d="M73.3 431.6l29.4-45.1 9.9 16z"/><g id="g4293"><g id="g4295"><path id="rect4297" class="st2" fill="#010202" d="M102.354 387.898l.584.385-9.788 14.866-.585-.386z"/></g><g id="g4299"><path id="rect4301" class="st2" fill="#010202" d="M102.91 390.396l.58.392-8.905 13.172-.58-.393z"/></g><g id="g4303"><path id="rect4305" class="st2" fill="#010202" d="M104.213 391.468l.58.392-8.906 13.172-.58-.392z"/></g><g id="g4307"><path id="rect4309" class="st2" fill="#010202" d="M105.625 392.255l.58.392L97.3 405.82l-.58-.393z"/></g><g id="g4311"><path id="rect4313" class="st2" fill="#010202" d="M107.022 392.963l.58.392-8.906 13.17-.58-.39z"/></g><g id="g4315"><path id="rect4317" class="st2" fill="#010202" d="M108.434 393.75l.58.392-8.906 13.172-.58-.392z"/></g><g id="g4319"><path id="rect4321" class="st2" fill="#010202" d="M109.82 394.878l.58.392-8.906 13.172-.58-.392z"/></g></g><path id="polygon4323" class="st3" fill="#063" stroke="#063" stroke-width=".886" stroke-miterlimit="10" d="M73.3 432.4l48.3 9.4v-16.6z"/><path id="polygon4325" class="st3" fill="#063" stroke="#063" stroke-width=".886" stroke-miterlimit="10" d="M75.1 432.4l-28.8-45.1-9.8 16z"/><g id="g4327"><g id="g4329"><path id="rect4331" class="st2" fill="#010202" d="M122.35 425.733l.12.69-3.052.537-.12-.69z"/></g><g id="g4333"><path id="rect4335" class="st2" fill="#010202" d="M122.318 428.37l.075.696-2.982.322-.075-.696z"/></g><g id="g4337"><path id="rect4339" class="st2" fill="#010202" d="M119.7 431h2.4v.7h-2.4z"/></g><g id="g4341"><path id="rect4343" class="st2" fill="#010202" d="M119.743 433.39l2.69.237-.06.697-2.69-.236z"/></g><g id="g4345"><path id="rect4347" class="st2" fill="#010202" d="M120.28 436.008l2.164.39-.124.69-2.165-.392z"/></g></g><path id="polygon4349" class="st3" fill="#063" stroke="#063" stroke-width=".886" stroke-miterlimit="10" d="M73.8 432l-48.4-7.5v19.6z"/><g id="g4351"><g id="g4353"><path id="rect4355" class="st2" fill="#010202" d="M73.2 380.8h.7v18.3h-.7z"/></g><g id="g4357"><path id="rect4359" class="st2" fill="#010202" d="M74.823 381.796l.7.01-.248 17.998-.7-.01z"/></g><g id="g4361"><path id="rect4363" class="st2" fill="#010202" d="M76.507 382.594l.7.026-.61 16.388-.7-.026z"/></g><g id="g4365"><path id="rect4367" class="st2" fill="#010202" d="M78.256 383.794l.698.05-1.11 15.16-.698-.05z"/></g><g id="g4369"><path id="rect4371" class="st2" fill="#010202" d="M80.085 384.803l.696.076-1.556 14.415-.696-.076z"/></g><g id="g4373"><path id="rect4375" class="st2" fill="#010202" d="M72.287 381.76l.252 17.997-.7.01-.253-17.998z"/></g><g id="g4377"><path id="rect4379" class="st2" fill="#010202" d="M70.61 382.62l.62 16.39-.7.025-.618-16.388z"/></g><g id="g4381"><path id="rect4383" class="st2" fill="#010202" d="M68.9 383.843l1.104 15.16-.698.05-1.105-15.16z"/></g><g id="g4385"><path id="rect4387" class="st2" fill="#010202" d="M67.036 384.81l1.552 14.417-.696.075-1.552-14.417z"/></g></g><g id="g4389"><path id="path4391" d="M121.6 465.1l-47.8 26.6-48.1-26.5v-23c0-24.5 20-42.9 46.5-42.9 27.4 0 49.3 18.7 49.3 45.1l.1 20.7z" class="st1" fill="#063"/><path id="path4393" d="M73.8 492.8l-49-26.9v-23.6c0-25 20.4-43.8 47.4-43.8 28.6 0 50.2 19.8 50.2 46v21.2l-48.6 27.1zm-47.2-28l47.2 26 46.9-26.2v-20.2c0-25.2-20.8-44.2-48.5-44.2-26 0-45.7 18.1-45.7 42.1v22.5z" class="st2" fill="#010202"/></g><circle id="circle4395" r="35.6" cy="454.1" cx="73.2" class="st4" fill="#1ca638"/><circle id="circle4397" r="18.9" cy="454.1" cx="73.4" class="st1" fill="#063"/><g id="g4399"><path id="line4401" class="st5" fill="#fff" d="M55.2 403.1l31 84.7"/><path id="rect4403" class="st6" fill="#f8db76" d="M55.316 403.093l31.01 84.698-.28.104-31.012-84.698z"/></g><g id="g4405"><path id="line4407" class="st5" fill="#fff" d="M46.7 407l44.9 78.2"/><path id="rect4409" class="st6" fill="#f8db76" d="M46.833 406.953l44.834 78.153-.26.15L46.573 407.1z"/></g><path id="line4411" class="st7" fill="#fff" stroke="#f8db76" stroke-width=".354" stroke-miterlimit="10" d="M42.9 436.8l62 35.6"/><g id="g4413"><path id="line4415" class="st5" fill="#fff" d="M40.3 442.1l67.3 24.7"/><path id="rect4417" class="st6" fill="#f8db76" d="M40.347 441.978l67.32 24.672-.104.282-67.32-24.672z"/></g><g id="g4419"><path id="line4421" class="st5" fill="#fff" d="M38.8 448.6l70.1 12.1"/><path id="rect4423" class="st6" fill="#f8db76" d="M38.845 448.466l70.168 12.09-.05.295-70.17-12.09z"/></g><g id="g4425"><path id="line4427" class="st5" fill="#fff" d="M38.3 454.6h71.2"/><path id="rect4429" class="st6" fill="#f8db76" d="M38.3 454.4h71.1v.3H38.3z"/></g><g id="g4431"><path id="line4433" class="st5" fill="#fff" d="M38.3 460.8l71.2-12.5"/><path id="rect4435" class="st6" fill="#f8db76" d="M109.48 448.213l.052.296-71.117 12.468-.052-.296z"/></g><g id="g4437"><path id="line4439" class="st5" fill="#fff" d="M40.3 466.8l67.1-24.5"/><path id="rect4441" class="st6" fill="#f8db76" d="M107.41 442.22l.102.283-67.203 24.41-.103-.282z"/></g><g id="g4443"><path id="line4445" class="st5" fill="#fff" d="M42.9 472.4l61.8-35.6"/><path id="rect4447" class="st6" fill="#f8db76" d="M104.687 436.66l.15.26-61.774 35.6-.15-.26z"/></g><g id="g4449"><path id="line4451" class="st5" fill="#fff" d="M46.3 477.8l56.6-47.7"/><path id="rect4453" class="st6" fill="#f8db76" d="M102.88 430.03l.193.228-56.624 47.64-.194-.228z"/></g><g id="g4455"><path id="line4457" class="st5" fill="#fff" d="M50.8 482.2l52.6-62.7"/><path id="rect4459" class="st6" fill="#f8db76" d="M103.227 419.33l.23.192L50.91 482.34l-.23-.193z"/></g><g id="g4461"><path id="line4463" class="st5" fill="#fff" d="M55.9 485.7l44.3-77.7"/><path id="rect4465" class="st6" fill="#f8db76" d="M100.015 407.85l.26.148-44.194 77.83-.26-.15z"/></g><g id="g4467"><path id="line4469" class="st5" fill="#fff" d="M61.5 488.2l30.2-84.5"/><path id="rect4471" class="st6" fill="#f8db76" d="M91.587 403.686l.282.1-30.337 84.418-.283-.102z"/></g><g id="g4473"><path id="line4475" class="st5" fill="#fff" d="M67.7 489.6L83 401.3"/><path id="rect4477" class="st6" fill="#f8db76" d="M82.79 401.223l.294.05-15.16 88.31-.296-.05z"/></g><g id="g4479"><path id="line4481" class="st5" fill="#fff" d="M73.9 490.6v-90.3"/><path id="rect4483" class="st6" fill="#f8db76" d="M73.98 400.256l.043 90.3h-.3l-.043-90.3z"/></g><g id="g4485"><path id="line4487" class="st5" fill="#fff" d="M80.1 489.6l-15.5-88.8"/><path id="rect4489" class="st6" fill="#f8db76" d="M64.73 400.778l15.407 88.776-.296.05-15.406-88.775z"/></g><g id="g4491"><path id="line4493" class="st5" fill="#fff" d="M96.7 481.6L45 419.5"/><path id="rect4495" class="st6" fill="#f8db76" d="M45.116 419.45l51.76 62.047-.23.192-51.76-62.047z"/></g><g id="g4497"><path id="line4499" class="st5" fill="#fff" d="M101.1 477.2l-56-46.8"/><path id="rect4501" class="st6" fill="#f8db76" d="M45.172 430.343l56.02 46.807-.192.23-56.02-46.807z"/></g><circle id="circle4511" r="7.8" cy="454.6" cx="74" class="st9" fill="#063" stroke="#063" stroke-width=".354" stroke-miterlimit="10"/><g id="g4513"><g id="g4515"><path id="rect4517" class="st2" fill="#010202" d="M24.782 425.636l3.053.538-.12.69-3.054-.54z"/></g><g id="g4519"><path id="rect4521" class="st2" fill="#010202" d="M24.74 428.283l2.19.235-.076.696-2.188-.235z"/></g><g id="g4523"><path id="rect4525" class="st2" fill="#010202" d="M25 430.9h1.5v.7H25z"/></g><g id="g4527"><path id="rect4529" class="st2" fill="#010202" d="M25.728 433.412l.06.698-.995.087-.06-.698z"/></g><g id="g4531"><path id="rect4533" class="st2" fill="#010202" d="M25.148 436.115l.124.69-.492.088-.124-.69z"/></g></g><g id="g4535"><g id="g4537"><path id="rect4539" class="st2" fill="#010202" d="M46.18 388.82l8.405 12.666-.583.387-8.405-12.664z"/></g><g id="g4541"><path id="rect4543" class="st2" fill="#010202" d="M44.81 389.603l8.403 12.424-.58.392-8.403-12.425z"/></g><g id="g4545"><path id="rect4547" class="st2" fill="#010202" d="M43.377 390.702l8.18 12.093-.58.392-8.18-12.093z"/></g><g id="g4549"><path id="rect4551" class="st2" fill="#010202" d="M41.984 391.508l7.94 11.893-.58.39-7.942-11.894z"/></g><g id="g4553"><path id="rect4555" class="st2" fill="#010202" d="M40.597 392.21l7.9 11.68-.58.392-7.9-11.68z"/></g><g id="g4557"><path id="rect4559" class="st2" fill="#010202" d="M39.224 393.036l7.954 11.76-.58.394-7.954-11.762z"/></g><path id="line4561" class="st10" fill="none" stroke="#000" stroke-width=".709" stroke-miterlimit="10" d="M45.5 405.6l-8-11.3"/></g><g id="g4563"><path id="polygon4565" class="st2" fill="#010202" d="M26.9 397.9l18.9-10.6.1 102-18.6-10.8z"/><path id="path4567" d="M46.3 490.1l-19.5-11.4v-.3l-.3-80.8 19.7-11 .1 103.5zm-18.6-11.9l17.7 10.4-.1-100.5-18 10.1.4 80z" class="st1" fill="#063"/></g><g id="g4569" fill="#f8db76" stroke="#7c7c7c" stroke-width=".354" stroke-miterlimit="10"><path id="path4571" d="M39.3 404.4h-5v3.6h5v1.4h-5c-.4 0-.7-.1-.9-.4-.2-.3-.4-.5-.4-.9v-3.8c0-.4.1-.7.4-.9.3-.2.6-.4.9-.4h5v1.4z" class="st11"/><path id="path4573" d="M38 418.1h1.4v6.4H38V422h-3.8v2.5h-1.4v-6.4h1.4v2.5H38v-2.5z" class="st11"/><path id="path4575" d="M34.2 433.2H38c.4 0 .7.1.9.4.3.3.4.6.4.9v5.1h-1.4v-2.1h-3.6v2.1h-1.4v-5.1c0-.4.1-.7.4-.9.3-.2.6-.4.9-.4zm.1 2.9h3.6v-1.5h-3.6v1.5z" class="st11"/><path id="path4577" d="M34.2 448.2H38c.4 0 .7.1.9.4.2.3.4.6.4.9v3.8c0 .4-.1.7-.4.9-.3.2-.6.4-.9.4h-3.8c-.4 0-.7-.1-.9-.4-.2-.3-.4-.6-.4-.9v-3.8c0-.4.1-.7.4-.9.3-.2.6-.4.9-.4zm.1 1.4v3.6h3.6v-3.6h-3.6z" class="st11"/><path id="path4579" d="M39.3 464.6v.6h-1.4v-.5h-3.6v1.1H38c.4 0 .7.1.9.4.3.3.4.6.4.9v1.3c0 .4-.1.7-.4.9-.3.3-.6.4-.9.4h-3.8c-.4 0-.7-.1-.9-.4-.3-.3-.4-.6-.4-.9v-.6h1.4v.5h3.6v-1.1h-3.7c-.4 0-.7-.1-.9-.4-.3-.3-.4-.6-.4-.9v-1.3c0-.4.1-.7.4-.9.3-.3.6-.4.9-.4H38c.4 0 .7.1.9.4.3.2.4.5.4.9z" class="st11"/></g><g id="g4581"><path id="polygon4583" class="st2" fill="#010202" d="M102.5 387.3l17.7 10-.2 81.9-17.7 10.2z"/><path id="path4585" d="M101.9 490.2v-.8l.2-102.8 18.6 10.4v.3l-.2 82.2-18.6 10.7zm1.1-102.1l-.2 100.6 16.8-9.7.2-81.4-16.8-9.5z" class="st1" fill="#063"/></g><g id="g4587" fill="#f8db76" stroke="#7c7c7c" stroke-width=".354" stroke-miterlimit="10"><path id="path4589" d="M115.2 411.7h1.5l-2.3 6.4h-1.1l-1.5-4.1-.6 1.6-.9 2.5h-1.1l-2.3-6.4h1.5l1.4 3.8.2-.6 1.2-3.2h1.3l1.4 3.8.2-.6 1.1-3.2z" class="st11"/><path id="path4591" d="M114.8 426.7v1.4h-4.5v1.1h3.6v1.4h-3.6v1.1h4.5v1.4h-5.9v-6.4h5.9z" class="st11"/><path id="path4593" d="M115 443.1v.6h-1.4v-.5H110v1.1h3.7c.4 0 .7.1.9.4.3.3.4.6.4.9v1.3c0 .4-.1.7-.4.9-.3.2-.6.4-.9.4h-3.8c-.4 0-.7-.1-.9-.4-.2-.3-.4-.6-.4-.9v-.6h1.4v.5h3.6v-1.1h-3.7c-.4 0-.7-.1-.9-.4-.2-.3-.4-.6-.4-.9v-1.3c0-.4.1-.7.4-.9.3-.2.6-.4.9-.4h3.8c.4 0 .7.1.9.4.2.3.4.5.4.9z" class="st11"/><path id="path4595" d="M108.6 456.9h6.4v1.4h-2.5v5h-1.4v-5h-2.5v-1.4z" class="st11"/></g><g id="g4597"><path id="polygon4599" class="st2" fill="#010202" d="M46.8 384.2l3.8 5.7-1.5 1-2.8-4.3-19.7 11 .1 7.5h-1.8l-.1-8.5z"/></g><g id="g4601"><path id="polygon4603" class="st2" fill="#010202" d="M120.6 397l-18.2-10.3-4 5.4L97 391l4.9-6.6 20.5 11.6v9h-1.8z"/></g><path d="M25.8 470.4v8.3l21.7 12.9v-8.5" class="st12" id="SVGID_x5F_1_x5F_" fill="none"/><g id="g4610"><path id="polygon4612" class="st2" fill="#010202" d="M101.9 482.3v7.9l18.6-10.8v-9.2h1.7v10.2l-22.1 12.9v-11z"/></g><g id="g4618"><g id="g4620" fill="#f8db76"><path id="path4622" d="M89.7 443.1c0-.9-.7-1.6-1.6-1.6-.9 0-1.6.7-1.6 1.6 0 .6.3 1.1.8 1.4l-.1 23.6-2.3 2.2h-5.8l-2.6-2.6v-4.4c.4-.3.7-.8.7-1.3 0-.9-.7-1.6-1.6-1.6-.9 0-1.6.7-1.6 1.6 0 .6.3 1 .7 1.3v5.1l3.6 3.6h7.2l3.4-3.2.1-24.4c.5-.3.7-.8.7-1.3zm-14 18.2c.4 0 .7.3.7.7 0 .4-.3.7-.7.7-.4 0-.7-.3-.7-.7 0-.4.3-.7.7-.7zm12.4-18.9c.4 0 .7.3.7.7 0 .4-.3.7-.7.7-.4 0-.7-.3-.7-.7 0-.4.3-.7.7-.7z" class="st6"/><path id="path4624" d="M71.9 460.4c-.9 0-1.6.7-1.6 1.6 0 .5.3 1 .6 1.3v4.6l-2.5 2.4h-5.8l-2.4-2.4.1-16c.4-.3.7-.8.7-1.3 0-.9-.7-1.6-1.6-1.6-.9 0-1.6.7-1.6 1.6 0 .6.3 1 .7 1.3v16.7l3.4 3.4h7.2l3.6-3.5v-5.2c.5-.3.8-.8.8-1.4 0-.8-.7-1.5-1.6-1.5zm-12.4-10.5c.4 0 .7.3.7.7 0 .4-.3.7-.7.7-.4 0-.7-.3-.7-.7 0-.4.3-.7.7-.7zm12.4 11.4c.4 0 .7.3.7.7 0 .4-.3.7-.7.7-.4 0-.7-.3-.7-.7 0-.4.3-.7.7-.7z" class="st6"/></g><g id="g4626"><path id="path4628" d="M85.7 472.3h-7.6l-3.7-3.8v-4.9c-.2-.2-.8-.9-.7-1.6 0-.8.7-1.9 2-1.9 1.2 0 2 .9 2 1.9 0 .9-.5 1.4-.7 1.6v3.9l2.3 2.3h5.5l2.1-2v-23.2c-.2-.2-.8-.7-.8-1.6 0-1.2 1-1.9 2-1.9s2 .9 2 1.8c0 .8-.4 1.3-.6 1.5v24.4l-3.8 3.5zm-7.4-.5h7.2l3.5-3.1v-24.4l.1-.1s.5-.5.5-1.3c0-.7-.8-1.4-1.5-1.4-.8 0-1.5.5-1.5 1.4 0 .9.7 1.3.7 1.3l.1.1V468l-2.3 2.3h-5.9l-2.6-2.6v-4.3l.1-.1s.6-.4.6-1.3c0-.7-.5-1.4-1.5-1.4-1.1 0-1.6 1-1.6 1.5 0 .7.7 1.3.7 1.3l.1.1v4.9l3.3 3.4z" class="st13" fill="#383838"/></g><g id="g4630"><path id="path4632" d="M61.7 472.3l-3.6-3.7.1-16.5c-.2-.2-.7-.7-.7-1.8 0-1 1.1-1.7 2-1.7.9 0 1.9.7 1.9 1.7s-.5 1.5-.7 1.7v15.7l2.2 2.1h5.3l2.4-2.3v-4.1c-.2-.2-.7-.8-.7-1.7 0-.7.6-1.9 1.9-1.9 1 0 2 .8 2 1.8s-.5 1.5-.7 1.7v5.1l-.1.1-3.6 3.6h-.1l-7.6.2zm-3.1-3.9l3.3 3.4h7.4l3.4-3.4v-5.2l.1-.1s.6-.4.6-1.4c0-.7-.7-1.3-1.5-1.3-1 0-1.5.8-1.5 1.4 0 .8.6 1.4.6 1.4l.1.1V467.7l-2.7 2.6h-5.7l-2.4-2.4v-16.1l.1-.1s.6-.4.6-1.4c0-.8-.8-1.3-1.5-1.3s-1.6.5-1.6 1.3c0 1.1.6 1.5.6 1.5l.1.1v16.5z" class="st13" fill="#383838"/></g><g id="g4634"><path id="path4636" d="M75.4 462.1c-.1-.2-.5-2.3-.5-3.1v-2h-1.7c0 .6 0 1.9-.2 2.5-.2.9-.9 2.5-1 2.6l-.5-.2s.7-1.7.9-2.5c.2-.7.1-2.6.1-2.6v-.3h2.7V459.1c0 .7.4 2.6.4 2.8l-.2.2z" class="st14" fill="#828281"/></g><path id="path4638" d="M87.3 429.9c-.6 0-1.1.3-1.4.8l-20.2.1-4.3-4.4v-17.3l4.3-4.3h20.1c.3.5.8.8 1.4.8.9 0 1.6-.7 1.6-1.6 0-.9-.7-1.6-1.6-1.6-.5 0-1 .3-1.3.6H65l-5.4 5.3v18.8l5.3 5.4 21-.1v-.1c.3.4.8.7 1.3.7.9 0 1.6-.7 1.6-1.6 0-.9-.6-1.5-1.5-1.5zm-.2-26.6c.4 0 .7.3.7.7 0 .4-.3.7-.7.7-.4 0-.7-.3-.7-.7 0-.4.3-.7.7-.7zm.2 28.9c-.4 0-.7-.3-.7-.7 0-.4.3-.7.7-.7.4 0 .7.3.7.7 0 .4-.3.7-.7.7z" class="st6" fill="#f8db76"/><g id="g4640"><path id="path4642" d="M96.1 438.5c0-.9-.7-1.7-1.7-1.7-.9 0-1.7.7-1.7 1.7 0 .5.2.9.6 1.3v30.1l-6.4 6.5h-8.7l-4.4-4-4.2 4h-8.5l-7.3-7.1v-17.7c.4-.3.7-.8.7-1.3 0-.9-.7-1.7-1.7-1.7-.9 0-1.7.7-1.7 1.7 0 .6.3 1.1.8 1.4V470l8.4 8.2h10l3.5-3.3 3.7 3.3h10.2l7.5-7.5V440c.6-.3.9-.8.9-1.5zm-43.3 11c.4 0 .7.3.7.7 0 .4-.3.7-.7.7-.4 0-.7-.3-.7-.7 0-.4.3-.7.7-.7zm41.7-10.2c-.4 0-.7-.4-.7-.8s.3-.7.7-.7c.4 0 .7.3.7.7 0 .4-.3.8-.7.8z" class="st2" fill="#010202"/><g id="g4644"><path id="path4646" d="M87.1 395.9c-.6 0-1 .3-1.3.7H62.6l-8.6 8.7v25.9l8.1 8h19.8c.3.5.8.8 1.4.8.9 0 1.6-.7 1.6-1.6 0-.9-.7-1.6-1.6-1.6-.5 0-1 .3-1.3.6H62.8l-7.1-7v-24.5l7.6-7.7h22.5c.3.4.8.7 1.3.7.9 0 1.6-.7 1.6-1.6 0-.9-.7-1.4-1.6-1.4zm-3.9 41.9c.4 0 .7.3.7.7 0 .4-.3.7-.7.7-.4 0-.7-.3-.7-.7 0-.4.3-.7.7-.7zm3.9-39.6c-.4 0-.7-.3-.7-.7 0-.4.3-.7.7-.7.4 0 .7.3.7.7 0 .4-.3.7-.7.7z" class="st2" fill="#010202"/></g></g><path id="path4648" d="M85.8 398.5H63.5l-7.6 7.7v24.3l7.1 7h18.8s.6-.8 1.5-.8 1.6.5 1.6 1.7-.7 1.8-1.6 1.8c-.9 0-1.5-.9-1.5-.9H61.9l-8.1-8.1v-25.9l8.8-8.9h23.2s.4-.6 1.3-.6 1.7.7 1.7 1.7-.7 1.8-1.7 1.8c-1-.1-1.3-.8-1.3-.8z" class="st15" fill="none" stroke="#383838" stroke-width=".443" stroke-miterlimit="10"/><g id="g4650"><path id="polygon4652" class="st14" fill="#828281" d="M83.2 414.6h9.3v-16.9h-5.4v-.5h6v18h-9.9z"/></g><g id="g4654"><path id="path4656" d="M87.5 433.5c-.9 0-1.4-.5-1.6-.7l-21.1.1-5.6-5.5V408.2l5.4-5.4h20.9c.2-.3.7-.8 1.7-.8 1.2 0 1.9 1.1 1.9 2 0 .9-.5 2-1.9 2-1 0-1.6-.6-1.8-.8H65.9l-4.1 4v17l4 4.3h19.9c.2-.3.6-.9 1.7-.9.6 0 1.8.5 1.8 1.8 0 1.2-.9 2.1-1.7 2.1zm-1.3-1s.4.6 1.3.6c.5 0 1.3-.6 1.3-1.6 0-.9-.9-1.4-1.3-1.4-1.1 0-1.4.7-1.4.8l-.1.1H65.6l-4.2-4.5v-17.4l.1-.1 4.3-4.2H85.7l.1.1s.6.7 1.5.7c1.3 0 1.4-1.2 1.4-1.6 0-.6-.4-1.6-1.4-1.6-1 0-1.4.7-1.4.7l-.1.1h-21l-5.2 5.1v18.8l5.3 5.3 21.3.1z" class="st13" fill="#383838"/></g><g id="g4658"><path id="rect4660" class="st16" fill="#353535" d="M69.6 407.5h12.2v9.3H69.6z"/><path id="path4662" d="M82 417.1H69.3v-9.9H82v9.9zm-12.1-.5h11.6v-8.8H69.9v8.8z" class="st14" fill="#828281"/></g><g id="g4664"><path id="polygon4666" class="st14" fill="#828281" d="M83.2 409.5h7v-5.3l-3.1.1v-.6h3.7v6.4h-7.6z"/></g><g id="g4668"><path id="rect4670" class="st17" fill="#a6a9b5" d="M81.8 408.1h1.4v3.5h-1.4z"/><path id="path4672" d="M83.4 411.8h-1.9v-4h1.9v4zm-1.4-.5h.8v-3H82v3z" class="st14" fill="#828281"/></g><g id="g4674"><path id="rect4676" class="st17" fill="#a6a9b5" d="M81.8 413.6h1.4v2.7h-1.4z"/><path id="path4678" d="M83.4 416.5h-1.9v-3.2h1.9v3.2zM82 416h.8v-2.1H82v2.1z" class="st14" fill="#828281"/></g><g id="g4680"><path id="path4682" d="M87.7 478.6H77.4l-3.5-3.2-3.3 3.2H60.2l-.1-.1-8.6-8.8v-17.9c-.2-.2-.7-.7-.7-1.6 0-1.2.8-2 2-2 1.3 0 2 1 2 2 0 .9-.4 1.4-.6 1.5v17.2l6.9 7h8.1l4.5-4.4 4.6 4.2H87l6.1-6v-29.5c-.2-.2-.7-.9-.7-1.7 0-.8.7-1.9 2.1-1.9.8 0 2 .6 2 2.1 0 .7-.6 1.4-.8 1.6v30.6l-8 7.7zm-10.1-.4h10l7.7-7.5V440l.1-.1s.8-.6.8-1.3c0-1.3-1-1.6-1.5-1.6-1.1 0-1.7.8-1.7 1.4 0 .8.6 1.5.6 1.5l.1.1v30.1l-6.4 6.3h-9l-.1-.1-4.4-4-4.4 4.2H61l-7.2-7.2V451.6l.1-.1s.5-.3.5-1.2c0-.8-.5-1.6-1.5-1.6-.9 0-1.5.6-1.5 1.6 0 .9.6 1.3.6 1.3l.1.1V469.6l8.4 8.6h9.9l3.5-3.4 3.7 3.4z" class="st13" fill="#383838"/></g><g id="g4684"><path id="rect4686" class="st17" fill="#a6a9b5" d="M78.3 407.5h3.5v9.3h-3.5z"/><path id="path4688" d="M82 417.1h-4v-9.9h4v9.9zm-3.5-.5h3v-8.8h-3v8.8z" class="st14" fill="#828281"/></g><g id="g4690"><path id="polygon4692" class="st14" fill="#828281" d="M95.5 437l-6.3-6.5-1.5 1.5-.4-.4 1.9-1.9 7.1 7.3-2.3 2.3-.4-.4z"/></g><g id="g4694"><path id="polygon4696" class="st14" fill="#828281" d="M59.2 448.1H53v2.5h-.5v-3h7.3v3h-.6z"/></g><path id="path4698" d="M72.2 456.9h3.7v-3s0-2.1-1.8-2.1-1.8 2.1-1.8 2.1v3z" class="st18" fill="#1ca638" stroke="#fff" stroke-width=".443" stroke-miterlimit="10"/><g id="g4700"><g id="g4702"><path id="polygon4704" class="st14" fill="#828281" d="M89.7 441.1l-4.2-4.2-1.9 2-.4-.4 2.2-2.3 5.1 4.9-2.3 2.3-.3-.3z"/></g><g id="g4706"><path id="rect4708" class="st5" fill="#fff" d="M86.814 436.287l3.578 3.492-1.676 1.716-3.578-3.492z"/><path id="path4710" d="M88.7 441.8l-3.9-3.8 2-2.1 3.9 3.8-2 2.1zm-3.1-3.8l3.2 3.1 1.3-1.3-3.2-3.2-1.3 1.4z" class="st14" fill="#828281"/></g><g id="g4712"><path id="rect4714" class="st19" fill="#f28c40" d="M87.418 436.78l.358.35-1.675 1.718-.357-.35z"/></g><g id="g4716"><path id="rect4718" class="st19" fill="#f28c40" d="M87.84 437.164l.358.35-1.675 1.718-.358-.35z"/></g><g id="g4720"><path id="rect4722" class="st20" fill="#916d14" d="M88.196 437.62l.358.348-1.675 1.72-.36-.35z"/></g></g></g><path id="path4724" d="M59.1 481.1c-.3-.3-.7-.5-1.1-.6-.2 0-.4 0-.6.1l-6.7-6.6v-.2c.1-.9-.6-1.7-1.5-1.8-.4 0-.9.1-1.2.4-.3.3-.5.7-.6 1.1 0 .4.1.9.4 1.2.3.3.7.5 1.1.6h.4l6.9 6.7v.1c0 .4.1.9.4 1.2.3.3.7.5 1.1.6h.1c.8 0 1.6-.6 1.6-1.5.1-.5 0-1-.3-1.3zm-10-6.8c-.4 0-.7-.4-.7-.8 0-.2.1-.4.3-.5.1-.1.3-.2.5-.2h.1c.4 0 .7.4.7.8 0 .2-.1.4-.3.5-.2.2-.4.2-.6.2zm9.2 8.4c-.1.1-.3.2-.5.2s-.4-.1-.5-.3c-.1-.2-.2-.3-.2-.5s.1-.4.3-.5c.1-.1.3-.2.5-.2h.1c.2 0 .4.1.5.3.1.2.2.3.2.5-.1.2-.2.4-.4.5z" class="st2" fill="#010202"/><g id="g4726"><path id="path4728" d="M57.8 484.2c-.5 0-.9-.2-1.3-.5-.6-.6-.7-1.3-.7-1.5-2.5-2.5-6.1-6.1-6.6-6.5-.6 0-1.2-.4-1.7-.8-.6-.7-.6-1.9.1-2.6.3-.3.9-.6 1.4-.6.5 0 1 .2 1.4.5.6.6.7 1.5.7 1.8l6.4 6.2c.3 0 1 0 1.7.6.4.4.6.9.6 1.5 0 .5-.2 1-.6 1.3-.3.4-.9.6-1.4.6zm-8.5-9c.1 0 .3.1 6.9 6.7l.1.1v.1s-.1.7.6 1.3c.6.6 1.4.5 2.1-.1.3-.3.4-.6.4-1s-.2-.8-.5-1.1c-.6-.6-1.4-.5-1.4-.5h-.1l-.1-.1-6.6-6.4v-.1s.1-.9-.5-1.6c-.3-.3-.7-.4-1-.4-.4 0-.9.2-1.1.4-.6.6-.5 1.5-.1 2 .3.4.9.7 1.3.7z" class="st13" fill="#383838"/></g><g id="g4730"><path id="path4732" d="M99.4 471.8c-.9-.1-1.7.6-1.8 1.5v.6l-6.7 6.7h-.2c-.4 0-.9.1-1.2.4-.3.3-.5.7-.6 1.1-.1.9.6 1.7 1.5 1.8h.2c.8 0 1.5-.6 1.6-1.5v-.4l6.8-6.8H99.3c.8 0 1.5-.6 1.6-1.5.1-1-.6-1.8-1.5-1.9zm-8.3 10.9c-.2.1-.3.2-.5.2-.4 0-.7-.4-.7-.8 0-.2.1-.4.3-.5.1-.1.3-.2.5-.2h.1c.2 0 .4.1.5.3.1.2.2.3.2.5-.2.2-.3.4-.4.5zm8.1-8.5c-.2 0-.4-.1-.5-.3-.1-.2-.2-.3-.2-.5s.1-.4.3-.5c.1-.1.3-.2.5-.2h.1c.4 0 .7.4.7.8-.2.4-.5.7-.9.7z" class="st2" fill="#010202"/><g id="g4734"><path id="path4736" d="M90.6 484.1c-.5 0-1-.2-1.4-.6-.3-.3-.5-.9-.5-1.4 0-.5.2-1 .6-1.3.7-.6 1.5-.6 1.8-.6l6.3-6.3c0-.3 0-1 .6-1.7.9-.9 2-.9 2.9-.1.9.9.7 2.1 0 2.8-.6.6-1.3.7-1.6.7-2.5 2.4-6.1 6-6.6 6.5 0 .6-.4 1.2-.9 1.7-.4.1-.8.3-1.2.3zm.3-3.6c-.3 0-.9.1-1.4.5-.3.3-.4.7-.4 1 0 .4.2.9.4 1.1.6.6 1.5.6 2 .1.4-.4.7-.9.7-1.4 0-.1 0-.2 6.8-6.8l.1-.1h.1s.6.1 1.3-.5c.5-.5.7-1.5 0-2.2-.7-.7-1.6-.6-2.2.1-.6.6-.5 1.4-.5 1.4v.1l-6.6 6.6h-.1c0 .1-.1.1-.2.1z" class="st13" fill="#383838"/></g></g><g id="g4738"><path id="path4740" d="M74.9 489.5l-.3-.3v-4.7h-.1s.1 0 .1-.1c.7-.6.8-1.6.2-2.3-.3-.3-.7-.5-1.1-.6-.4 0-.9.1-1.2.4-.3.3-.5.7-.6 1.1-.1.4.1.9.4 1.2.1.2.3.3.5.4v4.5c-.1 0-.1.1-.2.1-.7.6-.8 1.6-.2 2.3.3.3.7.5 1.1.6h.2c.4 0 .8-.1 1-.4.3-.3.5-.7.6-1.1 0-.3-.1-.7-.4-1.1zm-1.8-6.8c.1-.1.3-.2.5-.2h.1c.2 0 .4.1.5.3.3.3.2.8-.1 1-.3.3-.8.2-1-.1-.1-.2-.2-.3-.2-.5s.1-.4.2-.5zm1 8.4c-.1.1-.3.2-.5.2s-.4-.1-.5-.3c-.3-.3-.2-.8.1-1 .1-.1.3-.2.5-.2s.4.1.6.3c.1.2.2.3.2.5-.1.2-.2.4-.4.5z" class="st2" fill="#010202"/><g id="g4742"><path id="path4744" d="M73.6 492.6c-.5 0-1-.2-1.4-.6-.4-.4-.6-.9-.6-1.3 0-.9.6-1.4.9-1.6l-.1-4.1c-.2-.2-.8-.7-.8-1.6 0-.6.2-1.1.6-1.5.4-.4.9-.5 1.4-.5 1.1 0 1.9.8 2 1.9.1.9-.5 1.5-.7 1.7v4.2c.2.2.8.7.8 1.7 0 .8-.9 1.6-2.1 1.7zm-.1-10.9c-.4 0-.7.1-1 .4-.3.3-.5.7-.4 1.1 0 .9.7 1.3.7 1.3l.1.1v.1l.1 4.5-.1.1s-.7.4-.7 1.3c0 .5.2.8.4 1 .3.3.7.5 1.1.5.9 0 1.6-.6 1.6-1.4 0-1-.7-1.4-.7-1.4l-.1-.1V484.5l.1-.1s.7-.5.6-1.3c-.1-.9-.9-1.4-1.7-1.4.1 0 .1 0 0 0z" class="st13" fill="#383838"/></g></g><path id="polyline4746" class="st21" fill="none" stroke="#010202" stroke-width="1.77" stroke-miterlimit="10" d="M26 471v7.9l21.2 12.7v-8.7"/></g></svg>