999
dxflib 3.17.0.0
  0
SECTION
  2
HEADER
  9
$ACADVER
  1
AC1015
  9
$HANDSEED
  5
FFFF
  9
$ANGBASE
 50
0.0
  9
$ANGDIR
 70
0
  9
$ATTMODE
 70
1
  9
$AUNITS
 70
0
  9
$AUPREC
 70
0
  9
$CECOLOR
 62
256
  9
$CELTSCALE
 40
1.0
  9
$CHAMFERA
 40
0.0
  9
$CHAMFERB
 40
0.0
  9
$CHAMFERC
 40
0.0
  9
$CHAMFERD
 40
0.0
  9
$CMLJUST
 70
0
  9
$CMLSCALE
 40
1.0
  9
$DIMADEC
 70
0
  9
$DIMALT
 70
0
  9
$DIMALTD
 70
2
  9
$DIMALTF
 40
25.3999999999999986
  9
$DIMALTRND
 40
0.0
  9
$DIMALTTD
 70
2
  9
$DIMALTTZ
 70
0
  9
$DIMALTU
 70
2
  9
$DIMALTZ
 70
0
  9
$DIMAPOST
  1

  9
$DIMASZ
 40
0.0708661417322835
  9
$DIMATFIT
 70
3
  9
$DIMAUNIT
 70
0
  9
$DIMAZIN
 70
0
  9
$DIMBLK
  1

  9
$DIMBLK1
  1

  9
$DIMBLK2
  1

  9
$DIMCEN
 40
0.09
  9
$DIMCLRD
 70
0
  9
$DIMCLRE
 70
0
  9
$DIMCLRT
 70
0
  9
$DIMDEC
 70
4
  9
$DIMDLE
 40
0.0
  9
$DIMDLI
 40
0.38
  9
$DIMDSEP
 70
46
  9
$DIMEXE
 40
0.18
  9
$DIMEXO
 40
0.0625
  9
$DIMFRAC
 70
0
  9
$DIMGAP
 40
0.09
  9
$DIMJUST
 70
0
  9
$DIMLDRBLK
  1

  9
$DIMLFAC
 40
1.0
  9
$DIMLIM
 70
0
  9
$DIMLUNIT
 70
2
  9
$DIMLWD
 70
-2
  9
$DIMLWE
 70
-2
  9
$DIMPOST
  1

  9
$DIMRND
 40
0.0
  9
$DIMSAH
 70
0
  9
$DIMSCALE
 40
1.0
  9
$DIMSD1
 70
0
  9
$DIMSD2
 70
0
  9
$DIMSE1
 70
0
  9
$DIMSE2
 70
0
  9
$DIMSOXD
 70
0
  9
$DIMTAD
 70
0
  9
$DIMTDEC
 70
4
  9
$DIMTFAC
 40
1.0
  9
$DIMTIH
 70
1
  9
$DIMTIX
 70
0
  9
$DIMTM
 40
0.0
  9
$DIMTOFL
 70
0
  9
$DIMTOH
 70
1
  9
$DIMTOL
 70
0
  9
$DIMTOLJ
 70
1
  9
$DIMTP
 40
0.0
  9
$DIMTSZ
 40
0.0
  9
$DIMTVP
 40
0.0
  9
$DIMTXSTY
  7
Standard
  9
$DIMTXT
 40
0.0708661417322835
  9
$DIMTZIN
 70
0
  9
$DIMUPT
 70
0
  9
$DIMZIN
 70
0
  9
$DISPSILH
 70
0
  9
$DWGCODEPAGE
  3
ANSI_1252
  9
$ELEVATION
 40
0.0
  9
$EXTMAX
 10
1.905255896987182
 20
2.2000000086614171
 30
0.0
  9
$EXTMIN
 10
0.0
 20
0.0
 30
0.0
  9
$FILLETRAD
 40
0.0
  9
$FILLMODE
 70
1
  9
$INSBASE
 10
0.0
 20
0.0
 30
0.0
  9
$INSUNITS
 70
1
  9
$LIMCHECK
 70
0
  9
$LIMMAX
 10
1.905255896987182
 20
2.2000000086614171
  9
$LIMMIN
 10
0.0
 20
0.0
  9
$LTSCALE
 40
1.0
  9
$LUNITS
 70
2
  9
$LUPREC
 70
4
  9
$MAXACTVP
 70
64
  9
$MEASUREMENT
 70
0
  9
$MIRRTEXT
 70
0
  9
$ORTHOMODE
 70
0
  9
$PDMODE
 70
0
  9
$PDSIZE
 40
0
  9
$PELEVATION
 40
0.0
  9
$PEXTMAX
 10
1.905255896987182
 20
2.2000000086614171
 30
0.0
  9
$PEXTMIN
 10
0.0
 20
0.0
 30
0.0
  9
$PINSBASE
 10
0.0
 20
0.0
 30
0.0
  9
$PLIMCHECK
 70
0
  9
$PLIMMAX
 10
1.905255896987182
 20
2.2000000086614171
  9
$PLIMMIN
 10
0.0
 20
0.0
  9
$PLINEGEN
 70
0
  9
$PLINEWID
 40
0.0
  9
$PROXYGRAPHICS
 70
1
  9
$PSLTSCALE
 70
1
  9
$PUCSNAME
  2

  9
$PUCSORG
 10
0.0
 20
0.0
 30
0.0
  9
$PUCSXDIR
 10
1.0
 20
0.0
 30
0.0
  9
$PUCSYDIR
 10
0.0
 20
1.0
 30
0.0
  9
$QTEXTMODE
 70
0
  9
$REGENMODE
 70
1
  9
$SHADEDGE
 70
3
  9
$SHADEDIF
 70
70
  9
$SKETCHINC
 40
0.1
  9
$SKPOLY
 70
0
  9
$SPLFRAME
 70
0
  9
$SPLINESEGS
 70
8
  9
$SPLINETYPE
 70
6
  9
$SURFTAB1
 70
6
  9
$SURFTAB2
 70
6
  9
$SURFTYPE
 70
6
  9
$SURFU
 70
6
  9
$SURFV
 70
6
  9
$TEXTSIZE
 40
0.2
  9
$TEXTSTYLE
  7
Standard
  9
$THICKNESS
 40
0.0
  9
$TILEMODE
 70
1
  9
$TRACEWID
 40
0.05
  9
$TREEDEPTH
 70
3020
  9
$UCSNAME
  2

  9
$UCSORG
 10
0.0
 20
0.0
 30
0.0
  9
$UCSXDIR
 10
1.0
 20
0.0
 30
0.0
  9
$UCSYDIR
 10
0.0
 20
1.0
 30
0.0
  9
$UNITMODE
 70
0
  9
$USERI1
 70
0
  9
$USERI2
 70
0
  9
$USERI3
 70
0
  9
$USERI4
 70
0
  9
$USERI5
 70
0
  9
$USERR1
 40
0.0
  9
$USERR2
 40
0.0
  9
$USERR3
 40
0.0
  9
$USERR4
 40
0.0
  9
$USERR5
 40
0.0
  9
$USRTIMER
 70
1
  9
$VISRETAIN
 70
1
  0
ENDSEC
  0
SECTION
  2
TABLES
  0
TABLE
  2
VPORT
  5
8
100
AcDbSymbolTable
 70
1
  0
VPORT
  5
30
100
AcDbSymbolTableRecord
100
AcDbViewportTableRecord
  2
*Active
 70
0
 10
0.0
 20
0.0
 11
1.0
 21
1.0
 12
286.3055555555554861
 22
148.5
 13
0.0
 23
0.0
 14
10.0
 24
10.0
 15
10.0
 25
10.0
 16
0.0
 26
0.0
 36
1.0
 17
0.0
 27
0.0
 37
0.0
 40
297.0
 41
1.92798353909465
 42
50.0
 43
0.0
 44
0.0
 50
0.0
 51
0.0
 71
0
 72
100
 73
1
 74
3
 75
1
 76
1
 77
0
 78
0
281
0
 65
1
110
0.0
120
0.0
130
0.0
111
1.0
121
0.0
131
0.0
112
0.0
122
1.0
132
0.0
 79
0
146
0.0
  0
ENDTAB
  0
TABLE
  2
LTYPE
  5
5
100
AcDbSymbolTable
 70
62
  0
LTYPE
  5
16
100
AcDbSymbolTableRecord
100
AcDbLinetypeTableRecord
  2
Continuous
 70
0
  3
Solid line
 72
65
 73
0
 40
0.0
  0
LTYPE
  5
31
100
AcDbSymbolTableRecord
100
AcDbLinetypeTableRecord
  2
ACAD_ISO11W100
 70
0
  3
ISO double-dash dot __ __ . __ __ . __ __ . __ 
 72
65
 73
6
 40
1.3000000000000003
 49
0.47
 74
0
 49
-0.12
 74
0
 49
0.47
 74
0
 49
-0.07
 74
0
 49
0.1
 74
0
 49
-0.07
 74
0
  0
LTYPE
  5
32
100
AcDbSymbolTableRecord
100
AcDbLinetypeTableRecord
  2
GAS_LINE
 70
0
  3
Gas line ----GAS----GAS----GAS----GAS----GAS---
 72
65
 73
2
 40
0.7
 49
0.5
 74
0
 49
-0.2
 74
0
  0
LTYPE
  5
33
100
AcDbSymbolTableRecord
100
AcDbLinetypeTableRecord
  2
DASHED
 70
0
  3
Dashed __ __ __ __ __ __ __ __ __ __ __ __ __ _
 72
65
 73
2
 40
0.2067
 49
0.1654
 74
0
 49
-0.0413
 74
0
  0
LTYPE
  5
34
100
AcDbSymbolTableRecord
100
AcDbLinetypeTableRecord
  2
BORDERX2
 70
0
  3
Border (2x) ____  ____  .  ____  ____  .  ___
 72
65
 73
6
 40
3.5000000000000004
 49
1.0
 74
0
 49
-0.5
 74
0
 49
1.0
 74
0
 49
-0.45
 74
0
 49
0.1
 74
0
 49
-0.45
 74
0
  0
LTYPE
  5
35
100
AcDbSymbolTableRecord
100
AcDbLinetypeTableRecord
  2
HOT_WATER_SUPPLY
 70
0
  3
Hot water supply ---- HW ---- HW ---- HW ----
 72
65
 73
2
 40
0.7
 49
0.5
 74
0
 49
-0.2
 74
0
  0
LTYPE
  5
36
100
AcDbSymbolTableRecord
100
AcDbLinetypeTableRecord
  2
LONG_DASH_DOTTED
 70
0
  3
Long Dash Dotted ____ . ____ . ____ . ____ . _
 72
65
 73
4
 40
0.3542999999999999
 49
0.2362
 74
0
 49
-0.0295
 74
0
 49
0.0591
 74
0
 49
-0.0295
 74
0
  0
LTYPE
  5
37
100
AcDbSymbolTableRecord
100
AcDbLinetypeTableRecord
  2
DASH_DOUBLE_DOT
 70
0
  3
Dash Double-Dot __ . . __ . . __ . . __ . .
 72
65
 73
6
 40
0.4398
 49
0.24
 74
0
 49
-0.06
 74
0
 49
0.0098
 74
0
 49
-0.06
 74
0
 49
0.01
 74
0
 49
-0.06
 74
0
  0
LTYPE
  5
38
100
AcDbSymbolTableRecord
100
AcDbLinetypeTableRecord
  2
ACAD_ISO15W100
 70
0
  3
ISO double-dash triple-dot __ __ . . . __ __ . 
 72
65
 73
10
 40
1.5400000000000005
 49
0.47
 74
0
 49
-0.12
 74
0
 49
0.47
 74
0
 49
-0.07
 74
0
 49
0.1
 74
0
 49
-0.02
 74
0
 49
0.1
 74
0
 49
-0.02
 74
0
 49
0.1
 74
0
 49
-0.07
 74
0
  0
LTYPE
  5
39
100
AcDbSymbolTableRecord
100
AcDbLinetypeTableRecord
  2
DASH_TRIPLE_DOT
 70
0
  3
Dash Triple-Dot _ . . . _ . . . _ . . . _
 72
65
 73
8
 40
0.51
 49
0.24
 74
0
 49
-0.06
 74
0
 49
0.01
 74
0
 49
-0.06
 74
0
 49
0.01
 74
0
 49
-0.06
 74
0
 49
0.01
 74
0
 49
-0.06
 74
0
  0
LTYPE
  5
3A
100
AcDbSymbolTableRecord
100
AcDbLinetypeTableRecord
  2
DASH_DOT
 70
0
  3
Dash dot __ . __ . __ . __ . __ . __ . __ . __
 72
65
 73
4
 40
0.37
 49
0.24
 74
0
 49
-0.06
 74
0
 49
0.01
 74
0
 49
-0.06
 74
0
  0
LTYPE
  5
3B
100
AcDbSymbolTableRecord
100
AcDbLinetypeTableRecord
  2
BATTING
 70
0
  3
Batting SSSSSSSSSSSSSSSSSSSSSSSSSSSSSSSSSSSSSSS
 72
65
 73
4
 40
0.4001
 49
0.0001
 74
0
 49
-0.1
 74
0
 49
-0.2
 74
0
 49
-0.1
 74
0
  0
LTYPE
  5
3C
100
AcDbSymbolTableRecord
100
AcDbLinetypeTableRecord
  2
TRACKS
 70
0
  3
Tracks -|-|-|-|-|-|-|-|-|-|-|-|-|-|-|-|-|-|-|-|
 72
65
 73
2
 40
0.3
 49
0.15
 74
0
 49
0.15
 74
0
  0
LTYPE
  5
3D
100
AcDbSymbolTableRecord
100
AcDbLinetypeTableRecord
  2
DOT2
 70
0
  3
Dot (.5x) .....................................
 72
65
 73
2
 40
0.125
 49
0.1
 74
0
 49
-0.025
 74
0
  0
LTYPE
  5
3E
100
AcDbSymbolTableRecord
100
AcDbLinetypeTableRecord
  2
DASHDOTX2
 70
0
  3
Dash dot (2x) ____  .  ____  .  ____  .  ___
 72
65
 73
4
 40
2.0
 49
1.0
 74
0
 49
-0.45
 74
0
 49
0.1
 74
0
 49
-0.45
 74
0
  0
LTYPE
  5
3F
100
AcDbSymbolTableRecord
100
AcDbLinetypeTableRecord
  2
ACAD_ISO02W100
 70
0
  3
ISO dash __ __ __ __ __ __ __ __ __ __ __ __ __
 72
65
 73
2
 40
0.59
 49
0.47
 74
0
 49
-0.12
 74
0
  0
LTYPE
  5
40
100
AcDbSymbolTableRecord
100
AcDbLinetypeTableRecord
  2
DASHED_SPACE
 70
0
  3
Dashed Space __ __ __ __ __ __ __ __ __ __ __ _
 72
65
 73
2
 40
0.2067
 49
0.1654
 74
0
 49
-0.0413
 74
0
  0
LTYPE
  5
41
100
AcDbSymbolTableRecord
100
AcDbLinetypeTableRecord
  2
DOTX2
 70
0
  3
Dot (2x) .  .  .  .  .  .  .  .  .  .  .  .  . 
 72
65
 73
2
 40
0.5
 49
0.1
 74
0
 49
-0.4
 74
0
  0
LTYPE
  5
42
100
AcDbSymbolTableRecord
100
AcDbLinetypeTableRecord
  2
PHANTOMX2
 70
0
  3
Phantom (2x) ____________    ____    ____   _
 72
65
 73
6
 40
5.0
 49
2.5
 74
0
 49
-0.5
 74
0
 49
0.5
 74
0
 49
-0.5
 74
0
 49
0.5
 74
0
 49
-0.5
 74
0
  0
LTYPE
  5
43
100
AcDbSymbolTableRecord
100
AcDbLinetypeTableRecord
  2
BORDER2
 70
0
  3
Border (.5x) __.__.__.__.__.__.__.__.__.__.__.
 72
65
 73
6
 40
0.8749999999999999
 49
0.25
 74
0
 49
-0.125
 74
0
 49
0.25
 74
0
 49
-0.075
 74
0
 49
0.1
 74
0
 49
-0.075
 74
0
  0
LTYPE
  5
44
100
AcDbSymbolTableRecord
100
AcDbLinetypeTableRecord
  2
BORDER
 70
0
  3
Border __ __ . __ __ . __ __ . __ __ . __ __ .
 72
65
 73
6
 40
1.75
 49
0.5
 74
0
 49
-0.25
 74
0
 49
0.5
 74
0
 49
-0.2
 74
0
 49
0.1
 74
0
 49
-0.2
 74
0
  0
LTYPE
  5
45
100
AcDbSymbolTableRecord
100
AcDbLinetypeTableRecord
  2
ACAD_ISO07W100
 70
0
  3
ISO dot . . . . . . . . . . . . . . . . . . . .
 72
65
 73
2
 40
0.12
 49
0.1
 74
0
 49
-0.02
 74
0
  0
LTYPE
  5
46
100
AcDbSymbolTableRecord
100
AcDbLinetypeTableRecord
  2
DOUBLE_DASH_CHAIN
 70
0
  3
Double-Dash Chain ______  __  __  ______  __  _
 72
65
 73
6
 40
1.2403
 49
0.6614
 74
0
 49
-0.0827
 74
0
 49
0.1654
 74
0
 49
-0.0827
 74
0
 49
0.1654
 74
0
 49
-0.0827
 74
0
  0
LTYPE
  5
47
100
AcDbSymbolTableRecord
100
AcDbLinetypeTableRecord
  2
CENTER2
 70
0
  3
Center (.5x) ___ _ ___ _ ___ _ ___ _ ___ _ ___
 72
65
 73
4
 40
1.125
 49
0.75
 74
0
 49
-0.125
 74
0
 49
0.125
 74
0
 49
-0.125
 74
0
  0
LTYPE
  5
48
100
AcDbSymbolTableRecord
100
AcDbLinetypeTableRecord
  2
ACAD_ISO14W100
 70
0
  3
ISO dash triple-dot __ . . . __ . . . __ . . . 
 72
65
 73
8
 40
0.9499999999999998
 49
0.47
 74
0
 49
-0.07
 74
0
 49
0.1
 74
0
 49
-0.02
 74
0
 49
0.1
 74
0
 49
-0.02
 74
0
 49
0.1
 74
0
 49
-0.07
 74
0
  0
LTYPE
  5
49
100
AcDbSymbolTableRecord
100
AcDbLinetypeTableRecord
  2
ACAD_ISO06W100
 70
0
  3
ISO long-dash triple-dot ____ ... ____ ... ____
 72
65
 73
8
 40
1.4200000000000002
 49
0.9399999999999998
 74
0
 49
-0.07
 74
0
 49
0.1
 74
0
 49
-0.02
 74
0
 49
0.1
 74
0
 49
-0.02
 74
0
 49
0.1
 74
0
 49
-0.07
 74
0
  0
LTYPE
  5
14
100
AcDbSymbolTableRecord
100
AcDbLinetypeTableRecord
  2
ByBlock
 70
0
  3

 72
65
 73
0
 40
0.0
  0
LTYPE
  5
4A
100
AcDbSymbolTableRecord
100
AcDbLinetypeTableRecord
  2
DASHED2
 70
0
  3
Dashed (.5x) _ _ _ _ _ _ _ _ _ _ _ _ _ _ _ _ _
 72
65
 73
2
 40
0.375
 49
0.25
 74
0
 49
-0.125
 74
0
  0
LTYPE
  5
4B
100
AcDbSymbolTableRecord
100
AcDbLinetypeTableRecord
  2
BY_STANDARD
 70
0
  3
By Standard ____________    ____    ____   _
 72
65
 73
6
 40
1.2403
 49
0.6614
 74
0
 49
-0.0827
 74
0
 49
0.1654
 74
0
 49
-0.0827
 74
0
 49
0.1654
 74
0
 49
-0.0827
 74
0
  0
LTYPE
  5
4C
100
AcDbSymbolTableRecord
100
AcDbLinetypeTableRecord
  2
DASHDOT2
 70
0
  3
Dash dot (.5x) _._._._._._._._._._._._._._._.
 72
65
 73
4
 40
0.5
 49
0.25
 74
0
 49
-0.075
 74
0
 49
0.1
 74
0
 49
-0.075
 74
0
  0
LTYPE
  5
4D
100
AcDbSymbolTableRecord
100
AcDbLinetypeTableRecord
  2
DASHDOT
 70
0
  3
Dash dot __ . __ . __ . __ . __ . __ . __ . __
 72
65
 73
4
 40
25.3999999999999986
 49
12.6999999999999993
 74
0
 49
-6.3499999999999996
 74
0
 49
0.0
 74
0
 49
-6.3499999999999996
 74
0
  0
LTYPE
  5
4E
100
AcDbSymbolTableRecord
100
AcDbLinetypeTableRecord
  2
ACAD_ISO09W100
 70
0
  3
ISO long-dash double-short-dash ____ __ __ ____
 72
65
 73
6
 40
1.3100000000000001
 49
0.47
 74
0
 49
-0.12
 74
0
 49
0.24
 74
0
 49
-0.12
 74
0
 49
0.24
 74
0
 49
-0.12
 74
0
  0
LTYPE
  5
4F
100
AcDbSymbolTableRecord
100
AcDbLinetypeTableRecord
  2
DOUBLE_DASH_TRIPLE_DOT
 70
0
  3
Double Dash Triple Dot __ __ . . . __ __ . .
 72
65
 73
10
 40
0.8100000000000003
 49
0.24
 74
0
 49
-0.06
 74
0
 49
0.24
 74
0
 49
-0.06
 74
0
 49
0.01
 74
0
 49
-0.06
 74
0
 49
0.01
 74
0
 49
-0.06
 74
0
 49
0.01
 74
0
 49
-0.06
 74
0
  0
LTYPE
  5
50
100
AcDbSymbolTableRecord
100
AcDbLinetypeTableRecord
  2
LONG_DASH_DOUBLE_DOT
 70
0
  3
Long Dash Double Dot ________  .  .  ________  
 72
65
 73
6
 40
0.6800000000000002
 49
0.48
 74
0
 49
-0.06
 74
0
 49
0.01
 74
0
 49
-0.06
 74
0
 49
0.01
 74
0
 49
-0.06
 74
0
  0
LTYPE
  5
51
100
AcDbSymbolTableRecord
100
AcDbLinetypeTableRecord
  2
ACAD_ISO08W100
 70
0
  3
ISO long-dash short-dash ____ __ ____ __ ____ _
 72
65
 73
4
 40
0.95
 49
0.47
 74
0
 49
-0.12
 74
0
 49
0.24
 74
0
 49
-0.12
 74
0
  0
LTYPE
  5
52
100
AcDbSymbolTableRecord
100
AcDbLinetypeTableRecord
  2
ZIGZAG
 70
0
  3
Zig zag /\/\/\/\/\/\/\/\/\/\/\/\/\/\/\/\/\/\/\/
 72
65
 73
4
 40
0.8001
 49
0.0001
 74
0
 49
-0.2
 74
0
 49
-0.4
 74
0
 49
-0.2
 74
0
  0
LTYPE
  5
53
100
AcDbSymbolTableRecord
100
AcDbLinetypeTableRecord
  2
DOUBLE_DASH_DOUBLE_DOT
 70
0
  3
Double-Dash Double-dot _ _ . . _ _ . . _
 72
65
 73
8
 40
0.7400000000000002
 49
0.24
 74
0
 49
-0.06
 74
0
 49
0.24
 74
0
 49
-0.06
 74
0
 49
0.01
 74
0
 49
-0.06
 74
0
 49
0.01
 74
0
 49
-0.06
 74
0
  0
LTYPE
  5
54
100
AcDbSymbolTableRecord
100
AcDbLinetypeTableRecord
  2
PHANTOM
 70
0
  3
Phantom ______  __  __  ______  __  __  ______
 72
65
 73
6
 40
2.5
 49
1.25
 74
0
 49
-0.25
 74
0
 49
0.25
 74
0
 49
-0.25
 74
0
 49
0.25
 74
0
 49
-0.25
 74
0
  0
LTYPE
  5
55
100
AcDbSymbolTableRecord
100
AcDbLinetypeTableRecord
  2
PHANTOM2
 70
0
  3
Phantom (.5x) ___ _ _ ___ _ _ ___ _ _ ___ _ _
 72
65
 73
6
 40
1.25
 49
0.625
 74
0
 49
-0.125
 74
0
 49
0.125
 74
0
 49
-0.125
 74
0
 49
0.125
 74
0
 49
-0.125
 74
0
  0
LTYPE
  5
56
100
AcDbSymbolTableRecord
100
AcDbLinetypeTableRecord
  2
DIVIDE
 70
0
  3
Divide ____ . . ____ . . ____ . . ____ . . ____
 72
65
 73
6
 40
1.25
 49
0.5
 74
0
 49
-0.2
 74
0
 49
0.1
 74
0
 49
-0.15
 74
0
 49
0.1
 74
0
 49
-0.2
 74
0
  0
LTYPE
  5
57
100
AcDbSymbolTableRecord
100
AcDbLinetypeTableRecord
  2
LONG_DASH_TRIPLE_DOT
 70
0
  3
Long Dash Triple Dot ____ ... ____ ... ____
 72
65
 73
8
 40
0.3689
 49
0.2362
 74
0
 49
-0.0295
 74
0
 49
0.0049
 74
0
 49
-0.0295
 74
0
 49
0.0049
 74
0
 49
-0.0295
 74
0
 49
0.0049
 74
0
 49
-0.0295
 74
0
  0
LTYPE
  5
58
100
AcDbSymbolTableRecord
100
AcDbLinetypeTableRecord
  2
FENCELINE1
 70
0
  3
Fenceline circle ----0-----0----0-----0----0---
 72
65
 73
4
 40
1.45
 49
0.25
 74
0
 49
-0.1
 74
0
 49
-0.1
 74
0
 49
1.0
 74
0
  0
LTYPE
  5
15
100
AcDbSymbolTableRecord
100
AcDbLinetypeTableRecord
  2
ByLayer
 70
0
  3

 72
65
 73
0
 40
0.0
  0
LTYPE
  5
59
100
AcDbSymbolTableRecord
100
AcDbLinetypeTableRecord
  2
ACAD_ISO13W100
 70
0
  3
ISO double-dash double-dot __ __ . . __ __ . . 
 72
65
 73
8
 40
1.4200000000000004
 49
0.47
 74
0
 49
-0.12
 74
0
 49
0.47
 74
0
 49
-0.07
 74
0
 49
0.1
 74
0
 49
-0.02
 74
0
 49
0.1
 74
0
 49
-0.07
 74
0
  0
LTYPE
  5
5A
100
AcDbSymbolTableRecord
100
AcDbLinetypeTableRecord
  2
HIDDENX2
 70
0
  3
Hidden (2x) ____ ____ ____ ____ ____ ____ ____
 72
65
 73
2
 40
0.75
 49
0.5
 74
0
 49
-0.25
 74
0
  0
LTYPE
  5
5B
100
AcDbSymbolTableRecord
100
AcDbLinetypeTableRecord
  2
FENCELINE2
 70
0
  3
Fenceline square ----[]-----[]----[]-----[]----
 72
65
 73
4
 40
1.45
 49
0.25
 74
0
 49
-0.1
 74
0
 49
-0.1
 74
0
 49
1.0
 74
0
  0
LTYPE
  5
5C
100
AcDbSymbolTableRecord
100
AcDbLinetypeTableRecord
  2
ACAD_ISO10W100
 70
0
  3
ISO dash dot __ . __ . __ . __ . __ . __ . __ .
 72
65
 73
4
 40
0.7099999999999999
 49
0.47
 74
0
 49
-0.07
 74
0
 49
0.1
 74
0
 49
-0.07
 74
0
  0
LTYPE
  5
5D
100
AcDbSymbolTableRecord
100
AcDbLinetypeTableRecord
  2
DIVIDE2
 70
0
  3
Divide (.5x) __..__..__..__..__..__..__..__.._
 72
65
 73
6
 40
0.625
 49
0.25
 74
0
 49
-0.075
 74
0
 49
0.1
 74
0
 49
-0.025
 74
0
 49
0.1
 74
0
 49
-0.075
 74
0
  0
LTYPE
  5
5E
100
AcDbSymbolTableRecord
100
AcDbLinetypeTableRecord
  2
ACAD_ISO12W100
 70
0
  3
ISO dash double-dot __ . . __ . . __ . . __ . .
 72
65
 73
6
 40
0.8299999999999998
 49
0.47
 74
0
 49
-0.07
 74
0
 49
0.1
 74
0
 49
-0.02
 74
0
 49
0.1
 74
0
 49
-0.07
 74
0
  0
LTYPE
  5
5F
100
AcDbSymbolTableRecord
100
AcDbLinetypeTableRecord
  2
ACAD_ISO03W100
 70
0
  3
ISO dash space __    __    __    __    __    __
 72
65
 73
2
 40
1.1799999999999999
 49
0.47
 74
0
 49
-0.71
 74
0
  0
LTYPE
  5
60
100
AcDbSymbolTableRecord
100
AcDbLinetypeTableRecord
  2
DOUBLE_DASH_DOT
 70
0
  3
Double-Dash Dot __ __ . __ __ . __ __ . __ _
 72
65
 73
6
 40
0.4398
 49
0.24
 74
0
 49
-0.06
 74
0
 49
0.0098
 74
0
 49
-0.06
 74
0
 49
0.01
 74
0
 49
-0.06
 74
0
  0
LTYPE
  5
61
100
AcDbSymbolTableRecord
100
AcDbLinetypeTableRecord
  2
DIVIDEX2
 70
0
  3
Divide (2x) ________  .  .  ________  .  .  _
 72
65
 73
6
 40
2.5000000000000004
 49
1.0
 74
0
 49
-0.45
 74
0
 49
0.1
 74
0
 49
-0.4
 74
0
 49
0.1
 74
0
 49
-0.45
 74
0
  0
LTYPE
  5
62
100
AcDbSymbolTableRecord
100
AcDbLinetypeTableRecord
  2
ACAD_ISO05W100
 70
0
  3
ISO long-dash double-dot ____ .. ____ .. ____ .
 72
65
 73
6
 40
1.3
 49
0.9399999999999998
 74
0
 49
-0.07
 74
0
 49
0.1
 74
0
 49
-0.02
 74
0
 49
0.1
 74
0
 49
-0.07
 74
0
  0
LTYPE
  5
63
100
AcDbSymbolTableRecord
100
AcDbLinetypeTableRecord
  2
DASHEDX2
 70
0
  3
Dashed (2x) ____  ____  ____  ____  ____  ___
 72
65
 73
2
 40
1.5
 49
1.0
 74
0
 49
-0.5
 74
0
  0
LTYPE
  5
64
100
AcDbSymbolTableRecord
100
AcDbLinetypeTableRecord
  2
DOT
 70
0
  3
Dot . . . . . . . . . . . . . . . . . . . . . .
 72
65
 73
2
 40
0.25
 49
0.1
 74
0
 49
-0.15
 74
0
  0
LTYPE
  5
65
100
AcDbSymbolTableRecord
100
AcDbLinetypeTableRecord
  2
DOTTED
 70
0
  3
Dotted . . . . . . . . . . . . . . . . . . . . 
 72
65
 73
2
 40
0.0482
 49
0.0069
 74
0
 49
-0.0413
 74
0
  0
LTYPE
  5
66
100
AcDbSymbolTableRecord
100
AcDbLinetypeTableRecord
  2
CENTERX2
 70
0
  3
Center (2x) ________  __  ________  __  _____
 72
65
 73
4
 40
4.0
 49
2.5
 74
0
 49
-0.5
 74
0
 49
0.5
 74
0
 49
-0.5
 74
0
  0
LTYPE
  5
67
100
AcDbSymbolTableRecord
100
AcDbLinetypeTableRecord
  2
CHAIN
 70
0
  3
Chain ____ _ ____ _ ____ _ ____ _ ____ _ ____
 72
65
 73
4
 40
0.7087000000000001
 49
0.4724000000000001
 74
0
 49
-0.0591
 74
0
 49
0.1181
 74
0
 49
-0.0591
 74
0
  0
LTYPE
  5
68
100
AcDbSymbolTableRecord
100
AcDbLinetypeTableRecord
  2
ACAD_ISO04W100
 70
0
  3
ISO long-dash dot ____ . ____ . ____ . ____ . _
 72
65
 73
4
 40
1.1799999999999999
 49
0.9399999999999998
 74
0
 49
-0.07
 74
0
 49
0.1
 74
0
 49
-0.07
 74
0
  0
LTYPE
  5
69
100
AcDbSymbolTableRecord
100
AcDbLinetypeTableRecord
  2
CENTER
 70
0
  3
Center ____ _ ____ _ ____ _ ____ _ ____ _ ____
 72
65
 73
4
 40
2.0
 49
1.25
 74
0
 49
-0.25
 74
0
 49
0.25
 74
0
 49
-0.25
 74
0
  0
LTYPE
  5
6A
100
AcDbSymbolTableRecord
100
AcDbLinetypeTableRecord
  2
HIDDEN2
 70
0
  3
Hidden (.5x) _ _ _ _ _ _ _ _ _ _ _ _ _ _ _ _ _
 72
65
 73
2
 40
0.1875
 49
0.125
 74
0
 49
-0.0625
 74
0
  0
LTYPE
  5
6B
100
AcDbSymbolTableRecord
100
AcDbLinetypeTableRecord
  2
HIDDEN
 70
0
  3
Hidden __ __ __ __ __ __ __ __ __ __ __ __ __ _
 72
65
 73
2
 40
0.375
 49
0.25
 74
0
 49
-0.125
 74
0
  0
ENDTAB
  0
TABLE
  2
LAYER
  5
2
100
AcDbSymbolTable
 70
1
  0
LAYER
  5
10
100
AcDbSymbolTableRecord
100
AcDbLayerTableRecord
  2
0
 70
0
 62
7
420
16777215
  6
Continuous
370
-3
390
F
  0
ENDTAB
  0
TABLE
  2
STYLE
  5
3
100
AcDbSymbolTable
 70
1
  0
STYLE
  5
6C
100
AcDbSymbolTableRecord
100
AcDbTextStyleTableRecord
  2
Standard
 70
0
 40
0.0
 41
1.0
 50
0.0
 71
0
 42
2.5
  3

  4

1001
ACAD
1000
txt
1071
0
  0
ENDTAB
  0
TABLE
  2
VIEW
  5
6
100
AcDbSymbolTable
 70
0
  0
ENDTAB
  0
TABLE
  2
UCS
  5
7
100
AcDbSymbolTable
 70
0
  0
ENDTAB
  0
TABLE
  2
APPID
  5
9
100
AcDbSymbolTable
 70
1
  0
APPID
  5
12
100
AcDbSymbolTableRecord
100
AcDbRegAppTableRecord
  2
ACAD
 70
0
  0
APPID
  5
6D
100
AcDbSymbolTableRecord
100
AcDbRegAppTableRecord
  2
QCAD
 70
0
  0
ENDTAB
  0
TABLE
  2
DIMSTYLE
  5
A
100
AcDbSymbolTable
 70
1
100
AcDbDimStyleTable
 71
0
  0
DIMSTYLE
105
27
100
AcDbSymbolTableRecord
100
AcDbDimStyleTableRecord
  2
Standard
 41
0.0708661417322835
 42
0.0625
 43
3.75
 44
0.18
 70
0
 73
0
 74
0
 77
1
 78
8
140
0.0708661417322835
141
2.5
143
0.03937007874016
147
0.09
171
3
172
1
271
2
272
2
274
3
278
44
283
0
284
8
340
6C
  0
ENDTAB
  0
TABLE
  2
BLOCK_RECORD
  5
1
100
AcDbSymbolTable
 70
1
  0
BLOCK_RECORD
  5
1F
100
AcDbSymbolTableRecord
100
AcDbBlockTableRecord
  2
*Model_Space
340
22
  0
BLOCK_RECORD
  5
1B
100
AcDbSymbolTableRecord
100
AcDbBlockTableRecord
  2
*Paper_Space
340
1E
  0
BLOCK_RECORD
  5
23
100
AcDbSymbolTableRecord
100
AcDbBlockTableRecord
  2
*Paper_Space0
340
26
  0
ENDTAB
  0
ENDSEC
  0
SECTION
  2
BLOCKS
  0
BLOCK
  5
20
100
AcDbEntity
  8
0
100
AcDbBlockBegin
  2
*Model_Space
 70
0
 10
0.0
 20
0.0
 30
0.0
  3
*Model_Space
  1

  0
ENDBLK
  5
21
100
AcDbEntity
  8
0
100
AcDbBlockEnd
  0
BLOCK
  5
1C
100
AcDbEntity
 67
1
  8
0
100
AcDbBlockBegin
  2
*Paper_Space
 70
0
 10
0.0
 20
0.0
 30
0.0
  3
*Paper_Space
  1

  0
ENDBLK
  5
1D
100
AcDbEntity
 67
1
  8
0
100
AcDbBlockEnd
  0
BLOCK
  5
24
100
AcDbEntity
  8
0
100
AcDbBlockBegin
  2
*Paper_Space0
 70
0
 10
0.0
 20
0.0
 30
0.0
  3
*Paper_Space0
  1

  0
ENDBLK
  5
25
100
AcDbEntity
  8
0
100
AcDbBlockEnd
  0
ENDSEC
  0
SECTION
  2
ENTITIES
  0
LINE
  5
6E
100
AcDbEntity
  8
0
 62
256
370
-1
 48
1.0
  6
ByLayer
100
AcDbLine
 10
1.0145808850314217
 20
1.5675000000005732
 30
0.0
 11
1.019704041019672
 21
1.5965548614158029
 31
0.0
  0
LINE
  5
6F
100
AcDbEntity
  8
0
 62
256
370
-1
 48
1.0
  6
ByLayer
100
AcDbLine
 10
0.9176010456414715
 20
1.0174999999989043
 30
0.0
 11
0.9290622993874609
 21
1.0824999999985594
 31
0.0
  0
LINE
  5
70
100
AcDbEntity
  8
0
 62
256
370
-1
 48
1.0
  6
ByLayer
100
AcDbLine
 10
0.9352337437122544
 20
1.117499999998544
 30
0.0
 11
1.008409440706316
 21
1.5324999999988187
 31
0.0
  0
LINE
  5
71
100
AcDbEntity
  8
0
 62
256
370
-1
 48
1.0
  6
ByLayer
100
AcDbLine
 10
0.8885996668811396
 20
0.8530250078915869
 30
0.0
 11
0.9114296013171582
 21
0.9825000000016438
 31
0.0
  0
LINE
  5
72
100
AcDbEntity
  8
0
 62
256
370
-1
 48
1.0
  6
ByLayer
100
AcDbLine
 10
0.9724866973071318
 20
1.0174999999995304
 30
0.0
 11
0.9961447625340701
 21
1.0824999999985281
 31
0.0
  0
LINE
  5
73
100
AcDbEntity
  8
0
 62
256
370
-1
 48
1.0
  6
ByLayer
100
AcDbLine
 10
1.0088837207336967
 20
1.1174999999993782
 30
0.0
 11
1.1687132306276551
 21
1.5566279693955281
 31
0.0
  0
LINE
  5
74
100
AcDbEntity
  8
0
 62
256
370
-1
 48
1.0
  6
ByLayer
100
AcDbLine
 10
0.9104880224167754
 20
0.8471600407021679
 30
0.0
 11
0.9597477391084042
 21
0.9825000000011499
 31
0.0
  0
LINE
  5
75
100
AcDbEntity
  8
0
 62
256
370
-1
 48
1.0
  6
ByLayer
100
AcDbLine
 10
1.0419670818567932
 20
1.0297399255902449
 30
0.0
 11
1.069094994263724
 21
1.0767268481823273
 31
0.0
  0
LINE
  5
76
100
AcDbEntity
  8
0
 62
256
370
-1
 48
1.0
  6
ByLayer
100
AcDbLine
 10
1.0987153397224054
 20
1.1280307914545056
 30
0.0
 11
1.308525403784438
 21
1.4914324823492271
 31
0.0
  0
LINE
  5
77
100
AcDbEntity
  8
0
 62
256
370
-1
 48
1.0
  6
ByLayer
100
AcDbLine
 10
0.9310254037844387
 20
0.8375833024919767
 30
0.0
 11
1.0142407117535674
 21
0.9817164438619992
 31
0.0
  0
LINE
  5
78
100
AcDbEntity
  8
0
 62
256
370
-1
 48
1.0
  6
ByLayer
100
AcDbLine
 10
0.949587793043689
 20
0.824585777605467
 30
0.0
 11
1.316050807568877
 21
1.2613193917187651
 31
0.0
  0
LINE
  5
79
100
AcDbEntity
  8
0
 62
256
370
-1
 48
1.0
  6
ByLayer
100
AcDbLine
 10
0.9656111813899056
 20
0.8085623892592501
 30
0.0
 11
1.0800444992948337
 21
0.9045833441076677
 31
0.0
  0
LINE
  5
7A
100
AcDbEntity
  8
0
 62
256
370
-1
 48
1.0
  6
ByLayer
100
AcDbLine
 10
1.1995993080949208
 20
1.0049017400772911
 30
0.0
 11
1.316050807568877
 21
1.1026161503359291
 31
0.0
  0
LINE
  5
7B
100
AcDbEntity
  8
0
 62
256
370
-1
 48
1.0
  6
ByLayer
100
AcDbLine
 10
1.1259488288041837
 20
0.9431016500684036
 30
0.0
 11
1.1729992254230974
 21
0.982581620518079
 31
0.0
  0
LINE
  5
7C
100
AcDbEntity
  8
0
 62
256
370
-1
 48
1.0
  6
ByLayer
100
AcDbLine
 10
0.9786087062764156
 20
0.7899999999999999
 30
0.0
 11
1.0845254037852983
 21
0.8511510338184296
 31
0.0
  0
LINE
  5
7D
100
AcDbEntity
  8
0
 62
256
370
-1
 48
1.0
  6
ByLayer
100
AcDbLine
 10
1.2195254037843877
 20
0.9290933201585034
 30
0.0
 11
1.316050807568877
 21
0.9848222880171157
 31
0.0
  0
LINE
  5
7E
100
AcDbEntity
  8
0
 62
256
370
-1
 48
1.0
  6
ByLayer
100
AcDbLine
 10
1.1195254037812534
 20
0.8713582932377312
 30
0.0
 11
1.1845254037848176
 21
0.9088860607371148
 31
0.0
  0
LINE
  5
7F
100
AcDbEntity
  8
0
 62
256
370
-1
 48
1.0
  6
ByLayer
100
AcDbLine
 10
0.9881854444866068
 20
0.7694626186323368
 30
0.0
 11
1.0845254037861087
 21
0.804527496187773
 31
0.0
  0
LINE
  5
80
100
AcDbEntity
  8
0
 62
256
370
-1
 48
1.0
  6
ByLayer
100
AcDbLine
 10
1.1195254037807083
 20
0.8172664543851245
 30
0.0
 11
1.1845254037854303
 21
0.8409245196141464
 31
0.0
  0
LINE
  5
81
100
AcDbEntity
  8
0
 62
256
370
-1
 48
1.0
  6
ByLayer
100
AcDbLine
 10
1.2195254037842107
 20
0.8536634778130197
 30
0.0
 11
1.316050807568877
 21
0.8887958516411645
 31
0.0
  0
LINE
  5
82
100
AcDbEntity
  8
0
 62
256
370
-1
 48
1.0
  6
ByLayer
100
AcDbLine
 10
0.9940504116760257
 20
0.7475742630967011
 30
0.0
 11
1.0845254037868213
 21
0.7635274452852198
 31
0.0
  0
LINE
  5
83
100
AcDbEntity
  8
0
 62
256
370
-1
 48
1.0
  6
ByLayer
100
AcDbLine
 10
1.1195254037802291
 20
0.7696988896088537
 30
0.0
 11
1.1845254037859689
 21
0.781160143355916
 31
0.0
  0
LINE
  5
84
100
AcDbEntity
  8
0
 62
256
370
-1
 48
1.0
  6
ByLayer
100
AcDbLine
 10
1.2195254037840548
 20
0.7873315876803747
 30
0.0
 11
1.316050807568877
 21
0.8043516206914177
 31
0.0
  0
LINE
  5
85
100
AcDbEntity
  8
0
 62
256
370
-1
 48
1.0
  6
ByLayer
100
AcDbLine
 10
1.1195254037797784
 20
0.7249999999999998
 30
0.0
 11
1.1845254037864752
 21
0.7249999999999996
 31
0.0
  0
LINE
  5
86
100
AcDbEntity
  8
0
 62
256
370
-1
 48
1.0
  6
ByLayer
100
AcDbLine
 10
1.2195254037839085
 20
0.7249999999999996
 30
0.0
 11
1.3160508075688711
 21
0.7249999999999995
 31
0.0
  0
LINE
  5
87
100
AcDbEntity
  8
0
 62
256
370
-1
 48
1.0
  6
ByLayer
100
AcDbLine
 10
0.9960254037844386
 20
0.7249999999999999
 30
0.0
 11
1.084525403787491
 21
0.7249999999999998
 31
0.0
  0
LINE
  5
88
100
AcDbEntity
  8
0
 62
256
370
-1
 48
1.0
  6
ByLayer
100
AcDbLine
 10
1.1195254037793285
 20
0.6803011103913046
 30
0.0
 11
1.1845254037869817
 21
0.6688398566439047
 31
0.0
  0
LINE
  5
89
100
AcDbEntity
  8
0
 62
256
370
-1
 48
1.0
  6
ByLayer
100
AcDbLine
 10
1.2195254037837622
 20
0.662668412319676
 30
0.0
 11
1.3160508075688711
 21
0.6456483793085819
 31
0.0
  0
LINE
  5
8A
100
AcDbEntity
  8
0
 62
256
370
-1
 48
1.0
  6
ByLayer
100
AcDbLine
 10
0.9940504116760257
 20
0.702425736903299
 30
0.0
 11
1.0845254037881611
 21
0.6864725547145436
 31
0.0
  0
LINE
  5
8B
100
AcDbEntity
  8
0
 62
256
370
-1
 48
1.0
  6
ByLayer
100
AcDbLine
 10
1.1195254037788489
 20
0.6327335456155521
 30
0.0
 11
1.1845254037875201
 21
0.6090754803850927
 31
0.0
  0
LINE
  5
8C
100
AcDbEntity
  8
0
 62
256
370
-1
 48
1.0
  6
ByLayer
100
AcDbLine
 10
1.2195254037836065
 20
0.5963365221872001
 30
0.0
 11
1.316050807568877
 21
0.5612041483588354
 31
0.0
  0
LINE
  5
8D
100
AcDbEntity
  8
0
 62
256
370
-1
 48
1.0
  6
ByLayer
100
AcDbLine
 10
0.9881854444866068
 20
0.680537381367663
 30
0.0
 11
1.0845254037888734
 21
0.6454725038112206
 31
0.0
  0
LINE
  5
8E
100
AcDbEntity
  8
0
 62
256
370
-1
 48
1.0
  6
ByLayer
100
AcDbLine
 10
1.1195254037783042
 20
0.5786417067639715
 30
0.0
 11
1.1845254037881328
 21
0.5411139392609713
 31
0.0
  0
LINE
  5
8F
100
AcDbEntity
  8
0
 62
256
370
-1
 48
1.0
  6
ByLayer
100
AcDbLine
 10
1.2195254037834296
 20
0.5209066798420497
 30
0.0
 11
1.316050807568877
 21
0.4651777119828843
 31
0.0
  0
LINE
  5
90
100
AcDbEntity
  8
0
 62
256
370
-1
 48
1.0
  6
ByLayer
100
AcDbLine
 10
0.9786087062764158
 20
0.6600000000000001
 30
0.0
 11
1.0845254037896837
 21
0.5988489661790386
 31
0.0
  0
LINE
  5
91
100
AcDbEntity
  8
0
 62
256
370
-1
 48
1.0
  6
ByLayer
100
AcDbLine
 10
1.2733818709690528
 20
0.3831873386277098
 30
0.0
 11
1.310331180793445
 21
0.3521831863818071
 31
0.0
  0
LINE
  5
92
100
AcDbEntity
  8
0
 62
256
370
-1
 48
1.0
  6
ByLayer
100
AcDbLine
 10
1.1195254037776359
 20
0.5122882435022673
 30
0.0
 11
1.1657651532329689
 21
0.4734884867885674
 31
0.0
  0
LINE
  5
93
100
AcDbEntity
  8
0
 62
256
370
-1
 48
1.0
  6
ByLayer
100
AcDbLine
 10
1.1926791245251549
 20
0.4509049834037783
 30
0.0
 11
1.2351993861628374
 21
0.4152262475460373
 31
0.0
  0
LINE
  5
94
100
AcDbEntity
  8
0
 62
256
370
-1
 48
1.0
  6
ByLayer
100
AcDbLine
 10
0.9656111813899059
 20
0.6414376107407498
 30
0.0
 11
1.0845254037906777
 21
0.5416567305825287
 31
0.0
  0
LINE
  5
95
100
AcDbEntity
  8
0
 62
256
370
-1
 48
1.0
  6
ByLayer
100
AcDbLine
 10
1.238842217402631
 20
0.2806942229909928
 30
0.0
 11
1.202171191259682
 21
0.3243970501409687
 31
0.0
  0
LINE
  5
96
100
AcDbEntity
  8
0
 62
256
370
-1
 48
1.0
  6
ByLayer
100
AcDbLine
 10
1.0650675151465545
 20
0.4877908487066611
 30
0.0
 11
0.9495877930436886
 21
0.6254142223945327
 31
0.0
  0
LINE
  5
97
100
AcDbEntity
  8
0
 62
256
370
-1
 48
1.0
  6
ByLayer
100
AcDbLine
 10
1.1175369169972795
 20
0.4252602505497903
 30
0.0
 11
1.0876510185360493
 21
0.4608768774088671
 31
0.0
  0
LINE
  5
98
100
AcDbEntity
  8
0
 62
256
370
-1
 48
1.0
  6
ByLayer
100
AcDbLine
 10
1.1795876878782718
 20
0.3513110214291276
 30
0.0
 11
1.1401204203809912
 21
0.3983462792588885
 31
0.0
  0
LINE
  5
99
100
AcDbEntity
  8
0
 62
256
370
-1
 48
1.0
  6
ByLayer
100
AcDbLine
 10
1.1418897913417441
 20
0.2471888647518741
 30
0.0
 11
1.156025403784438
 21
0.2227052658050254
 31
0.0
  0
LINE
  5
9A
100
AcDbEntity
  8
0
 62
256
370
-1
 48
1.0
  6
ByLayer
100
AcDbLine
 10
1.0320136061776333
 20
0.4374999999979601
 30
0.0
 11
1.0677973697885286
 21
0.375520703337855
 31
0.0
  0
LINE
  5
9B
100
AcDbEntity
  8
0
 62
256
370
-1
 48
1.0
  6
ByLayer
100
AcDbLine
 10
1.0859147029417227
 20
0.3441405618188707
 30
0.0
 11
1.1119705241515048
 21
0.2990105556505973
 31
0.0
  0
LINE
  5
9C
100
AcDbEntity
  8
0
 62
256
370
-1
 48
1.0
  6
ByLayer
100
AcDbLine
 10
0.9441781441041024
 20
0.5896354830156054
 30
0.0
 11
1.0118063467541141
 21
0.4725000000012206
 31
0.0
  0
LINE
  5
9D
100
AcDbEntity
  8
0
 62
256
370
-1
 48
1.0
  6
ByLayer
100
AcDbLine
 10
0.9520072087481957
 20
0.4887669323781253
 30
0.0
 11
0.9335254037863903
 21
0.5395452741814503
 31
0.0
  0
LINE
  5
9E
100
AcDbEntity
  8
0
 62
256
370
-1
 48
1.0
  6
ByLayer
100
AcDbLine
 10
0.9943249113631702
 20
0.3725000000002867
 30
0.0
 11
0.9706668461343986
 21
0.4375000000043214
 31
0.0
  0
LINE
  5
9F
100
AcDbEntity
  8
0
 62
256
370
-1
 48
1.0
  6
ByLayer
100
AcDbLine
 10
1.0643970869133259
 20
0.179978279944173
 30
0.0
 11
1.0070638695625853
 21
0.3375000000000175
 31
0.0
  0
LINE
  5
A0
100
AcDbEntity
  8
0
 62
256
370
-1
 48
1.0
  6
ByLayer
100
AcDbLine
 10
0.8909775744341957
 20
0.5834892082340343
 30
0.0
 11
0.8985254037814702
 21
0.5406833408792593
 31
0.0
  0
LINE
  5
A1
100
AcDbEntity
  8
0
 62
256
370
-1
 48
1.0
  6
ByLayer
100
AcDbLine
 10
0.9087864156543777
 20
0.4824902507935569
 30
0.0
 11
0.9255550100074189
 21
0.3873908264986098
 31
0.0
  0
LINE
  5
A2
100
AcDbEntity
  8
0
 62
256
370
-1
 48
1.0
  6
ByLayer
100
AcDbLine
 10
0.9343521088084865
 20
0.3375000000027344
 30
0.0
 11
0.9667413468312579
 21
0.1538115032529193
 31
0.0
  0
LINE
  5
A3
100
AcDbEntity
  8
0
 62
256
370
-1
 48
1.0
  6
ByLayer
100
AcDbLine
 10
0.8660254037844342
 20
0.284494025846478
 30
0.0
 11
0.8660254037844356
 21
0.3974229580295116
 31
0.0
  0
LINE
  5
A4
100
AcDbEntity
  8
0
 62
256
370
-1
 48
1.0
  6
ByLayer
100
AcDbLine
 10
0.8660254037844363
 20
0.4469204327163986
 30
0.0
 11
0.8660254037844383
 21
0.5949999999999999
 31
0.0
  0
LINE
  5
A5
100
AcDbEntity
  8
0
 62
256
370
-1
 48
1.0
  6
ByLayer
100
AcDbLine
 10
0.833525403784065
 20
0.5406833408603067
 30
0.0
 11
0.8410732331332178
 21
0.5834892082257339
 31
0.0
  0
LINE
  5
A6
100
AcDbEntity
  8
0
 62
256
370
-1
 48
1.0
  6
ByLayer
100
AcDbLine
 10
0.8064957975597422
 20
0.3873908264888775
 30
0.0
 11
0.8232643919123133
 21
0.4824902507811588
 31
0.0
  0
LINE
  5
A7
100
AcDbEntity
  8
0
 62
256
370
-1
 48
1.0
  6
ByLayer
100
AcDbLine
 10
0.7653094607376194
 20
0.1538115032529193
 30
0.0
 11
0.7976986987599687
 21
0.3375000000003409
 31
0.0
  0
LWPOLYLINE
  5
A8
100
AcDbEntity
  8
0
 62
256
370
-1
 48
1.0
  6
ByLayer
100
AcDbPolyline
 90
8
 70
1
 10
0.4159999999999988
 20
0.3591077536368777
 30
0.0
 42
0.475768149611908
 10
1.3160508075688699
 20
0.3591077536368679
 30
0.0
 42
-0.475768149611908
 10
0.415999999999999
 20
0.3591077536368776
 30
0.0
 42
0.475768149611908
 10
1.3160508075688699
 20
0.3591077536368679
 30
0.0
 42
-0.475768149611908
 10
0.415999999999999
 20
0.3591077536368776
 30
0.0
 42
0.475768149611908
 10
1.3160508075688699
 20
0.3591077536368679
 30
0.0
 10
1.3160508075688699
 20
1.090892246363131
 30
0.0
 42
0.4757681496119083
 10
0.4159999999999986
 20
1.090892246363121
 30
0.0
  0
LINE
  5
A9
100
AcDbEntity
  8
0
 62
256
370
-1
 48
1.0
  6
ByLayer
100
AcDbLine
 10
0.6676537206555511
 20
0.1799782799441731
 30
0.0
 11
0.7249869380069041
 21
0.3375000000016993
 31
0.0
  0
LINE
  5
AA
100
AcDbEntity
  8
0
 62
256
370
-1
 48
1.0
  6
ByLayer
100
AcDbLine
 10
0.7377258962058459
 20
0.3725000000006684
 30
0.0
 11
0.761383961431583
 21
0.4374999999963658
 31
0.0
  0
LINE
  5
AB
100
AcDbEntity
  8
0
 62
256
370
-1
 48
1.0
  6
ByLayer
100
AcDbLine
 10
0.7800435988188917
 20
0.4887669323732076
 30
0.0
 11
0.7985254037881974
 21
0.5395452741971389
 31
0.0
  0
LINE
  5
AC
100
AcDbEntity
  8
0
 62
256
370
-1
 48
1.0
  6
ByLayer
100
AcDbLine
 10
0.66425343778388
 20
0.3755207033439716
 30
0.0
 11
0.7000372013939962
 21
0.4375000000027272
 31
0.0
  0
LINE
  5
AD
100
AcDbEntity
  8
0
 62
256
370
-1
 48
1.0
  6
ByLayer
100
AcDbLine
 10
0.6200802834394757
 20
0.2990105556888815
 30
0.0
 11
0.6461361046245163
 21
0.3441405618143012
 31
0.0
  0
ARC
  5
AE
100
AcDbEntity
  8
0
 62
256
370
-1
 48
1.0
  6
ByLayer
100
AcDbCircle
 10
0.8660254037844387
 20
0.7249999999999999
 30
0.0
 40
0.5799999999999998
100
AcDbArc
 50
219.1127659213265986
 51
320.8872340786721793
  0
LINE
  5
AF
100
AcDbEntity
  8
0
 62
256
370
-1
 48
1.0
  6
ByLayer
100
AcDbLine
 10
0.7202444608143118
 20
0.4725000000004388
 30
0.0
 11
0.7878726634630655
 21
0.5896354830126441
 31
0.0
  0
LINE
  5
B0
100
AcDbEntity
  8
0
 62
256
370
-1
 48
1.0
  6
ByLayer
100
AcDbLine
 10
0.5760254037844391
 20
0.2227052658050255
 30
0.0
 11
0.5901610162379294
 21
0.247188864770574
 31
0.0
  0
LINE
  5
B1
100
AcDbEntity
  8
0
 62
256
370
-1
 48
1.0
  6
ByLayer
100
AcDbLine
 10
0.5524631196937402
 20
0.3513110214328635
 30
0.0
 11
0.5919303871855069
 21
0.3983462792560532
 31
0.0
  0
LINE
  5
B2
100
AcDbEntity
  8
0
 62
256
370
-1
 48
1.0
  6
ByLayer
100
AcDbLine
 10
0.6145138905753488
 20
0.4252602505542608
 30
0.0
 11
0.6443997890340932
 21
0.4608768774103753
 31
0.0
  0
ARC
  5
B3
100
AcDbEntity
  8
0
 62
256
370
-1
 48
1.0
  6
ByLayer
100
AcDbCircle
 10
0.8660254037844387
 20
0.7249999999999999
 30
0.0
 40
0.5799999999999998
100
AcDbArc
 50
219.1127659213265986
 51
320.8872340786721793
  0
LINE
  5
B4
100
AcDbEntity
  8
0
 62
256
370
-1
 48
1.0
  6
ByLayer
100
AcDbLine
 10
0.6669832924207419
 20
0.4877908487047773
 30
0.0
 11
0.7824630145251886
 21
0.6254142223945327
 31
0.0
  0
LINE
  5
B5
100
AcDbEntity
  8
0
 62
256
370
-1
 48
1.0
  6
ByLayer
100
AcDbLine
 10
0.493208590166246
 20
0.2806942229909926
 30
0.0
 11
0.5298796163085919
 21
0.3243970501402495
 31
0.0
  0
LINE
  5
B6
100
AcDbEntity
  8
0
 62
256
370
-1
 48
1.0
  6
ByLayer
100
AcDbLine
 10
0.4968514213833249
 20
0.4152262475269774
 30
0.0
 11
0.5393716830419382
 21
0.4509049834022812
 31
0.0
  0
LINE
  5
B7
100
AcDbEntity
  8
0
 62
256
370
-1
 48
1.0
  6
ByLayer
100
AcDbLine
 10
0.5662856543396263
 20
0.4734884867916873
 30
0.0
 11
0.6125254037781775
 21
0.5122882434913054
 31
0.0
  0
LINE
  5
B8
100
AcDbEntity
  8
0
 62
256
370
-1
 48
1.0
  6
ByLayer
100
AcDbLine
 10
0.4217196267754316
 20
0.3521831863818071
 30
0.0
 11
0.4586689365828525
 21
0.3831873386134689
 31
0.0
  0
ARC
  5
B9
100
AcDbEntity
  8
0
 62
256
370
-1
 48
1.0
  6
ByLayer
100
AcDbCircle
 10
0.8660254037844387
 20
0.7249999999999999
 30
0.0
 40
0.5799999999999998
100
AcDbArc
 50
219.1127659213265986
 51
320.8872340786721793
  0
LINE
  5
BA
100
AcDbEntity
  8
0
 62
256
370
-1
 48
1.0
  6
ByLayer
100
AcDbLine
 10
0.647525403788925
 20
0.5416567305915283
 30
0.0
 11
0.7664396261789718
 21
0.6414376107407497
 31
0.0
  0
LINE
  5
BB
100
AcDbEntity
  8
0
 62
256
370
-1
 48
1.0
  6
ByLayer
100
AcDbLine
 10
0.4159999999999987
 20
0.4651777119828833
 30
0.0
 11
0.512525403781008
 21
0.5209066798394864
 31
0.0
  0
LINE
  5
BC
100
AcDbEntity
  8
0
 62
256
370
-1
 48
1.0
  6
ByLayer
100
AcDbLine
 10
0.6475254037877531
 20
0.5988489661839803
 30
0.0
 11
0.7534421012924617
 21
0.66
 31
0.0
  0
LINE
  5
BD
100
AcDbEntity
  8
0
 62
256
370
-1
 48
1.0
  6
ByLayer
100
AcDbLine
 10
0.5475254037814603
 20
0.5411139392613844
 30
0.0
 11
0.6125254037798501
 21
0.5786417067577806
 31
0.0
  0
LINE
  5
BE
100
AcDbEntity
  8
0
 62
256
370
-1
 48
1.0
  6
ByLayer
100
AcDbLine
 10
0.4159999999999987
 20
0.5612041483588351
 30
0.0
 11
0.5125254037820874
 21
0.5963365221860417
 31
0.0
  0
LINE
  5
BF
100
AcDbEntity
  8
0
 62
256
370
-1
 48
1.0
  6
ByLayer
100
AcDbLine
 10
0.6475254037867979
 20
0.6454725038136934
 30
0.0
 11
0.7438653630822707
 21
0.680537381367663
 31
0.0
  0
LINE
  5
C0
100
AcDbEntity
  8
0
 62
256
370
-1
 48
1.0
  6
ByLayer
100
AcDbLine
 10
0.5475254037822748
 20
0.6090754803854269
 30
0.0
 11
0.6125254037812135
 21
0.6327335456123437
 31
0.0
  0
CIRCLE
  5
C1
100
AcDbEntity
  8
0
 62
256
370
-1
 48
1.0
  6
ByLayer
100
AcDbCircle
 10
0.8660254037844387
 20
0.7249999999999999
 30
0.0
 40
0.31
  0
LINE
  5
C2
100
AcDbEntity
  8
0
 62
256
370
-1
 48
1.0
  6
ByLayer
100
AcDbLine
 10
0.4159999999999987
 20
0.6456483793085819
 30
0.0
 11
0.5125254037830368
 21
0.6626684123193104
 31
0.0
  0
LINE
  5
C3
100
AcDbEntity
  8
0
 62
256
370
-1
 48
1.0
  6
ByLayer
100
AcDbLine
 10
0.6475254037859579
 20
0.6864725547154682
 30
0.0
 11
0.7380003958928518
 21
0.702425736903299
 31
0.0
  0
LINE
  5
C4
100
AcDbEntity
  8
0
 62
256
370
-1
 48
1.0
  6
ByLayer
100
AcDbLine
 10
0.547525403782991
 20
0.6688398566440986
 30
0.0
 11
0.6125254037824122
 21
0.6803011103900467
 31
0.0
  0
LINE
  5
C5
100
AcDbEntity
  8
0
 62
256
370
-1
 48
1.0
  6
ByLayer
100
AcDbLine
 10
0.4159999999999987
 20
0.7249999999999999
 30
0.0
 11
0.5125254037839289
 21
0.7249999999999999
 31
0.0
  0
LINE
  5
C6
100
AcDbEntity
  8
0
 62
256
370
-1
 48
1.0
  6
ByLayer
100
AcDbLine
 10
0.6475254037851684
 20
0.7249999999999999
 30
0.0
 11
0.7360254037844387
 21
0.7249999999999999
 31
0.0
  0
LINE
  5
C7
100
AcDbEntity
  8
0
 62
256
370
-1
 48
1.0
  6
ByLayer
100
AcDbLine
 10
0.5475254037836639
 20
0.7249999999999999
 30
0.0
 11
0.612525403783539
 21
0.7249999999999999
 31
0.0
  0
LINE
  5
C8
100
AcDbEntity
  8
0
 62
256
370
-1
 48
1.0
  6
ByLayer
100
AcDbLine
 10
0.4159999999999987
 20
0.8043516206914177
 30
0.0
 11
0.5003612611608655
 21
0.7894764542221638
 31
0.0
  0
LINE
  5
C9
100
AcDbEntity
  8
0
 62
256
370
-1
 48
1.0
  6
ByLayer
100
AcDbLine
 10
0.6504366880028181
 20
0.7630141073285882
 30
0.0
 11
0.7380003958928518
 21
0.7475742630967006
 31
0.0
  0
LINE
  5
CA
100
AcDbEntity
  8
0
 62
256
370
-1
 48
1.0
  6
ByLayer
100
AcDbLine
 10
0.5594316172240692
 20
0.7790607566881651
 30
0.0
 11
0.6033254524610425
 21
0.7713210892491148
 31
0.0
  0
LINE
  5
CB
100
AcDbEntity
  8
0
 62
256
370
-1
 48
1.0
  6
ByLayer
100
AcDbLine
 10
0.4159999999999987
 20
0.888795851641165
 30
0.0
 11
0.6218623959096692
 21
0.8138680671753207
 31
0.0
  0
LINE
  5
CC
100
AcDbEntity
  8
0
 62
256
370
-1
 48
1.0
  6
ByLayer
100
AcDbLine
 10
0.6548346665019352
 20
0.801867142123565
 30
0.0
 11
0.7438653630822707
 21
0.7694626186323371
 31
0.0
  0
LINE
  5
CD
100
AcDbEntity
  8
0
 62
256
370
-1
 48
1.0
  6
ByLayer
100
AcDbLine
 10
0.7534421012924616
 20
0.7899999999999997
 30
0.0
 11
0.4159999999999987
 21
0.984822288017116
 31
0.0
  0
LINE
  5
CE
100
AcDbEntity
  8
0
 62
256
370
-1
 48
1.0
  6
ByLayer
100
AcDbLine
 10
0.5425254037797378
 20
1.1105322872098284
 30
0.0
 11
0.4159999999999987
 21
1.2613193917187651
 31
0.0
  0
LINE
  5
CF
100
AcDbEntity
  8
0
 62
256
370
-1
 48
1.0
  6
ByLayer
100
AcDbLine
 10
0.7824630145251885
 20
0.8245857776054668
 30
0.0
 11
0.6039637548897192
 21
1.0373129115514437
 31
0.0
  0
LINE
  5
D0
100
AcDbEntity
  8
0
 62
256
370
-1
 48
1.0
  6
ByLayer
100
AcDbLine
 10
0.5425254037820968
 20
1.2853184362525871
 30
0.0
 11
0.4235254037844386
 21
1.4914324823492271
 31
0.0
  0
LINE
  5
D1
100
AcDbEntity
  8
0
 62
256
370
-1
 48
1.0
  6
ByLayer
100
AcDbLine
 10
0.6971504500485575
 20
1.0174999999963894
 30
0.0
 11
0.5775254037882943
 21
1.224696657976942
 31
0.0
  0
LINE
  5
D2
100
AcDbEntity
  8
0
 62
256
370
-1
 48
1.0
  6
ByLayer
100
AcDbLine
 10
0.8010254037844386
 20
0.8375833024919769
 30
0.0
 11
0.7173577094660158
 21
0.9825000000036268
 31
0.0
  0
LINE
  5
D3
100
AcDbEntity
  8
0
 62
256
370
-1
 48
1.0
  6
ByLayer
100
AcDbLine
 10
0.566691048487979
 20
1.5474143820440294
 30
0.0
 11
0.5633375769412219
 21
1.5566279693955281
 31
0.0
  0
LINE
  5
D4
100
AcDbEntity
  8
0
 62
256
370
-1
 48
1.0
  6
ByLayer
100
AcDbLine
 10
0.6355254037871235
 20
1.3582935451769129
 30
0.0
 11
0.579899260078963
 21
1.5111251189464219
 31
0.0
  0
LINE
  5
D5
100
AcDbEntity
  8
0
 62
256
370
-1
 48
1.0
  6
ByLayer
100
AcDbLine
 10
0.7162387831210276
 20
1.1365353580091364
 30
0.0
 11
0.6705254037854
 21
1.2621318355007365
 31
0.0
  0
LINE
  5
D6
100
AcDbEntity
  8
0
 62
256
370
-1
 48
1.0
  6
ByLayer
100
AcDbLine
 10
0.7595641102626293
 20
1.0174999999971013
 30
0.0
 11
0.7359060450347629
 21
1.0824999999986489
 31
0.0
  0
LINE
  5
D7
100
AcDbEntity
  8
0
 62
256
370
-1
 48
1.0
  6
ByLayer
100
AcDbLine
 10
0.8215627851521016
 20
0.8471600407021679
 30
0.0
 11
0.7723030684597755
 21
0.9825000000030656
 31
0.0
  0
LINE
  5
D8
100
AcDbEntity
  8
0
 62
256
370
-1
 48
1.0
  6
ByLayer
100
AcDbLine
 10
0.717965590987272
 20
1.5646889245325724
 30
0.0
 11
0.7123467665492055
 21
1.5965548614158029
 31
0.0
  0
LINE
  5
D9
100
AcDbEntity
  8
0
 62
256
370
-1
 48
1.0
  6
ByLayer
100
AcDbLine
 10
0.7968170638568992
 20
1.1174999999969755
 30
0.0
 11
0.7253850758791279
 21
1.5226109347544612
 31
0.0
  0
LINE
  5
DA
100
AcDbEntity
  8
0
 62
256
370
-1
 48
1.0
  6
ByLayer
100
AcDbLine
 10
0.8144497619276131
 20
1.0174999999977272
 30
0.0
 11
0.8029885081814059
 21
1.0824999999986178
 31
0.0
  0
LINE
  5
DB
100
AcDbEntity
  8
0
 62
256
370
-1
 48
1.0
  6
ByLayer
100
AcDbLine
 10
0.8434511406877374
 20
0.8530250078915869
 30
0.0
 11
0.8206212062515552
 21
0.9825000000025716
 31
0.0
  0
LINE
  5
DC
100
AcDbEntity
  8
0
 62
256
370
-1
 48
1.0
  6
ByLayer
100
AcDbLine
 10
0.8660254037844385
 20
1.5675000000023873
 30
0.0
 11
0.8660254037844385
 21
1.609999999999999
 31
0.0
  0
LINE
  5
DD
100
AcDbEntity
  8
0
 62
256
370
-1
 48
1.0
  6
ByLayer
100
AcDbLine
 10
0.8660254037844383
 20
1.1174999999977595
 30
0.0
 11
0.8660254037844385
 21
1.5324999999983639
 31
0.0
  0
LINE
  5
DE
100
AcDbEntity
  8
0
 62
256
370
-1
 48
1.0
  6
ByLayer
100
AcDbLine
 10
0.8660254037844383
 20
1.0174999999983159
 30
0.0
 11
0.8660254037844383
 21
1.0824999999985887
 31
0.0
  0
LINE
  5
DF
100
AcDbEntity
  8
0
 62
256
370
-1
 48
1.0
  6
ByLayer
100
AcDbLine
 10
0.8660254037844383
 20
0.8549999999999998
 30
0.0
 11
0.8660254037844383
 21
0.9825000000021077
 31
0.0
  0
LINE
  5
E0
100
AcDbEntity
  8
0
 62
256
370
-1
 48
1.0
  6
ByLayer
100
AcDbLine
 10
0.7664396261789715
 20
0.8085623892592501
 30
0.0
 11
0.4159999999999987
 21
1.1026161503359291
 31
0.0
  0
ENDSEC
  0
SECTION
  2
OBJECTS
  0
DICTIONARY
  5
C
100
AcDbDictionary
280
0
281
1
  3
ACAD_GROUP
350
D
  3
ACAD_LAYOUT
350
1A
  3
ACAD_MLINESTYLE
350
17
  3
ACAD_PLOTSETTINGS
350
19
  3
ACAD_PLOTSTYLENAME
350
E
  3
AcDbVariableDictionary
350
E1
  3
QCAD_OBJECTS
350
E2
  0
DICTIONARY
  5
D
100
AcDbDictionary
280
0
281
1
  0
ACDBDICTIONARYWDFLT
  5
E
100
AcDbDictionary
281
1
  3
Normal
350
F
100
AcDbDictionaryWithDefault
340
F
  0
ACDBPLACEHOLDER
  5
F
  0
DICTIONARY
  5
17
100
AcDbDictionary
280
0
281
1
  3
Standard
350
18
  0
MLINESTYLE
  5
18
100
AcDbMlineStyle
  2
STANDARD
 70
0
  3

 62
256
 51
90.0
 52
90.0
 71
2
 49
0.5
 62
256
  6
BYLAYER
 49
-0.5
 62
256
  6
BYLAYER
  0
DICTIONARY
  5
19
100
AcDbDictionary
280
0
281
1
  0
DICTIONARY
  5
1A
100
AcDbDictionary
281
1
  3
Layout1
350
1E
  3
Layout2
350
26
  3
Model
350
22
  0
LAYOUT
  5
1E
100
AcDbPlotSettings
  1

  2
none_device
  4

  6

 40
0.0
 41
0.0
 42
0.0
 43
0.0
 44
0.0
 45
0.0
 46
0.0
 47
0.0
 48
0.0
 49
0.0
140
0.0
141
0.0
142
1.0
143
1.0
 70
688
 72
0
 73
0
 74
5
  7

 75
16
147
1.0
148
0.0
149
0.0
100
AcDbLayout
  1
Layout1
 70
1
 71
1
 10
0.0
 20
0.0
 11
420.0
 21
297.0
 12
0.0
 22
0.0
 32
0.0
 14
100000000000000000000.0
 24
100000000000000000000.0
 34
100000000000000000000.0
 15
-100000000000000000000.0
 25
-100000000000000000000.0
 35
-100000000000000000000.0
146
0.0
 13
0.0
 23
0.0
 33
0.0
 16
1.0
 26
0.0
 36
0.0
 17
0.0
 27
1.0
 37
0.0
 76
0
330
1B
  0
LAYOUT
  5
22
100
AcDbPlotSettings
  1

  2
none_device
  4

  6

 40
0.0
 41
0.0
 42
0.0
 43
0.0
 44
0.0
 45
0.0
 46
0.0
 47
0.0
 48
0.0
 49
0.0
140
0.0
141
0.0
142
1.0
143
1.0
 70
1712
 72
0
 73
0
 74
0
  7

 75
0
147
1.0
148
0.0
149
0.0
100
AcDbLayout
  1
Model
 70
1
 71
0
 10
0.0
 20
0.0
 11
12.0
 21
9.0
 12
0.0
 22
0.0
 32
0.0
 14
0.0
 24
0.0
 34
0.0
 15
0.0
 25
0.0
 35
0.0
146
0.0
 13
0.0
 23
0.0
 33
0.0
 16
1.0
 26
0.0
 36
0.0
 17
0.0
 27
1.0
 37
0.0
 76
0
330
1F
  0
LAYOUT
  5
26
100
AcDbPlotSettings
  1

  2
none_device
  4

  6

 40
0.0
 41
0.0
 42
0.0
 43
0.0
 44
0.0
 45
0.0
 46
0.0
 47
0.0
 48
0.0
 49
0.0
140
0.0
141
0.0
142
1.0
143
1.0
 70
688
 72
0
 73
0
 74
5
  7

 75
16
147
1.0
148
0.0
149
0.0
100
AcDbLayout
  1
Layout2
 70
1
 71
2
 10
0.0
 20
0.0
 11
12.0
 21
9.0
 12
0.0
 22
0.0
 32
0.0
 14
0.0
 24
0.0
 34
0.0
 15
0.0
 25
0.0
 35
0.0
146
0.0
 13
0.0
 23
0.0
 33
0.0
 16
1.0
 26
0.0
 36
0.0
 17
0.0
 27
1.0
 37
0.0
 76
0
330
23
  0
DICTIONARY
  5
E1
100
AcDbDictionary
281
1
  3
DIMASSOC
350
E4
  3
HIDETEXT
350
E3
  0
DICTIONARYVAR
  5
E3
100
DictionaryVariables
280
0
  1
2
  0
DICTIONARYVAR
  5
E4
100
DictionaryVariables
280
0
  1
1
  0
DICTIONARY
  5
E2
100
AcDbDictionary
281
1
  3
ColorSettings/BackgroundColor
350
E5
  3
ColorSettings/ColorMode
350
E6
  3
Grid/DisplayGrid00
350
E7
  3
Grid/DisplayGrid01
350
E8
  3
Grid/DisplayGrid02
350
E9
  3
Grid/DisplayGrid03
350
EA
  3
Grid/GridSpacingX00
350
EB
  3
Grid/GridSpacingX01
350
EC
  3
Grid/GridSpacingX02
350
ED
  3
Grid/GridSpacingX03
350
EE
  3
Grid/GridSpacingY00
350
EF
  3
Grid/GridSpacingY01
350
F0
  3
Grid/GridSpacingY02
350
F1
  3
Grid/GridSpacingY03
350
F2
  3
Grid/IsometricGrid00
350
F3
  3
Grid/IsometricGrid01
350
F4
  3
Grid/IsometricGrid02
350
F5
  3
Grid/IsometricGrid03
350
F6
  3
Grid/IsometricProjection00
350
F7
  3
Grid/IsometricProjection01
350
F8
  3
Grid/IsometricProjection02
350
F9
  3
Grid/IsometricProjection03
350
FA
  3
Grid/MetaGridSpacingX00
350
FB
  3
Grid/MetaGridSpacingX01
350
FC
  3
Grid/MetaGridSpacingX02
350
FD
  3
Grid/MetaGridSpacingX03
350
FE
  3
Grid/MetaGridSpacingY00
350
FF
  3
Grid/MetaGridSpacingY01
350
100
  3
Grid/MetaGridSpacingY02
350
101
  3
Grid/MetaGridSpacingY03
350
102
  3
MultiPageSettings/Columns
350
103
  3
MultiPageSettings/GlueMarginsBottom
350
104
  3
MultiPageSettings/GlueMarginsLeft
350
105
  3
MultiPageSettings/GlueMarginsRight
350
106
  3
MultiPageSettings/GlueMarginsTop
350
107
  3
MultiPageSettings/PrintCropMarks
350
108
  3
MultiPageSettings/Rows
350
109
  3
PageSettings/OffsetX
350
10A
  3
PageSettings/OffsetY
350
10B
  3
PageSettings/PageOrientation
350
10C
  3
PageSettings/PaperHeight
350
10D
  3
PageSettings/PaperWidth
350
10E
  3
PageSettings/Scale
350
10F
  3
PageSettings/ShowPaperBorders
350
110
  3
QCADVersion
350
111
  3
UnitSettings/PaperUnit
350
112
  3
ViewportCenter
350
113
  3
ViewportHeight
350
114
  3
ViewportWidth
350
115
  0
XRECORD
  5
E5
330
E2
100
AcDbXrecord
280
1
1000
Weiss
  0
XRECORD
  5
E6
330
E2
100
AcDbXrecord
280
1
1000
FullColor
  0
XRECORD
  5
E7
330
E2
100
AcDbXrecord
280
1
290
1
  0
XRECORD
  5
E8
330
E2
100
AcDbXrecord
280
1
290
1
  0
XRECORD
  5
E9
330
E2
100
AcDbXrecord
280
1
290
1
  0
XRECORD
  5
EA
330
E2
100
AcDbXrecord
280
1
290
1
  0
XRECORD
  5
EB
330
E2
100
AcDbXrecord
280
1
1000
auto
  0
XRECORD
  5
EC
330
E2
100
AcDbXrecord
280
1
1000
auto
  0
XRECORD
  5
ED
330
E2
100
AcDbXrecord
280
1
1000
auto
  0
XRECORD
  5
EE
330
E2
100
AcDbXrecord
280
1
1000
auto
  0
XRECORD
  5
EF
330
E2
100
AcDbXrecord
280
1
1000
auto
  0
XRECORD
  5
F0
330
E2
100
AcDbXrecord
280
1
1000
auto
  0
XRECORD
  5
F1
330
E2
100
AcDbXrecord
280
1
1000
auto
  0
XRECORD
  5
F2
330
E2
100
AcDbXrecord
280
1
1000
auto
  0
XRECORD
  5
F3
330
E2
100
AcDbXrecord
280
1
290
0
  0
XRECORD
  5
F4
330
E2
100
AcDbXrecord
280
1
290
0
  0
XRECORD
  5
F5
330
E2
100
AcDbXrecord
280
1
290
0
  0
XRECORD
  5
F6
330
E2
100
AcDbXrecord
280
1
290
0
  0
XRECORD
  5
F7
330
E2
100
AcDbXrecord
280
1
 90
4097
  0
XRECORD
  5
F8
330
E2
100
AcDbXrecord
280
1
 90
4097
  0
XRECORD
  5
F9
330
E2
100
AcDbXrecord
280
1
 90
4097
  0
XRECORD
  5
FA
330
E2
100
AcDbXrecord
280
1
 90
4097
  0
XRECORD
  5
FB
330
E2
100
AcDbXrecord
280
1
1000
auto
  0
XRECORD
  5
FC
330
E2
100
AcDbXrecord
280
1
1000
auto
  0
XRECORD
  5
FD
330
E2
100
AcDbXrecord
280
1
1000
auto
  0
XRECORD
  5
FE
330
E2
100
AcDbXrecord
280
1
1000
auto
  0
XRECORD
  5
FF
330
E2
100
AcDbXrecord
280
1
1000
auto
  0
XRECORD
  5
100
330
E2
100
AcDbXrecord
280
1
1000
auto
  0
XRECORD
  5
101
330
E2
100
AcDbXrecord
280
1
1000
auto
  0
XRECORD
  5
102
330
E2
100
AcDbXrecord
280
1
1000
auto
  0
XRECORD
  5
103
330
E2
100
AcDbXrecord
280
1
 90
1
  0
XRECORD
  5
104
330
E2
100
AcDbXrecord
280
1
 40
10.0
  0
XRECORD
  5
105
330
E2
100
AcDbXrecord
280
1
 40
10.0
  0
XRECORD
  5
106
330
E2
100
AcDbXrecord
280
1
 40
10.0
  0
XRECORD
  5
107
330
E2
100
AcDbXrecord
280
1
 40
10.0
  0
XRECORD
  5
108
330
E2
100
AcDbXrecord
280
1
290
0
  0
XRECORD
  5
109
330
E2
100
AcDbXrecord
280
1
 90
1
  0
XRECORD
  5
10A
330
E2
100
AcDbXrecord
280
1
 40
0.0
  0
XRECORD
  5
10B
330
E2
100
AcDbXrecord
280
1
 40
0.0
  0
XRECORD
  5
10C
330
E2
100
AcDbXrecord
280
1
1000
Portrait
  0
XRECORD
  5
10D
330
E2
100
AcDbXrecord
280
1
 40
297.0
  0
XRECORD
  5
10E
330
E2
100
AcDbXrecord
280
1
 40
210.0
  0
XRECORD
  5
10F
330
E2
100
AcDbXrecord
280
1
1000
1:1
  0
XRECORD
  5
110
330
E2
100
AcDbXrecord
280
1
290
1
  0
XRECORD
  5
111
330
E2
100
AcDbXrecord
280
1
1000
3.17.1.1
  0
XRECORD
  5
112
330
E2
100
AcDbXrecord
280
1
 90
4
  0
XRECORD
  5
114
330
E2
100
AcDbXrecord
280
1
 40
1.866506794564345
  0
XRECORD
  5
115
330
E2
100
AcDbXrecord
280
1
 40
3.7130295763389216
  0
ENDSEC
  0
EOF
