999
dxflib 3.17.0.0
  0
SECTION
  2
HEADER
  9
$ACADVER
  1
AC1015
  9
$HANDSEED
  5
FFFF
  9
$ANGBASE
 50
0.0
  9
$ANGDIR
 70
0
  9
$ATTMODE
 70
1
  9
$AUNITS
 70
0
  9
$AUPREC
 70
0
  9
$CECOLOR
 62
256
  9
$CELTSCALE
 40
1.0
  9
$CHAMFERA
 40
0.0
  9
$CHAMFERB
 40
0.0
  9
$CHAMFERC
 40
0.0
  9
$CHAMFERD
 40
0.0
  9
$CMLJUST
 70
0
  9
$CMLSCALE
 40
1.0
  9
$DIMADEC
 70
0
  9
$DIMALT
 70
0
  9
$DIMALTD
 70
2
  9
$DIMALTF
 40
25.3999999999999986
  9
$DIMALTRND
 40
0.0
  9
$DIMALTTD
 70
2
  9
$DIMALTTZ
 70
0
  9
$DIMALTU
 70
2
  9
$DIMALTZ
 70
0
  9
$DIMAPOST
  1

  9
$DIMASZ
 40
0.0708661417322835
  9
$DIMATFIT
 70
3
  9
$DIMAUNIT
 70
0
  9
$DIMAZIN
 70
0
  9
$DIMBLK
  1

  9
$DIMBLK1
  1

  9
$DIMBLK2
  1

  9
$DIMCEN
 40
0.09
  9
$DIMCLRD
 70
0
  9
$DIMCLRE
 70
0
  9
$DIMCLRT
 70
0
  9
$DIMDEC
 70
4
  9
$DIMDLE
 40
0.0
  9
$DIMDLI
 40
0.38
  9
$DIMDSEP
 70
46
  9
$DIMEXE
 40
0.18
  9
$DIMEXO
 40
0.0625
  9
$DIMFRAC
 70
0
  9
$DIMGAP
 40
0.09
  9
$DIMJUST
 70
0
  9
$DIMLDRBLK
  1

  9
$DIMLFAC
 40
1.0
  9
$DIMLIM
 70
0
  9
$DIMLUNIT
 70
2
  9
$DIMLWD
 70
-2
  9
$DIMLWE
 70
-2
  9
$DIMPOST
  1

  9
$DIMRND
 40
0.0
  9
$DIMSAH
 70
0
  9
$DIMSCALE
 40
1.0
  9
$DIMSD1
 70
0
  9
$DIMSD2
 70
0
  9
$DIMSE1
 70
0
  9
$DIMSE2
 70
0
  9
$DIMSOXD
 70
0
  9
$DIMTAD
 70
0
  9
$DIMTDEC
 70
4
  9
$DIMTFAC
 40
1.0
  9
$DIMTIH
 70
1
  9
$DIMTIX
 70
0
  9
$DIMTM
 40
0.0
  9
$DIMTOFL
 70
0
  9
$DIMTOH
 70
1
  9
$DIMTOL
 70
0
  9
$DIMTOLJ
 70
1
  9
$DIMTP
 40
0.0
  9
$DIMTSZ
 40
0.0
  9
$DIMTVP
 40
0.0
  9
$DIMTXSTY
  7
Standard
  9
$DIMTXT
 40
0.0708661417322835
  9
$DIMTZIN
 70
0
  9
$DIMUPT
 70
0
  9
$DIMZIN
 70
0
  9
$DISPSILH
 70
0
  9
$DWGCODEPAGE
  3
ANSI_1252
  9
$ELEVATION
 40
0.0
  9
$EXTMAX
 10
1.0673941135297089
 20
0.6799702052548602
 30
0.0
  9
$EXTMIN
 10
0.0
 20
0.0
 30
0.0
  9
$FILLETRAD
 40
0.0
  9
$FILLMODE
 70
1
  9
$INSBASE
 10
0.0
 20
0.0
 30
0.0
  9
$INSUNITS
 70
1
  9
$LIMCHECK
 70
0
  9
$LIMMAX
 10
1.0673941135297089
 20
0.6799702052548602
  9
$LIMMIN
 10
0.0
 20
0.0
  9
$LTSCALE
 40
1.0
  9
$LUNITS
 70
2
  9
$LUPREC
 70
4
  9
$MAXACTVP
 70
64
  9
$MEASUREMENT
 70
0
  9
$MIRRTEXT
 70
0
  9
$ORTHOMODE
 70
0
  9
$PDMODE
 70
0
  9
$PDSIZE
 40
0
  9
$PELEVATION
 40
0.0
  9
$PEXTMAX
 10
1.0673941135297089
 20
0.6799702052548602
 30
0.0
  9
$PEXTMIN
 10
0.0
 20
0.0
 30
0.0
  9
$PINSBASE
 10
0.0
 20
0.0
 30
0.0
  9
$PLIMCHECK
 70
0
  9
$PLIMMAX
 10
1.0673941135297089
 20
0.6799702052548602
  9
$PLIMMIN
 10
0.0
 20
0.0
  9
$PLINEGEN
 70
0
  9
$PLINEWID
 40
0.0
  9
$PROXYGRAPHICS
 70
1
  9
$PSLTSCALE
 70
1
  9
$PUCSNAME
  2

  9
$PUCSORG
 10
0.0
 20
0.0
 30
0.0
  9
$PUCSXDIR
 10
1.0
 20
0.0
 30
0.0
  9
$PUCSYDIR
 10
0.0
 20
1.0
 30
0.0
  9
$QTEXTMODE
 70
0
  9
$REGENMODE
 70
1
  9
$SHADEDGE
 70
3
  9
$SHADEDIF
 70
70
  9
$SKETCHINC
 40
0.1
  9
$SKPOLY
 70
0
  9
$SPLFRAME
 70
0
  9
$SPLINESEGS
 70
8
  9
$SPLINETYPE
 70
6
  9
$SURFTAB1
 70
6
  9
$SURFTAB2
 70
6
  9
$SURFTYPE
 70
6
  9
$SURFU
 70
6
  9
$SURFV
 70
6
  9
$TEXTSIZE
 40
0.2
  9
$TEXTSTYLE
  7
Standard
  9
$THICKNESS
 40
0.0
  9
$TILEMODE
 70
1
  9
$TRACEWID
 40
0.05
  9
$TREEDEPTH
 70
3020
  9
$UCSNAME
  2

  9
$UCSORG
 10
0.0
 20
0.0
 30
0.0
  9
$UCSXDIR
 10
1.0
 20
0.0
 30
0.0
  9
$UCSYDIR
 10
0.0
 20
1.0
 30
0.0
  9
$UNITMODE
 70
0
  9
$USERI1
 70
0
  9
$USERI2
 70
0
  9
$USERI3
 70
0
  9
$USERI4
 70
0
  9
$USERI5
 70
0
  9
$USERR1
 40
0.0
  9
$USERR2
 40
0.0
  9
$USERR3
 40
0.0
  9
$USERR4
 40
0.0
  9
$USERR5
 40
0.0
  9
$USRTIMER
 70
1
  9
$VISRETAIN
 70
1
  0
ENDSEC
  0
SECTION
  2
TABLES
  0
TABLE
  2
VPORT
  5
8
100
AcDbSymbolTable
 70
1
  0
VPORT
  5
30
100
AcDbSymbolTableRecord
100
AcDbViewportTableRecord
  2
*Active
 70
0
 10
0.0
 20
0.0
 11
1.0
 21
1.0
 12
286.3055555555554861
 22
148.5
 13
0.0
 23
0.0
 14
10.0
 24
10.0
 15
10.0
 25
10.0
 16
0.0
 26
0.0
 36
1.0
 17
0.0
 27
0.0
 37
0.0
 40
297.0
 41
1.92798353909465
 42
50.0
 43
0.0
 44
0.0
 50
0.0
 51
0.0
 71
0
 72
100
 73
1
 74
3
 75
1
 76
1
 77
0
 78
0
281
0
 65
1
110
0.0
120
0.0
130
0.0
111
1.0
121
0.0
131
0.0
112
0.0
122
1.0
132
0.0
 79
0
146
0.0
  0
ENDTAB
  0
TABLE
  2
LTYPE
  5
5
100
AcDbSymbolTable
 70
62
  0
LTYPE
  5
16
100
AcDbSymbolTableRecord
100
AcDbLinetypeTableRecord
  2
Continuous
 70
0
  3
Solid line
 72
65
 73
0
 40
0.0
  0
LTYPE
  5
31
100
AcDbSymbolTableRecord
100
AcDbLinetypeTableRecord
  2
DOUBLE_DASH_TRIPLE_DOT
 70
0
  3
Double Dash Triple Dot __ __ . . . __ __ . .
 72
65
 73
10
 40
0.8100000000000003
 49
0.24
 74
0
 49
-0.06
 74
0
 49
0.24
 74
0
 49
-0.06
 74
0
 49
0.01
 74
0
 49
-0.06
 74
0
 49
0.01
 74
0
 49
-0.06
 74
0
 49
0.01
 74
0
 49
-0.06
 74
0
  0
LTYPE
  5
32
100
AcDbSymbolTableRecord
100
AcDbLinetypeTableRecord
  2
ZIGZAG
 70
0
  3
Zig zag /\/\/\/\/\/\/\/\/\/\/\/\/\/\/\/\/\/\/\/
 72
65
 73
4
 40
0.8001
 49
0.0001
 74
0
 49
-0.2
 74
0
 49
-0.4
 74
0
 49
-0.2
 74
0
  0
LTYPE
  5
33
100
AcDbSymbolTableRecord
100
AcDbLinetypeTableRecord
  2
HIDDENX2
 70
0
  3
Hidden (2x) ____ ____ ____ ____ ____ ____ ____
 72
65
 73
2
 40
0.75
 49
0.5
 74
0
 49
-0.25
 74
0
  0
LTYPE
  5
34
100
AcDbSymbolTableRecord
100
AcDbLinetypeTableRecord
  2
GAS_LINE
 70
0
  3
Gas line ----GAS----GAS----GAS----GAS----GAS---
 72
65
 73
2
 40
0.7
 49
0.5
 74
0
 49
-0.2
 74
0
  0
LTYPE
  5
35
100
AcDbSymbolTableRecord
100
AcDbLinetypeTableRecord
  2
ACAD_ISO07W100
 70
0
  3
ISO dot . . . . . . . . . . . . . . . . . . . .
 72
65
 73
2
 40
0.12
 49
0.1
 74
0
 49
-0.02
 74
0
  0
LTYPE
  5
36
100
AcDbSymbolTableRecord
100
AcDbLinetypeTableRecord
  2
BORDER2
 70
0
  3
Border (.5x) __.__.__.__.__.__.__.__.__.__.__.
 72
65
 73
6
 40
0.8749999999999999
 49
0.25
 74
0
 49
-0.125
 74
0
 49
0.25
 74
0
 49
-0.075
 74
0
 49
0.1
 74
0
 49
-0.075
 74
0
  0
LTYPE
  5
37
100
AcDbSymbolTableRecord
100
AcDbLinetypeTableRecord
  2
CHAIN
 70
0
  3
Chain ____ _ ____ _ ____ _ ____ _ ____ _ ____
 72
65
 73
4
 40
0.7087000000000001
 49
0.4724000000000001
 74
0
 49
-0.0591
 74
0
 49
0.1181
 74
0
 49
-0.0591
 74
0
  0
LTYPE
  5
38
100
AcDbSymbolTableRecord
100
AcDbLinetypeTableRecord
  2
BORDER
 70
0
  3
Border __ __ . __ __ . __ __ . __ __ . __ __ .
 72
65
 73
6
 40
1.75
 49
0.5
 74
0
 49
-0.25
 74
0
 49
0.5
 74
0
 49
-0.2
 74
0
 49
0.1
 74
0
 49
-0.2
 74
0
  0
LTYPE
  5
39
100
AcDbSymbolTableRecord
100
AcDbLinetypeTableRecord
  2
ACAD_ISO03W100
 70
0
  3
ISO dash space __    __    __    __    __    __
 72
65
 73
2
 40
1.1799999999999999
 49
0.47
 74
0
 49
-0.71
 74
0
  0
LTYPE
  5
3A
100
AcDbSymbolTableRecord
100
AcDbLinetypeTableRecord
  2
PHANTOM
 70
0
  3
Phantom ______  __  __  ______  __  __  ______
 72
65
 73
6
 40
2.5
 49
1.25
 74
0
 49
-0.25
 74
0
 49
0.25
 74
0
 49
-0.25
 74
0
 49
0.25
 74
0
 49
-0.25
 74
0
  0
LTYPE
  5
3B
100
AcDbSymbolTableRecord
100
AcDbLinetypeTableRecord
  2
DOTTED
 70
0
  3
Dotted . . . . . . . . . . . . . . . . . . . . 
 72
65
 73
2
 40
0.0482
 49
0.0069
 74
0
 49
-0.0413
 74
0
  0
LTYPE
  5
3C
100
AcDbSymbolTableRecord
100
AcDbLinetypeTableRecord
  2
DASHED_SPACE
 70
0
  3
Dashed Space __ __ __ __ __ __ __ __ __ __ __ _
 72
65
 73
2
 40
0.2067
 49
0.1654
 74
0
 49
-0.0413
 74
0
  0
LTYPE
  5
3D
100
AcDbSymbolTableRecord
100
AcDbLinetypeTableRecord
  2
DOT2
 70
0
  3
Dot (.5x) .....................................
 72
65
 73
2
 40
0.125
 49
0.1
 74
0
 49
-0.025
 74
0
  0
LTYPE
  5
3E
100
AcDbSymbolTableRecord
100
AcDbLinetypeTableRecord
  2
FENCELINE2
 70
0
  3
Fenceline square ----[]-----[]----[]-----[]----
 72
65
 73
4
 40
1.45
 49
0.25
 74
0
 49
-0.1
 74
0
 49
-0.1
 74
0
 49
1.0
 74
0
  0
LTYPE
  5
3F
100
AcDbSymbolTableRecord
100
AcDbLinetypeTableRecord
  2
DOUBLE_DASH_DOUBLE_DOT
 70
0
  3
Double-Dash Double-dot _ _ . . _ _ . . _
 72
65
 73
8
 40
0.7400000000000002
 49
0.24
 74
0
 49
-0.06
 74
0
 49
0.24
 74
0
 49
-0.06
 74
0
 49
0.01
 74
0
 49
-0.06
 74
0
 49
0.01
 74
0
 49
-0.06
 74
0
  0
LTYPE
  5
40
100
AcDbSymbolTableRecord
100
AcDbLinetypeTableRecord
  2
CENTER
 70
0
  3
Center ____ _ ____ _ ____ _ ____ _ ____ _ ____
 72
65
 73
4
 40
2.0
 49
1.25
 74
0
 49
-0.25
 74
0
 49
0.25
 74
0
 49
-0.25
 74
0
  0
LTYPE
  5
41
100
AcDbSymbolTableRecord
100
AcDbLinetypeTableRecord
  2
PHANTOM2
 70
0
  3
Phantom (.5x) ___ _ _ ___ _ _ ___ _ _ ___ _ _
 72
65
 73
6
 40
1.25
 49
0.625
 74
0
 49
-0.125
 74
0
 49
0.125
 74
0
 49
-0.125
 74
0
 49
0.125
 74
0
 49
-0.125
 74
0
  0
LTYPE
  5
42
100
AcDbSymbolTableRecord
100
AcDbLinetypeTableRecord
  2
PHANTOMX2
 70
0
  3
Phantom (2x) ____________    ____    ____   _
 72
65
 73
6
 40
5.0
 49
2.5
 74
0
 49
-0.5
 74
0
 49
0.5
 74
0
 49
-0.5
 74
0
 49
0.5
 74
0
 49
-0.5
 74
0
  0
LTYPE
  5
43
100
AcDbSymbolTableRecord
100
AcDbLinetypeTableRecord
  2
BY_STANDARD
 70
0
  3
By Standard ____________    ____    ____   _
 72
65
 73
6
 40
1.2403
 49
0.6614
 74
0
 49
-0.0827
 74
0
 49
0.1654
 74
0
 49
-0.0827
 74
0
 49
0.1654
 74
0
 49
-0.0827
 74
0
  0
LTYPE
  5
44
100
AcDbSymbolTableRecord
100
AcDbLinetypeTableRecord
  2
BORDERX2
 70
0
  3
Border (2x) ____  ____  .  ____  ____  .  ___
 72
65
 73
6
 40
3.5000000000000004
 49
1.0
 74
0
 49
-0.5
 74
0
 49
1.0
 74
0
 49
-0.45
 74
0
 49
0.1
 74
0
 49
-0.45
 74
0
  0
LTYPE
  5
45
100
AcDbSymbolTableRecord
100
AcDbLinetypeTableRecord
  2
ACAD_ISO02W100
 70
0
  3
ISO dash __ __ __ __ __ __ __ __ __ __ __ __ __
 72
65
 73
2
 40
0.59
 49
0.47
 74
0
 49
-0.12
 74
0
  0
LTYPE
  5
46
100
AcDbSymbolTableRecord
100
AcDbLinetypeTableRecord
  2
ACAD_ISO12W100
 70
0
  3
ISO dash double-dot __ . . __ . . __ . . __ . .
 72
65
 73
6
 40
0.8299999999999998
 49
0.47
 74
0
 49
-0.07
 74
0
 49
0.1
 74
0
 49
-0.02
 74
0
 49
0.1
 74
0
 49
-0.07
 74
0
  0
LTYPE
  5
47
100
AcDbSymbolTableRecord
100
AcDbLinetypeTableRecord
  2
DASH_TRIPLE_DOT
 70
0
  3
Dash Triple-Dot _ . . . _ . . . _ . . . _
 72
65
 73
8
 40
0.51
 49
0.24
 74
0
 49
-0.06
 74
0
 49
0.01
 74
0
 49
-0.06
 74
0
 49
0.01
 74
0
 49
-0.06
 74
0
 49
0.01
 74
0
 49
-0.06
 74
0
  0
LTYPE
  5
48
100
AcDbSymbolTableRecord
100
AcDbLinetypeTableRecord
  2
TRACKS
 70
0
  3
Tracks -|-|-|-|-|-|-|-|-|-|-|-|-|-|-|-|-|-|-|-|
 72
65
 73
2
 40
0.3
 49
0.15
 74
0
 49
0.15
 74
0
  0
LTYPE
  5
49
100
AcDbSymbolTableRecord
100
AcDbLinetypeTableRecord
  2
ACAD_ISO13W100
 70
0
  3
ISO double-dash double-dot __ __ . . __ __ . . 
 72
65
 73
8
 40
1.4200000000000004
 49
0.47
 74
0
 49
-0.12
 74
0
 49
0.47
 74
0
 49
-0.07
 74
0
 49
0.1
 74
0
 49
-0.02
 74
0
 49
0.1
 74
0
 49
-0.07
 74
0
  0
LTYPE
  5
15
100
AcDbSymbolTableRecord
100
AcDbLinetypeTableRecord
  2
ByLayer
 70
0
  3

 72
65
 73
0
 40
0.0
  0
LTYPE
  5
4A
100
AcDbSymbolTableRecord
100
AcDbLinetypeTableRecord
  2
DOT
 70
0
  3
Dot . . . . . . . . . . . . . . . . . . . . . .
 72
65
 73
2
 40
0.25
 49
0.1
 74
0
 49
-0.15
 74
0
  0
LTYPE
  5
4B
100
AcDbSymbolTableRecord
100
AcDbLinetypeTableRecord
  2
ACAD_ISO15W100
 70
0
  3
ISO double-dash triple-dot __ __ . . . __ __ . 
 72
65
 73
10
 40
1.5400000000000005
 49
0.47
 74
0
 49
-0.12
 74
0
 49
0.47
 74
0
 49
-0.07
 74
0
 49
0.1
 74
0
 49
-0.02
 74
0
 49
0.1
 74
0
 49
-0.02
 74
0
 49
0.1
 74
0
 49
-0.07
 74
0
  0
LTYPE
  5
4C
100
AcDbSymbolTableRecord
100
AcDbLinetypeTableRecord
  2
DASHDOT2
 70
0
  3
Dash dot (.5x) _._._._._._._._._._._._._._._.
 72
65
 73
4
 40
0.5
 49
0.25
 74
0
 49
-0.075
 74
0
 49
0.1
 74
0
 49
-0.075
 74
0
  0
LTYPE
  5
4D
100
AcDbSymbolTableRecord
100
AcDbLinetypeTableRecord
  2
LONG_DASH_DOTTED
 70
0
  3
Long Dash Dotted ____ . ____ . ____ . ____ . _
 72
65
 73
4
 40
0.3542999999999999
 49
0.2362
 74
0
 49
-0.0295
 74
0
 49
0.0591
 74
0
 49
-0.0295
 74
0
  0
LTYPE
  5
4E
100
AcDbSymbolTableRecord
100
AcDbLinetypeTableRecord
  2
DASH_DOUBLE_DOT
 70
0
  3
Dash Double-Dot __ . . __ . . __ . . __ . .
 72
65
 73
6
 40
0.4398
 49
0.24
 74
0
 49
-0.06
 74
0
 49
0.0098
 74
0
 49
-0.06
 74
0
 49
0.01
 74
0
 49
-0.06
 74
0
  0
LTYPE
  5
4F
100
AcDbSymbolTableRecord
100
AcDbLinetypeTableRecord
  2
HIDDEN
 70
0
  3
Hidden __ __ __ __ __ __ __ __ __ __ __ __ __ _
 72
65
 73
2
 40
0.375
 49
0.25
 74
0
 49
-0.125
 74
0
  0
LTYPE
  5
50
100
AcDbSymbolTableRecord
100
AcDbLinetypeTableRecord
  2
LONG_DASH_DOUBLE_DOT
 70
0
  3
Long Dash Double Dot ________  .  .  ________  
 72
65
 73
6
 40
0.6800000000000002
 49
0.48
 74
0
 49
-0.06
 74
0
 49
0.01
 74
0
 49
-0.06
 74
0
 49
0.01
 74
0
 49
-0.06
 74
0
  0
LTYPE
  5
51
100
AcDbSymbolTableRecord
100
AcDbLinetypeTableRecord
  2
DASHDOT
 70
0
  3
Dash dot __ . __ . __ . __ . __ . __ . __ . __
 72
65
 73
4
 40
25.3999999999999986
 49
12.6999999999999993
 74
0
 49
-6.3499999999999996
 74
0
 49
0.0
 74
0
 49
-6.3499999999999996
 74
0
  0
LTYPE
  5
52
100
AcDbSymbolTableRecord
100
AcDbLinetypeTableRecord
  2
DIVIDE
 70
0
  3
Divide ____ . . ____ . . ____ . . ____ . . ____
 72
65
 73
6
 40
1.25
 49
0.5
 74
0
 49
-0.2
 74
0
 49
0.1
 74
0
 49
-0.15
 74
0
 49
0.1
 74
0
 49
-0.2
 74
0
  0
LTYPE
  5
53
100
AcDbSymbolTableRecord
100
AcDbLinetypeTableRecord
  2
DASH_DOT
 70
0
  3
Dash dot __ . __ . __ . __ . __ . __ . __ . __
 72
65
 73
4
 40
0.37
 49
0.24
 74
0
 49
-0.06
 74
0
 49
0.01
 74
0
 49
-0.06
 74
0
  0
LTYPE
  5
54
100
AcDbSymbolTableRecord
100
AcDbLinetypeTableRecord
  2
ACAD_ISO04W100
 70
0
  3
ISO long-dash dot ____ . ____ . ____ . ____ . _
 72
65
 73
4
 40
1.1799999999999999
 49
0.9399999999999998
 74
0
 49
-0.07
 74
0
 49
0.1
 74
0
 49
-0.07
 74
0
  0
LTYPE
  5
55
100
AcDbSymbolTableRecord
100
AcDbLinetypeTableRecord
  2
HOT_WATER_SUPPLY
 70
0
  3
Hot water supply ---- HW ---- HW ---- HW ----
 72
65
 73
2
 40
0.7
 49
0.5
 74
0
 49
-0.2
 74
0
  0
LTYPE
  5
56
100
AcDbSymbolTableRecord
100
AcDbLinetypeTableRecord
  2
ACAD_ISO06W100
 70
0
  3
ISO long-dash triple-dot ____ ... ____ ... ____
 72
65
 73
8
 40
1.4200000000000002
 49
0.9399999999999998
 74
0
 49
-0.07
 74
0
 49
0.1
 74
0
 49
-0.02
 74
0
 49
0.1
 74
0
 49
-0.02
 74
0
 49
0.1
 74
0
 49
-0.07
 74
0
  0
LTYPE
  5
57
100
AcDbSymbolTableRecord
100
AcDbLinetypeTableRecord
  2
DOUBLE_DASH_CHAIN
 70
0
  3
Double-Dash Chain ______  __  __  ______  __  _
 72
65
 73
6
 40
1.2403
 49
0.6614
 74
0
 49
-0.0827
 74
0
 49
0.1654
 74
0
 49
-0.0827
 74
0
 49
0.1654
 74
0
 49
-0.0827
 74
0
  0
LTYPE
  5
58
100
AcDbSymbolTableRecord
100
AcDbLinetypeTableRecord
  2
ACAD_ISO14W100
 70
0
  3
ISO dash triple-dot __ . . . __ . . . __ . . . 
 72
65
 73
8
 40
0.9499999999999998
 49
0.47
 74
0
 49
-0.07
 74
0
 49
0.1
 74
0
 49
-0.02
 74
0
 49
0.1
 74
0
 49
-0.02
 74
0
 49
0.1
 74
0
 49
-0.07
 74
0
  0
LTYPE
  5
59
100
AcDbSymbolTableRecord
100
AcDbLinetypeTableRecord
  2
CENTER2
 70
0
  3
Center (.5x) ___ _ ___ _ ___ _ ___ _ ___ _ ___
 72
65
 73
4
 40
1.125
 49
0.75
 74
0
 49
-0.125
 74
0
 49
0.125
 74
0
 49
-0.125
 74
0
  0
LTYPE
  5
5A
100
AcDbSymbolTableRecord
100
AcDbLinetypeTableRecord
  2
HIDDEN2
 70
0
  3
Hidden (.5x) _ _ _ _ _ _ _ _ _ _ _ _ _ _ _ _ _
 72
65
 73
2
 40
0.1875
 49
0.125
 74
0
 49
-0.0625
 74
0
  0
LTYPE
  5
5B
100
AcDbSymbolTableRecord
100
AcDbLinetypeTableRecord
  2
ACAD_ISO08W100
 70
0
  3
ISO long-dash short-dash ____ __ ____ __ ____ _
 72
65
 73
4
 40
0.95
 49
0.47
 74
0
 49
-0.12
 74
0
 49
0.24
 74
0
 49
-0.12
 74
0
  0
LTYPE
  5
14
100
AcDbSymbolTableRecord
100
AcDbLinetypeTableRecord
  2
ByBlock
 70
0
  3

 72
65
 73
0
 40
0.0
  0
LTYPE
  5
5C
100
AcDbSymbolTableRecord
100
AcDbLinetypeTableRecord
  2
ACAD_ISO11W100
 70
0
  3
ISO double-dash dot __ __ . __ __ . __ __ . __ 
 72
65
 73
6
 40
1.3000000000000003
 49
0.47
 74
0
 49
-0.12
 74
0
 49
0.47
 74
0
 49
-0.07
 74
0
 49
0.1
 74
0
 49
-0.07
 74
0
  0
LTYPE
  5
5D
100
AcDbSymbolTableRecord
100
AcDbLinetypeTableRecord
  2
DOUBLE_DASH_DOT
 70
0
  3
Double-Dash Dot __ __ . __ __ . __ __ . __ _
 72
65
 73
6
 40
0.4398
 49
0.24
 74
0
 49
-0.06
 74
0
 49
0.0098
 74
0
 49
-0.06
 74
0
 49
0.01
 74
0
 49
-0.06
 74
0
  0
LTYPE
  5
5E
100
AcDbSymbolTableRecord
100
AcDbLinetypeTableRecord
  2
ACAD_ISO05W100
 70
0
  3
ISO long-dash double-dot ____ .. ____ .. ____ .
 72
65
 73
6
 40
1.3
 49
0.9399999999999998
 74
0
 49
-0.07
 74
0
 49
0.1
 74
0
 49
-0.02
 74
0
 49
0.1
 74
0
 49
-0.07
 74
0
  0
LTYPE
  5
5F
100
AcDbSymbolTableRecord
100
AcDbLinetypeTableRecord
  2
DIVIDEX2
 70
0
  3
Divide (2x) ________  .  .  ________  .  .  _
 72
65
 73
6
 40
2.5000000000000004
 49
1.0
 74
0
 49
-0.45
 74
0
 49
0.1
 74
0
 49
-0.4
 74
0
 49
0.1
 74
0
 49
-0.45
 74
0
  0
LTYPE
  5
60
100
AcDbSymbolTableRecord
100
AcDbLinetypeTableRecord
  2
LONG_DASH_TRIPLE_DOT
 70
0
  3
Long Dash Triple Dot ____ ... ____ ... ____
 72
65
 73
8
 40
0.3689
 49
0.2362
 74
0
 49
-0.0295
 74
0
 49
0.0049
 74
0
 49
-0.0295
 74
0
 49
0.0049
 74
0
 49
-0.0295
 74
0
 49
0.0049
 74
0
 49
-0.0295
 74
0
  0
LTYPE
  5
61
100
AcDbSymbolTableRecord
100
AcDbLinetypeTableRecord
  2
ACAD_ISO09W100
 70
0
  3
ISO long-dash double-short-dash ____ __ __ ____
 72
65
 73
6
 40
1.3100000000000001
 49
0.47
 74
0
 49
-0.12
 74
0
 49
0.24
 74
0
 49
-0.12
 74
0
 49
0.24
 74
0
 49
-0.12
 74
0
  0
LTYPE
  5
62
100
AcDbSymbolTableRecord
100
AcDbLinetypeTableRecord
  2
ACAD_ISO10W100
 70
0
  3
ISO dash dot __ . __ . __ . __ . __ . __ . __ .
 72
65
 73
4
 40
0.7099999999999999
 49
0.47
 74
0
 49
-0.07
 74
0
 49
0.1
 74
0
 49
-0.07
 74
0
  0
LTYPE
  5
63
100
AcDbSymbolTableRecord
100
AcDbLinetypeTableRecord
  2
FENCELINE1
 70
0
  3
Fenceline circle ----0-----0----0-----0----0---
 72
65
 73
4
 40
1.45
 49
0.25
 74
0
 49
-0.1
 74
0
 49
-0.1
 74
0
 49
1.0
 74
0
  0
LTYPE
  5
64
100
AcDbSymbolTableRecord
100
AcDbLinetypeTableRecord
  2
DOTX2
 70
0
  3
Dot (2x) .  .  .  .  .  .  .  .  .  .  .  .  . 
 72
65
 73
2
 40
0.5
 49
0.1
 74
0
 49
-0.4
 74
0
  0
LTYPE
  5
65
100
AcDbSymbolTableRecord
100
AcDbLinetypeTableRecord
  2
DASHEDX2
 70
0
  3
Dashed (2x) ____  ____  ____  ____  ____  ___
 72
65
 73
2
 40
1.5
 49
1.0
 74
0
 49
-0.5
 74
0
  0
LTYPE
  5
66
100
AcDbSymbolTableRecord
100
AcDbLinetypeTableRecord
  2
BATTING
 70
0
  3
Batting SSSSSSSSSSSSSSSSSSSSSSSSSSSSSSSSSSSSSSS
 72
65
 73
4
 40
0.4001
 49
0.0001
 74
0
 49
-0.1
 74
0
 49
-0.2
 74
0
 49
-0.1
 74
0
  0
LTYPE
  5
67
100
AcDbSymbolTableRecord
100
AcDbLinetypeTableRecord
  2
DASHED
 70
0
  3
Dashed __ __ __ __ __ __ __ __ __ __ __ __ __ _
 72
65
 73
2
 40
0.2067
 49
0.1654
 74
0
 49
-0.0413
 74
0
  0
LTYPE
  5
68
100
AcDbSymbolTableRecord
100
AcDbLinetypeTableRecord
  2
DASHDOTX2
 70
0
  3
Dash dot (2x) ____  .  ____  .  ____  .  ___
 72
65
 73
4
 40
2.0
 49
1.0
 74
0
 49
-0.45
 74
0
 49
0.1
 74
0
 49
-0.45
 74
0
  0
LTYPE
  5
69
100
AcDbSymbolTableRecord
100
AcDbLinetypeTableRecord
  2
DASHED2
 70
0
  3
Dashed (.5x) _ _ _ _ _ _ _ _ _ _ _ _ _ _ _ _ _
 72
65
 73
2
 40
0.375
 49
0.25
 74
0
 49
-0.125
 74
0
  0
LTYPE
  5
6A
100
AcDbSymbolTableRecord
100
AcDbLinetypeTableRecord
  2
DIVIDE2
 70
0
  3
Divide (.5x) __..__..__..__..__..__..__..__.._
 72
65
 73
6
 40
0.625
 49
0.25
 74
0
 49
-0.075
 74
0
 49
0.1
 74
0
 49
-0.025
 74
0
 49
0.1
 74
0
 49
-0.075
 74
0
  0
LTYPE
  5
6B
100
AcDbSymbolTableRecord
100
AcDbLinetypeTableRecord
  2
CENTERX2
 70
0
  3
Center (2x) ________  __  ________  __  _____
 72
65
 73
4
 40
4.0
 49
2.5
 74
0
 49
-0.5
 74
0
 49
0.5
 74
0
 49
-0.5
 74
0
  0
ENDTAB
  0
TABLE
  2
LAYER
  5
2
100
AcDbSymbolTable
 70
1
  0
LAYER
  5
10
100
AcDbSymbolTableRecord
100
AcDbLayerTableRecord
  2
0
 70
0
 62
7
420
16777215
  6
Continuous
370
-3
390
F
  0
ENDTAB
  0
TABLE
  2
STYLE
  5
3
100
AcDbSymbolTable
 70
1
  0
STYLE
  5
6C
100
AcDbSymbolTableRecord
100
AcDbTextStyleTableRecord
  2
Standard
 70
0
 40
0.0
 41
1.0
 50
0.0
 71
0
 42
2.5
  3

  4

1001
ACAD
1000
txt
1071
0
  0
ENDTAB
  0
TABLE
  2
VIEW
  5
6
100
AcDbSymbolTable
 70
0
  0
ENDTAB
  0
TABLE
  2
UCS
  5
7
100
AcDbSymbolTable
 70
0
  0
ENDTAB
  0
TABLE
  2
APPID
  5
9
100
AcDbSymbolTable
 70
1
  0
APPID
  5
12
100
AcDbSymbolTableRecord
100
AcDbRegAppTableRecord
  2
ACAD
 70
0
  0
APPID
  5
6D
100
AcDbSymbolTableRecord
100
AcDbRegAppTableRecord
  2
QCAD
 70
0
  0
ENDTAB
  0
TABLE
  2
DIMSTYLE
  5
A
100
AcDbSymbolTable
 70
1
100
AcDbDimStyleTable
 71
0
  0
DIMSTYLE
105
27
100
AcDbSymbolTableRecord
100
AcDbDimStyleTableRecord
  2
Standard
 41
0.0708661417322835
 42
0.0625
 43
3.75
 44
0.18
 70
0
 73
0
 74
0
 77
1
 78
8
140
0.0708661417322835
141
2.5
143
0.03937007874016
147
0.09
171
3
172
1
271
2
272
2
274
3
278
44
283
0
284
8
340
6C
  0
ENDTAB
  0
TABLE
  2
BLOCK_RECORD
  5
1
100
AcDbSymbolTable
 70
1
  0
BLOCK_RECORD
  5
1F
100
AcDbSymbolTableRecord
100
AcDbBlockTableRecord
  2
*Model_Space
340
22
  0
BLOCK_RECORD
  5
1B
100
AcDbSymbolTableRecord
100
AcDbBlockTableRecord
  2
*Paper_Space
340
1E
  0
BLOCK_RECORD
  5
23
100
AcDbSymbolTableRecord
100
AcDbBlockTableRecord
  2
*Paper_Space0
340
26
  0
ENDTAB
  0
ENDSEC
  0
SECTION
  2
BLOCKS
  0
BLOCK
  5
20
100
AcDbEntity
  8
0
100
AcDbBlockBegin
  2
*Model_Space
 70
0
 10
0.0
 20
0.0
 30
0.0
  3
*Model_Space
  1

  0
ENDBLK
  5
21
100
AcDbEntity
  8
0
100
AcDbBlockEnd
  0
BLOCK
  5
1C
100
AcDbEntity
 67
1
  8
0
100
AcDbBlockBegin
  2
*Paper_Space
 70
0
 10
0.0
 20
0.0
 30
0.0
  3
*Paper_Space
  1

  0
ENDBLK
  5
1D
100
AcDbEntity
 67
1
  8
0
100
AcDbBlockEnd
  0
BLOCK
  5
24
100
AcDbEntity
  8
0
100
AcDbBlockBegin
  2
*Paper_Space0
 70
0
 10
0.0
 20
0.0
 30
0.0
  3
*Paper_Space0
  1

  0
ENDBLK
  5
25
100
AcDbEntity
  8
0
100
AcDbBlockEnd
  0
ENDSEC
  0
SECTION
  2
ENTITIES
  0
LINE
  5
6E
100
AcDbEntity
  8
0
 62
256
370
-1
 48
1.0
  6
ByLayer
100
AcDbLine
 10
0.4955542603627982
 20
1.716826353315771
 30
0.0
 11
0.5684058402317863
 21
1.595530065759206
 31
0.0
  0
ARC
  5
6F
100
AcDbEntity
  8
0
 62
256
370
-1
 48
1.0
  6
ByLayer
100
AcDbCircle
 10
0.8660254037844387
 20
0.7249999999999999
 30
0.0
 40
0.9199999999999997
100
AcDbArc
 50
108.8746939613178029
 51
109.8423506970964212
  0
LINE
  5
70
100
AcDbEntity
  8
0
 62
256
370
-1
 48
1.0
  6
ByLayer
100
AcDbLine
 10
0.553746778609952
 20
1.590379720272628
 30
0.0
 11
0.4159999999999988
 21
1.8066872780680481
 31
0.0
  0
LINE
  5
71
100
AcDbEntity
  8
0
 62
256
370
-1
 48
1.0
  6
ByLayer
100
AcDbLine
 10
0.4159999999999988
 20
1.780187987802865
 30
0.0
 11
0.5439591453758336
 21
1.5867849645907499
 31
0.0
  0
LINE
  5
72
100
AcDbEntity
  8
0
 62
256
370
-1
 48
1.0
  6
ByLayer
100
AcDbLine
 10
0.4554048034943473
 20
1.548280464129572
 30
0.0
 11
0.4159999999999988
 21
1.591299259550216
 31
0.0
  0
LINE
  5
73
100
AcDbEntity
  8
0
 62
256
370
-1
 48
1.0
  6
ByLayer
100
AcDbLine
 10
0.4159999999999988
 20
1.591299259550216
 30
0.0
 11
0.4159999999999988
 21
1.574403822564423
 31
0.0
  0
LINE
  5
74
100
AcDbEntity
  8
0
 62
256
370
-1
 48
1.0
  6
ByLayer
100
AcDbLine
 10
0.4159999999999988
 20
1.574403822564423
 30
0.0
 11
0.4455256994877139
 21
1.5432786803322971
 31
0.0
  0
LINE
  5
75
100
AcDbEntity
  8
0
 62
256
370
-1
 48
1.0
  6
ByLayer
100
AcDbLine
 10
0.7204037037455965
 20
1.835096234596175
 30
0.0
 11
0.7372478995809296
 21
1.844821235595987
 31
0.0
  0
LINE
  5
76
100
AcDbEntity
  8
0
 62
256
370
-1
 48
1.0
  6
ByLayer
100
AcDbLine
 10
0.7372478995809296
 20
1.844821235595987
 30
0.0
 11
0.7691857528074615
 21
1.6725000000013499
 31
0.0
  0
LINE
  5
77
100
AcDbEntity
  8
0
 62
256
370
-1
 48
1.0
  6
ByLayer
100
AcDbLine
 10
0.74865053621124
 20
1.8514045509239689
 30
0.0
 11
0.7660385378701768
 21
1.8614435183624261
 31
0.0
  0
LINE
  5
78
100
AcDbEntity
  8
0
 62
256
370
-1
 48
1.0
  6
ByLayer
100
AcDbLine
 10
0.7925928176522619
 20
1.6725000000012591
 30
0.0
 11
0.8018704707125207
 21
1.6725000000012229
 31
0.0
  0
LINE
  5
79
100
AcDbEntity
  8
0
 62
256
370
-1
 48
1.0
  6
ByLayer
100
AcDbLine
 10
0.8268987424091697
 20
1.896581173835949
 30
0.0
 11
0.8386423391089927
 21
1.6725000000010799
 31
0.0
  0
LINE
  5
7A
100
AcDbEntity
  8
0
 62
256
370
-1
 48
1.0
  6
ByLayer
100
AcDbLine
 10
0.8477793017249632
 20
1.6725000000010439
 30
0.0
 11
0.8396961985927003
 21
1.903969788608453
 31
0.0
  0
LINE
  5
7B
100
AcDbEntity
  8
0
 62
256
370
-1
 48
1.0
  6
ByLayer
100
AcDbLine
 10
0.8705851922051179
 20
1.672500000000956
 30
0.0
 11
0.8727042062057424
 21
1.9153149539376479
 31
0.0
  0
LINE
  5
7C
100
AcDbEntity
  8
0
 62
256
370
-1
 48
1.0
  6
ByLayer
100
AcDbLine
 10
0.8842715058439079
 20
1.672500000000902
 30
0.0
 11
0.8923546089761755
 21
1.9039697886084539
 31
0.0
  0
LINE
  5
7D
100
AcDbEntity
  8
0
 62
256
370
-1
 48
1.0
  6
ByLayer
100
AcDbLine
 10
0.905152065159706
 20
1.8965811738359499
 30
0.0
 11
0.8934084684598721
 21
1.672500000000867
 31
0.0
  0
LINE
  5
7E
100
AcDbEntity
  8
0
 62
256
370
-1
 48
1.0
  6
ByLayer
100
AcDbLine
 10
0.9542159232465003
 20
1.868254142162058
 30
0.0
 11
0.9301803368562955
 21
1.672500000000724
 31
0.0
  0
LINE
  5
7F
100
AcDbEntity
  8
0
 62
256
370
-1
 48
1.0
  6
ByLayer
100
AcDbLine
 10
0.9301803368562955
 20
1.672500000000724
 30
0.0
 11
0.9394579899165361
 21
1.672500000000688
 31
0.0
  0
LINE
  5
80
100
AcDbEntity
  8
0
 62
256
370
-1
 48
1.0
  6
ByLayer
100
AcDbLine
 10
1.3160508075688711
 20
1.52741955107578
 30
0.0
 11
1.3160508075688719
 21
1.4870381459931361
 31
0.0
  0
LINE
  5
81
100
AcDbEntity
  8
0
 62
256
370
-1
 48
1.0
  6
ByLayer
100
AcDbLine
 10
1.3160508075688719
 20
1.5347456390064671
 30
0.0
 11
1.3112403657435989
 21
1.5300985266709299
 31
0.0
  0
ARC
  5
82
100
AcDbEntity
  8
0
 62
256
370
-1
 48
1.0
  6
ByLayer
100
AcDbCircle
 10
0.8660254037844387
 20
0.7249999999999999
 30
0.0
 40
0.9200000000000002
100
AcDbArc
 50
61.7590116822591995
 51
62.8021278264066609
  0
LINE
  5
83
100
AcDbEntity
  8
0
 62
256
370
-1
 48
1.0
  6
ByLayer
100
AcDbLine
 10
1.3160508075688719
 20
1.6659746727500571
 30
0.0
 11
1.237196101974213
 21
1.566803013065001
 31
0.0
  0
LINE
  5
84
100
AcDbEntity
  8
0
 62
256
370
-1
 48
1.0
  6
ByLayer
100
AcDbLine
 10
1.3160508075688719
 20
1.7196482178421979
 30
0.0
 11
1.2126108045550981
 21
1.577219783842549
 31
0.0
  0
LINE
  5
85
100
AcDbEntity
  8
0
 62
256
370
-1
 48
1.0
  6
ByLayer
100
AcDbLine
 10
1.20279479474777
 20
1.581146235937638
 30
0.0
 11
1.3160508075688719
 21
1.7429563817775
 31
0.0
  0
ARC
  5
86
100
AcDbEntity
  8
0
 62
256
370
-1
 48
1.0
  6
ByLayer
100
AcDbCircle
 10
0.8660254037844387
 20
0.7249999999999999
 30
0.0
 40
0.9200000000000002
100
AcDbArc
 50
68.5275572790858263
 51
69.5082797577910299
  0
LINE
  5
87
100
AcDbEntity
  8
0
 62
256
370
-1
 48
1.0
  6
ByLayer
100
AcDbLine
 10
0.9071470456003659
 20
1.6725000000008139
 30
0.0
 11
0.9239294032787629
 21
1.8857400726182481
 31
0.0
  0
LINE
  5
88
100
AcDbEntity
  8
0
 62
256
370
-1
 48
1.0
  6
ByLayer
100
AcDbLine
 10
0.905152065159706
 20
1.8965811738359499
 30
0.0
 11
0.9239294032787629
 21
1.8857400726182481
 31
0.0
  0
LINE
  5
89
100
AcDbEntity
  8
0
 62
256
370
-1
 48
1.0
  6
ByLayer
100
AcDbLine
 10
0.8249037619684859
 20
1.672500000001133
 30
0.0
 11
0.8081214042901133
 21
1.8857400726182469
 31
0.0
  0
LINE
  5
8A
100
AcDbEntity
  8
0
 62
256
370
-1
 48
1.0
  6
ByLayer
100
AcDbLine
 10
0.7958631590656803
 20
1.8786627714381281
 30
0.0
 11
0.8157143761011117
 21
1.6725000000011689
 31
0.0
  0
LINE
  5
8B
100
AcDbEntity
  8
0
 62
256
370
-1
 48
1.0
  6
ByLayer
100
AcDbLine
 10
0.8018704707125207
 20
1.6725000000012229
 30
0.0
 11
0.7778348843223776
 21
1.868254142162058
 31
0.0
  0
LINE
  5
8C
100
AcDbEntity
  8
0
 62
256
370
-1
 48
1.0
  6
ByLayer
100
AcDbLine
 10
0.7925928176522619
 20
1.6725000000012591
 30
0.0
 11
0.7660385378701768
 21
1.8614435183624261
 31
0.0
  0
LINE
  5
8D
100
AcDbEntity
  8
0
 62
256
370
-1
 48
1.0
  6
ByLayer
100
AcDbLine
 10
1.3160508075688719
 20
1.5501921873785141
 30
0.0
 11
1.3160508075688719
 21
1.5347456390064671
 31
0.0
  0
ARC
  5
8E
100
AcDbEntity
  8
0
 62
256
370
-1
 48
1.0
  6
ByLayer
100
AcDbCircle
 10
0.8660254037844387
 20
0.7249999999999999
 30
0.0
 40
0.9199999999999997
100
AcDbArc
 50
66.8743358149517206
 51
67.8691389566798478
  0
LINE
  5
8F
100
AcDbEntity
  8
0
 62
256
370
-1
 48
1.0
  6
ByLayer
100
AcDbLine
 10
1.3160508075688719
 20
1.7429563817775
 30
0.0
 11
1.3160508075688719
 21
1.7196482178421979
 31
0.0
  0
LINE
  5
90
100
AcDbEntity
  8
0
 62
256
370
-1
 48
1.0
  6
ByLayer
100
AcDbLine
 10
1.3160508075688719
 20
1.7801879878028539
 30
0.0
 11
1.188091662193044
 21
1.5867849645907499
 31
0.0
  0
LINE
  5
91
100
AcDbEntity
  8
0
 62
256
370
-1
 48
1.0
  6
ByLayer
100
AcDbLine
 10
0.4159999999999988
 20
1.6178887604801031
 30
0.0
 11
0.4702124579738948
 21
1.555501120967804
 31
0.0
  0
LINE
  5
92
100
AcDbEntity
  8
0
 62
256
370
-1
 48
1.0
  6
ByLayer
100
AcDbLine
 10
0.6620084156162235
 20
1.5861632066796449
 30
0.0
 11
0.7033452089307961
 21
1.6274999999989299
 31
0.0
  0
ARC
  5
93
100
AcDbEntity
  8
0
 62
256
370
-1
 48
1.0
  6
ByLayer
100
AcDbCircle
 10
1.0860254037844379
 20
1.649999999999999
 30
0.0
 40
0.030000000000936
100
AcDbArc
 50
228.5903778779583035
 51
131.4096221070662125
  0
LINE
  5
94
100
AcDbEntity
  8
0
 62
256
370
-1
 48
1.0
  6
ByLayer
100
AcDbLine
 10
0.7691857528074615
 20
1.6725000000013499
 30
0.0
 11
0.7785888905391769
 21
1.672500000001313
 31
0.0
  0
LINE
  5
95
100
AcDbEntity
  8
0
 62
256
370
-1
 48
1.0
  6
ByLayer
100
AcDbLine
 10
0.7778348843223776
 20
1.868254142162058
 30
0.0
 11
0.7958631590656803
 21
1.8786627714381281
 31
0.0
  0
LINE
  5
96
100
AcDbEntity
  8
0
 62
256
370
-1
 48
1.0
  6
ByLayer
100
AcDbLine
 10
0.8157143761011117
 20
1.6725000000011689
 30
0.0
 11
0.8249037619684859
 21
1.672500000001133
 31
0.0
  0
LINE
  5
97
100
AcDbEntity
  8
0
 62
256
370
-1
 48
1.0
  6
ByLayer
100
AcDbLine
 10
0.9071470456003659
 20
1.6725000000008139
 30
0.0
 11
0.916336431467727
 21
1.6725000000007779
 31
0.0
  0
LINE
  5
98
100
AcDbEntity
  8
0
 62
256
370
-1
 48
1.0
  6
ByLayer
100
AcDbLine
 10
0.9361876485031961
 20
1.878662771438129
 30
0.0
 11
0.9542159232465003
 21
1.868254142162058
 31
0.0
  0
ARC
  5
99
100
AcDbEntity
  8
0
 62
256
370
-1
 48
1.0
  6
ByLayer
100
AcDbCircle
 10
0.8660254037844387
 20
0.7249999999999999
 30
0.0
 40
0.9200000000000002
100
AcDbArc
 50
60.7147425020705569
 51
61.0576527253463084
  0
LINE
  5
9A
100
AcDbEntity
  8
0
 62
256
370
-1
 48
1.0
  6
ByLayer
100
AcDbLine
 10
1.3013520265751859
 20
1.535487958880082
 30
0.0
 11
1.3160508075688719
 21
1.5501921873785141
 31
0.0
  0
ARC
  5
9B
100
AcDbEntity
  8
0
 62
256
370
-1
 48
1.0
  6
ByLayer
100
AcDbCircle
 10
0.8660254037844387
 20
0.7249999999999999
 30
0.0
 40
0.9199999999999997
100
AcDbArc
 50
63.491745539595783
 51
64.5177497497863044
  0
LINE
  5
9C
100
AcDbEntity
  8
0
 62
256
370
-1
 48
1.0
  6
ByLayer
100
AcDbLine
 10
1.3160508075688719
 20
1.617888760480098
 30
0.0
 11
1.3160508075688719
 21
1.6365212301077789
 31
0.0
  0
LINE
  5
9D
100
AcDbEntity
  8
0
 62
256
370
-1
 48
1.0
  6
ByLayer
100
AcDbLine
 10
1.3160508075688719
 20
1.6867095614022101
 30
0.0
 11
1.3160508075688719
 21
1.6659746727500571
 31
0.0
  0
LINE
  5
9E
100
AcDbEntity
  8
0
 62
256
370
-1
 48
1.0
  6
ByLayer
100
AcDbLine
 10
1.3160508075688719
 20
1.806687278068037
 30
0.0
 11
1.3160508075688719
 21
1.7801879878028539
 31
0.0
  0
ARC
  5
9F
100
AcDbEntity
  8
0
 62
256
370
-1
 48
1.0
  6
ByLayer
100
AcDbCircle
 10
0.8660254037844387
 20
0.7249999999999999
 30
0.0
 40
0.9200000000000002
100
AcDbArc
 50
70.1576493029035362
 51
71.1253060386821687
  0
LINE
  5
A0
100
AcDbEntity
  8
0
 62
256
370
-1
 48
1.0
  6
ByLayer
100
AcDbLine
 10
0.8660254037844387
 20
1.9307179676972439
 30
0.0
 11
1.23649654720608
 21
1.716826353315771
 31
0.0
  0
LINE
  5
A1
100
AcDbEntity
  8
0
 62
256
370
-1
 48
1.0
  6
ByLayer
100
AcDbLine
 10
0.4955542603627982
 20
1.716826353315771
 30
0.0
 11
0.8660254037844387
 21
1.9307179676972439
 31
0.0
  0
ARC
  5
A2
100
AcDbEntity
  8
0
 62
256
370
-1
 48
1.0
  6
ByLayer
100
AcDbCircle
 10
0.8660254037844387
 20
0.7249999999999999
 30
0.0
 40
0.9200000000000002
100
AcDbArc
 50
112.1308610433200954
 51
113.1256641850482936
  0
LINE
  5
A3
100
AcDbEntity
  8
0
 62
256
370
-1
 48
1.0
  6
ByLayer
100
AcDbLine
 10
0.4159999999999988
 20
1.6867095614022181
 30
0.0
 11
0.4159999999999988
 21
1.6659746727500639
 31
0.0
  0
LINE
  5
A4
100
AcDbEntity
  8
0
 62
256
370
-1
 48
1.0
  6
ByLayer
100
AcDbLine
 10
0.4159999999999988
 20
1.6659746727500639
 30
0.0
 11
0.4948547055946642
 21
1.566803013065001
 31
0.0
  0
ARC
  5
A5
100
AcDbEntity
  8
0
 62
256
370
-1
 48
1.0
  6
ByLayer
100
AcDbCircle
 10
0.8660254037844387
 20
0.7249999999999999
 30
0.0
 40
0.9200000000000002
100
AcDbArc
 50
113.7938078429198896
 51
114.803705866965899
  0
LINE
  5
A6
100
AcDbEntity
  8
0
 62
256
370
-1
 48
1.0
  6
ByLayer
100
AcDbLine
 10
0.4800754712482552
 20
1.5601303189175411
 30
0.0
 11
0.4159999999999988
 21
1.6365212301077849
 31
0.0
  0
LINE
  5
A7
100
AcDbEntity
  8
0
 62
256
370
-1
 48
1.0
  6
ByLayer
100
AcDbLine
 10
0.4159999999999988
 20
1.6365212301077849
 30
0.0
 11
0.4159999999999988
 21
1.6178887604801031
 31
0.0
  0
ARC
  5
A8
100
AcDbEntity
  8
0
 62
256
370
-1
 48
1.0
  6
ByLayer
100
AcDbCircle
 10
0.8660254037844387
 20
0.7249999999999999
 30
0.0
 40
0.9200000000000002
100
AcDbArc
 50
115.4822502502136956
 51
116.508254460404288
  0
LINE
  5
A9
100
AcDbEntity
  8
0
 62
256
370
-1
 48
1.0
  6
ByLayer
100
AcDbLine
 10
0.6847055986355103
 20
1.6725000000014649
 30
0.0
 11
0.7549646003115404
 21
1.6725000000014649
 31
0.0
  0
LINE
  5
AA
100
AcDbEntity
  8
0
 62
256
370
-1
 48
1.0
  6
ByLayer
100
AcDbLine
 10
0.7549646003115404
 20
1.6725000000014649
 30
0.0
 11
0.7204037037455965
 21
1.835096234596175
 31
0.0
  0
LINE
  5
AB
100
AcDbEntity
  8
0
 62
256
370
-1
 48
1.0
  6
ByLayer
100
AcDbLine
 10
0.8593466013631335
 20
1.9153149539376471
 30
0.0
 11
0.861465615363758
 21
1.6725000000009911
 31
0.0
  0
LINE
  5
AC
100
AcDbEntity
  8
0
 62
256
370
-1
 48
1.0
  6
ByLayer
100
AcDbLine
 10
0.8396961985927003
 20
1.903969788608453
 30
0.0
 11
0.8593466013631335
 21
1.9153149539376471
 31
0.0
  0
LINE
  5
AD
100
AcDbEntity
  8
0
 62
256
370
-1
 48
1.0
  6
ByLayer
100
AcDbLine
 10
0.9361876485031961
 20
1.878662771438129
 30
0.0
 11
0.916336431467727
 21
1.6725000000007779
 31
0.0
  0
LINE
  5
AE
100
AcDbEntity
  8
0
 62
256
370
-1
 48
1.0
  6
ByLayer
100
AcDbLine
 10
0.983400271357638
 20
1.8514045509239689
 30
0.0
 11
0.9534619170295874
 21
1.672500000000634
 31
0.0
  0
LINE
  5
AF
100
AcDbEntity
  8
0
 62
256
370
-1
 48
1.0
  6
ByLayer
100
AcDbLine
 10
0.9394579899165361
 20
1.672500000000688
 30
0.0
 11
0.9660122696987018
 21
1.8614435183624249
 31
0.0
  0
LINE
  5
B0
100
AcDbEntity
  8
0
 62
256
370
-1
 48
1.0
  6
ByLayer
100
AcDbLine
 10
0.9660122696987018
 20
1.8614435183624249
 30
0.0
 11
0.983400271357638
 21
1.8514045509239689
 31
0.0
  0
LINE
  5
B1
100
AcDbEntity
  8
0
 62
256
370
-1
 48
1.0
  6
ByLayer
100
AcDbLine
 10
0.962865054761276
 20
1.672500000000597
 30
0.0
 11
0.994802907987948
 21
1.8448212355959881
 31
0.0
  0
LINE
  5
B2
100
AcDbEntity
  8
0
 62
256
370
-1
 48
1.0
  6
ByLayer
100
AcDbLine
 10
1.0116471038232799
 20
1.8350962345961761
 30
0.0
 11
0.97708620725714
 21
1.6725000000005421
 31
0.0
  0
LINE
  5
B3
100
AcDbEntity
  8
0
 62
256
370
-1
 48
1.0
  6
ByLayer
100
AcDbLine
 10
0.74865053621124
 20
1.8514045509239689
 30
0.0
 11
0.7785888905391769
 21
1.672500000001313
 31
0.0
  0
LINE
  5
B4
100
AcDbEntity
  8
0
 62
256
370
-1
 48
1.0
  6
ByLayer
100
AcDbLine
 10
0.8081214042901133
 20
1.8857400726182469
 30
0.0
 11
0.8268987424091697
 21
1.896581173835949
 31
0.0
  0
LINE
  5
B5
100
AcDbEntity
  8
0
 62
256
370
-1
 48
1.0
  6
ByLayer
100
AcDbLine
 10
0.861465615363758
 20
1.6725000000009911
 30
0.0
 11
0.8705851922051179
 21
1.672500000000956
 31
0.0
  0
LINE
  5
B6
100
AcDbEntity
  8
0
 62
256
370
-1
 48
1.0
  6
ByLayer
100
AcDbLine
 10
0.8727042062057424
 20
1.9153149539376479
 30
0.0
 11
0.8923546089761755
 21
1.9039697886084539
 31
0.0
  0
LINE
  5
B7
100
AcDbEntity
  8
0
 62
256
370
-1
 48
1.0
  6
ByLayer
100
AcDbLine
 10
0.8842715058439079
 20
1.672500000000902
 30
0.0
 11
0.8934084684598721
 21
1.672500000000867
 31
0.0
  0
LINE
  5
B8
100
AcDbEntity
  8
0
 62
256
370
-1
 48
1.0
  6
ByLayer
100
AcDbLine
 10
0.9534619170295874
 20
1.672500000000634
 30
0.0
 11
0.962865054761276
 21
1.672500000000597
 31
0.0
  0
LINE
  5
B9
100
AcDbEntity
  8
0
 62
256
370
-1
 48
1.0
  6
ByLayer
100
AcDbLine
 10
0.994802907987948
 20
1.8448212355959881
 30
0.0
 11
1.0116471038232799
 21
1.8350962345961761
 31
0.0
  0
LINE
  5
BA
100
AcDbEntity
  8
0
 62
256
370
-1
 48
1.0
  6
ByLayer
100
AcDbLine
 10
0.97708620725714
 20
1.6725000000005421
 30
0.0
 11
1.0661822689517
 21
1.6725000000014649
 31
0.0
  0
LINE
  5
BB
100
AcDbEntity
  8
0
 62
256
370
-1
 48
1.0
  6
ByLayer
100
AcDbLine
 10
1.3160508075688719
 20
1.5744038225644179
 30
0.0
 11
1.2865251080811619
 21
1.543278680332298
 31
0.0
  0
LINE
  5
BC
100
AcDbEntity
  8
0
 62
256
370
-1
 48
1.0
  6
ByLayer
100
AcDbLine
 10
1.3160508075688719
 20
1.5912992595502109
 30
0.0
 11
1.3160508075688719
 21
1.5744038225644179
 31
0.0
  0
LINE
  5
BD
100
AcDbEntity
  8
0
 62
256
370
-1
 48
1.0
  6
ByLayer
100
AcDbLine
 10
1.276646004074528
 20
1.5482804641295731
 30
0.0
 11
1.3160508075688719
 21
1.5912992595502109
 31
0.0
  0
LINE
  5
BE
100
AcDbEntity
  8
0
 62
256
370
-1
 48
1.0
  6
ByLayer
100
AcDbLine
 10
1.261838349594981
 20
1.555501120967804
 30
0.0
 11
1.3160508075688719
 21
1.617888760480098
 31
0.0
  0
LINE
  5
BF
100
AcDbEntity
  8
0
 62
256
370
-1
 48
1.0
  6
ByLayer
100
AcDbLine
 10
1.3160508075688719
 20
1.6365212301077789
 30
0.0
 11
1.251975336320621
 21
1.5601303189175419
 31
0.0
  0
ARC
  5
C0
100
AcDbEntity
  8
0
 62
256
370
-1
 48
1.0
  6
ByLayer
100
AcDbCircle
 10
0.8660254037844387
 20
0.7249999999999999
 30
0.0
 40
0.9200000000000002
100
AcDbArc
 50
65.1962941330340868
 51
66.2061921570801246
  0
LINE
  5
C1
100
AcDbEntity
  8
0
 62
256
370
-1
 48
1.0
  6
ByLayer
100
AcDbLine
 10
1.227354564599193
 20
1.5710740142238759
 30
0.0
 11
1.3160508075688719
 21
1.6867095614022101
 31
0.0
  0
LINE
  5
C2
100
AcDbEntity
  8
0
 62
256
370
-1
 48
1.0
  6
ByLayer
100
AcDbLine
 10
1.1783040289589251
 20
1.5903797202726271
 30
0.0
 11
1.3160508075688719
 21
1.806687278068037
 31
0.0
  0
LINE
  5
C3
100
AcDbEntity
  8
0
 62
256
370
-1
 48
1.0
  6
ByLayer
100
AcDbLine
 10
1.23649654720608
 20
1.716826353315771
 30
0.0
 11
1.163644967337091
 21
1.595530065759206
 31
0.0
  0
LINE
  5
C4
100
AcDbEntity
  8
0
 62
256
370
-1
 48
1.0
  6
ByLayer
100
AcDbLine
 10
0.4159999999999988
 20
1.8066872780680481
 30
0.0
 11
0.4159999999999988
 21
1.780187987802865
 31
0.0
  0
ARC
  5
C5
100
AcDbEntity
  8
0
 62
256
370
-1
 48
1.0
  6
ByLayer
100
AcDbCircle
 10
0.8660254037844387
 20
0.7249999999999999
 30
0.0
 40
0.9200000000000002
100
AcDbArc
 50
110.4917202422088991
 51
111.4724427209141027
  0
LINE
  5
C6
100
AcDbEntity
  8
0
 62
256
370
-1
 48
1.0
  6
ByLayer
100
AcDbLine
 10
0.5292560128211072
 20
1.581146235937638
 30
0.0
 11
0.4159999999999988
 21
1.7429563817775089
 31
0.0
  0
LINE
  5
C7
100
AcDbEntity
  8
0
 62
256
370
-1
 48
1.0
  6
ByLayer
100
AcDbLine
 10
0.4159999999999988
 20
1.7429563817775089
 30
0.0
 11
0.4159999999999988
 21
1.7196482178422059
 31
0.0
  0
LINE
  5
C8
100
AcDbEntity
  8
0
 62
256
370
-1
 48
1.0
  6
ByLayer
100
AcDbLine
 10
0.4159999999999988
 20
1.7196482178422059
 30
0.0
 11
0.5194400030137789
 21
1.577219783842549
 31
0.0
  0
LINE
  5
C9
100
AcDbEntity
  8
0
 62
256
370
-1
 48
1.0
  6
ByLayer
100
AcDbLine
 10
0.5046962429696831
 20
1.5710740142238759
 30
0.0
 11
0.4159999999999988
 21
1.6867095614022181
 31
0.0
  0
ARC
  5
CA
100
AcDbEntity
  8
0
 62
256
370
-1
 48
1.0
  6
ByLayer
100
AcDbCircle
 10
0.8660254037844387
 20
0.7249999999999999
 30
0.0
 40
0.9199999999999997
100
AcDbArc
 50
117.1978721735933959
 51
118.2409883177409142
  0
LINE
  5
CB
100
AcDbEntity
  8
0
 62
256
370
-1
 48
1.0
  6
ByLayer
100
AcDbLine
 10
0.4306987809936901
 20
1.5354879588800809
 30
0.0
 11
0.4159999999999988
 21
1.550192187378518
 31
0.0
  0
LINE
  5
CC
100
AcDbEntity
  8
0
 62
256
370
-1
 48
1.0
  6
ByLayer
100
AcDbLine
 10
0.4159999999999988
 20
1.550192187378518
 30
0.0
 11
0.4159999999999988
 21
1.5347456390064711
 31
0.0
  0
LINE
  5
CD
100
AcDbEntity
  8
0
 62
256
370
-1
 48
1.0
  6
ByLayer
100
AcDbLine
 10
0.4159999999999988
 20
1.5347456390064711
 30
0.0
 11
0.4208104418252767
 21
1.530098526670929
 31
0.0
  0
ARC
  5
CE
100
AcDbEntity
  8
0
 62
256
370
-1
 48
1.0
  6
ByLayer
100
AcDbCircle
 10
0.8660254037844387
 20
0.7249999999999999
 30
0.0
 40
0.9200000000000002
100
AcDbArc
 50
118.942347274653784
 51
119.2852574979299192
  0
LINE
  5
CF
100
AcDbEntity
  8
0
 62
256
370
-1
 48
1.0
  6
ByLayer
100
AcDbLine
 10
0.4159999999999987
 20
1.5274195510757771
 30
0.0
 11
0.4159999999999988
 21
1.487038145993133
 31
0.0
  0
LINE
  5
D0
100
AcDbEntity
  8
0
 62
256
370
-1
 48
1.0
  6
ByLayer
100
AcDbLine
 10
0.8386423391089927
 20
1.6725000000010799
 30
0.0
 11
0.8477793017249632
 21
1.6725000000010439
 31
0.0
  0
LINE
  5
D1
100
AcDbEntity
  8
0
 62
256
370
-1
 48
1.0
  6
ByLayer
100
AcDbLine
 10
0.5719004654180317
 20
1.5596948667812429
 30
0.0
 11
0.6847055986355103
 21
1.6725000000014649
 31
0.0
  0
LINE
  5
D2
100
AcDbEntity
  8
0
 62
256
370
-1
 48
1.0
  6
ByLayer
100
AcDbLine
 10
0.7033452089307961
 20
1.6274999999989299
 30
0.0
 11
1.0661822689458189
 21
1.6275000000037201
 31
0.0
  0
ARC
  5
D3
100
AcDbEntity
  8
0
 62
256
370
-1
 48
1.0
  6
ByLayer
100
AcDbCircle
 10
0.8660254037844373
 20
0.7249999999999992
 30
0.0
 40
0.885
100
AcDbArc
 50
59.4358146188120955
 51
103.3281398812706868
  0
ARC
  5
D4
100
AcDbEntity
  8
0
 62
256
370
-1
 48
1.0
  6
ByLayer
100
AcDbCircle
 10
0.8660254037844377
 20
0.7249999999999992
 30
0.0
 40
0.885
100
AcDbArc
 50
109.411142857830697
 51
120.5641853811882243
  0
ENDSEC
  0
SECTION
  2
OBJECTS
  0
DICTIONARY
  5
C
100
AcDbDictionary
280
0
281
1
  3
ACAD_GROUP
350
D
  3
ACAD_LAYOUT
350
1A
  3
ACAD_MLINESTYLE
350
17
  3
ACAD_PLOTSETTINGS
350
19
  3
ACAD_PLOTSTYLENAME
350
E
  3
AcDbVariableDictionary
350
D5
  3
QCAD_OBJECTS
350
D6
  0
DICTIONARY
  5
D
100
AcDbDictionary
280
0
281
1
  0
ACDBDICTIONARYWDFLT
  5
E
100
AcDbDictionary
281
1
  3
Normal
350
F
100
AcDbDictionaryWithDefault
340
F
  0
ACDBPLACEHOLDER
  5
F
  0
DICTIONARY
  5
17
100
AcDbDictionary
280
0
281
1
  3
Standard
350
18
  0
MLINESTYLE
  5
18
100
AcDbMlineStyle
  2
STANDARD
 70
0
  3

 62
256
 51
90.0
 52
90.0
 71
2
 49
0.5
 62
256
  6
BYLAYER
 49
-0.5
 62
256
  6
BYLAYER
  0
DICTIONARY
  5
19
100
AcDbDictionary
280
0
281
1
  0
DICTIONARY
  5
1A
100
AcDbDictionary
281
1
  3
Layout1
350
1E
  3
Layout2
350
26
  3
Model
350
22
  0
LAYOUT
  5
1E
100
AcDbPlotSettings
  1

  2
none_device
  4

  6

 40
0.0
 41
0.0
 42
0.0
 43
0.0
 44
0.0
 45
0.0
 46
0.0
 47
0.0
 48
0.0
 49
0.0
140
0.0
141
0.0
142
1.0
143
1.0
 70
688
 72
0
 73
0
 74
5
  7

 75
16
147
1.0
148
0.0
149
0.0
100
AcDbLayout
  1
Layout1
 70
1
 71
1
 10
0.0
 20
0.0
 11
420.0
 21
297.0
 12
0.0
 22
0.0
 32
0.0
 14
100000000000000000000.0
 24
100000000000000000000.0
 34
100000000000000000000.0
 15
-100000000000000000000.0
 25
-100000000000000000000.0
 35
-100000000000000000000.0
146
0.0
 13
0.0
 23
0.0
 33
0.0
 16
1.0
 26
0.0
 36
0.0
 17
0.0
 27
1.0
 37
0.0
 76
0
330
1B
  0
LAYOUT
  5
22
100
AcDbPlotSettings
  1

  2
none_device
  4

  6

 40
0.0
 41
0.0
 42
0.0
 43
0.0
 44
0.0
 45
0.0
 46
0.0
 47
0.0
 48
0.0
 49
0.0
140
0.0
141
0.0
142
1.0
143
1.0
 70
1712
 72
0
 73
0
 74
0
  7

 75
0
147
1.0
148
0.0
149
0.0
100
AcDbLayout
  1
Model
 70
1
 71
0
 10
0.0
 20
0.0
 11
12.0
 21
9.0
 12
0.0
 22
0.0
 32
0.0
 14
0.0
 24
0.0
 34
0.0
 15
0.0
 25
0.0
 35
0.0
146
0.0
 13
0.0
 23
0.0
 33
0.0
 16
1.0
 26
0.0
 36
0.0
 17
0.0
 27
1.0
 37
0.0
 76
0
330
1F
  0
LAYOUT
  5
26
100
AcDbPlotSettings
  1

  2
none_device
  4

  6

 40
0.0
 41
0.0
 42
0.0
 43
0.0
 44
0.0
 45
0.0
 46
0.0
 47
0.0
 48
0.0
 49
0.0
140
0.0
141
0.0
142
1.0
143
1.0
 70
688
 72
0
 73
0
 74
5
  7

 75
16
147
1.0
148
0.0
149
0.0
100
AcDbLayout
  1
Layout2
 70
1
 71
2
 10
0.0
 20
0.0
 11
12.0
 21
9.0
 12
0.0
 22
0.0
 32
0.0
 14
0.0
 24
0.0
 34
0.0
 15
0.0
 25
0.0
 35
0.0
146
0.0
 13
0.0
 23
0.0
 33
0.0
 16
1.0
 26
0.0
 36
0.0
 17
0.0
 27
1.0
 37
0.0
 76
0
330
23
  0
DICTIONARY
  5
D5
100
AcDbDictionary
281
1
  3
DIMASSOC
350
D8
  3
HIDETEXT
350
D7
  0
DICTIONARYVAR
  5
D7
100
DictionaryVariables
280
0
  1
2
  0
DICTIONARYVAR
  5
D8
100
DictionaryVariables
280
0
  1
1
  0
DICTIONARY
  5
D6
100
AcDbDictionary
281
1
  3
ColorSettings/BackgroundColor
350
D9
  3
ColorSettings/ColorMode
350
DA
  3
Grid/DisplayGrid00
350
DB
  3
Grid/DisplayGrid01
350
DC
  3
Grid/DisplayGrid02
350
DD
  3
Grid/DisplayGrid03
350
DE
  3
Grid/GridSpacingX00
350
DF
  3
Grid/GridSpacingX01
350
E0
  3
Grid/GridSpacingX02
350
E1
  3
Grid/GridSpacingX03
350
E2
  3
Grid/GridSpacingY00
350
E3
  3
Grid/GridSpacingY01
350
E4
  3
Grid/GridSpacingY02
350
E5
  3
Grid/GridSpacingY03
350
E6
  3
Grid/IsometricGrid00
350
E7
  3
Grid/IsometricGrid01
350
E8
  3
Grid/IsometricGrid02
350
E9
  3
Grid/IsometricGrid03
350
EA
  3
Grid/IsometricProjection00
350
EB
  3
Grid/IsometricProjection01
350
EC
  3
Grid/IsometricProjection02
350
ED
  3
Grid/IsometricProjection03
350
EE
  3
Grid/MetaGridSpacingX00
350
EF
  3
Grid/MetaGridSpacingX01
350
F0
  3
Grid/MetaGridSpacingX02
350
F1
  3
Grid/MetaGridSpacingX03
350
F2
  3
Grid/MetaGridSpacingY00
350
F3
  3
Grid/MetaGridSpacingY01
350
F4
  3
Grid/MetaGridSpacingY02
350
F5
  3
Grid/MetaGridSpacingY03
350
F6
  3
MultiPageSettings/Columns
350
F7
  3
MultiPageSettings/GlueMarginsBottom
350
F8
  3
MultiPageSettings/GlueMarginsLeft
350
F9
  3
MultiPageSettings/GlueMarginsRight
350
FA
  3
MultiPageSettings/GlueMarginsTop
350
FB
  3
MultiPageSettings/PrintCropMarks
350
FC
  3
MultiPageSettings/Rows
350
FD
  3
PageSettings/OffsetX
350
FE
  3
PageSettings/OffsetY
350
FF
  3
PageSettings/PageOrientation
350
100
  3
PageSettings/PaperHeight
350
101
  3
PageSettings/PaperWidth
350
102
  3
PageSettings/Scale
350
103
  3
PageSettings/ShowPaperBorders
350
104
  3
QCADVersion
350
105
  3
UnitSettings/PaperUnit
350
106
  3
ViewportCenter
350
107
  3
ViewportHeight
350
108
  3
ViewportWidth
350
109
  0
XRECORD
  5
D9
330
D6
100
AcDbXrecord
280
1
1000
Weiss
  0
XRECORD
  5
DA
330
D6
100
AcDbXrecord
280
1
1000
FullColor
  0
XRECORD
  5
DB
330
D6
100
AcDbXrecord
280
1
290
1
  0
XRECORD
  5
DC
330
D6
100
AcDbXrecord
280
1
290
1
  0
XRECORD
  5
DD
330
D6
100
AcDbXrecord
280
1
290
1
  0
XRECORD
  5
DE
330
D6
100
AcDbXrecord
280
1
290
1
  0
XRECORD
  5
DF
330
D6
100
AcDbXrecord
280
1
1000
auto
  0
XRECORD
  5
E0
330
D6
100
AcDbXrecord
280
1
1000
auto
  0
XRECORD
  5
E1
330
D6
100
AcDbXrecord
280
1
1000
auto
  0
XRECORD
  5
E2
330
D6
100
AcDbXrecord
280
1
1000
auto
  0
XRECORD
  5
E3
330
D6
100
AcDbXrecord
280
1
1000
auto
  0
XRECORD
  5
E4
330
D6
100
AcDbXrecord
280
1
1000
auto
  0
XRECORD
  5
E5
330
D6
100
AcDbXrecord
280
1
1000
auto
  0
XRECORD
  5
E6
330
D6
100
AcDbXrecord
280
1
1000
auto
  0
XRECORD
  5
E7
330
D6
100
AcDbXrecord
280
1
290
0
  0
XRECORD
  5
E8
330
D6
100
AcDbXrecord
280
1
290
0
  0
XRECORD
  5
E9
330
D6
100
AcDbXrecord
280
1
290
0
  0
XRECORD
  5
EA
330
D6
100
AcDbXrecord
280
1
290
0
  0
XRECORD
  5
EB
330
D6
100
AcDbXrecord
280
1
 90
4097
  0
XRECORD
  5
EC
330
D6
100
AcDbXrecord
280
1
 90
4097
  0
XRECORD
  5
ED
330
D6
100
AcDbXrecord
280
1
 90
4097
  0
XRECORD
  5
EE
330
D6
100
AcDbXrecord
280
1
 90
4097
  0
XRECORD
  5
EF
330
D6
100
AcDbXrecord
280
1
1000
auto
  0
XRECORD
  5
F0
330
D6
100
AcDbXrecord
280
1
1000
auto
  0
XRECORD
  5
F1
330
D6
100
AcDbXrecord
280
1
1000
auto
  0
XRECORD
  5
F2
330
D6
100
AcDbXrecord
280
1
1000
auto
  0
XRECORD
  5
F3
330
D6
100
AcDbXrecord
280
1
1000
auto
  0
XRECORD
  5
F4
330
D6
100
AcDbXrecord
280
1
1000
auto
  0
XRECORD
  5
F5
330
D6
100
AcDbXrecord
280
1
1000
auto
  0
XRECORD
  5
F6
330
D6
100
AcDbXrecord
280
1
1000
auto
  0
XRECORD
  5
F7
330
D6
100
AcDbXrecord
280
1
 90
1
  0
XRECORD
  5
F8
330
D6
100
AcDbXrecord
280
1
 40
10.0
  0
XRECORD
  5
F9
330
D6
100
AcDbXrecord
280
1
 40
10.0
  0
XRECORD
  5
FA
330
D6
100
AcDbXrecord
280
1
 40
10.0
  0
XRECORD
  5
FB
330
D6
100
AcDbXrecord
280
1
 40
10.0
  0
XRECORD
  5
FC
330
D6
100
AcDbXrecord
280
1
290
0
  0
XRECORD
  5
FD
330
D6
100
AcDbXrecord
280
1
 90
1
  0
XRECORD
  5
FE
330
D6
100
AcDbXrecord
280
1
 40
0.0
  0
XRECORD
  5
FF
330
D6
100
AcDbXrecord
280
1
 40
0.0
  0
XRECORD
  5
100
330
D6
100
AcDbXrecord
280
1
1000
Portrait
  0
XRECORD
  5
101
330
D6
100
AcDbXrecord
280
1
 40
297.0
  0
XRECORD
  5
102
330
D6
100
AcDbXrecord
280
1
 40
210.0
  0
XRECORD
  5
103
330
D6
100
AcDbXrecord
280
1
1000
1:1
  0
XRECORD
  5
104
330
D6
100
AcDbXrecord
280
1
290
1
  0
XRECORD
  5
105
330
D6
100
AcDbXrecord
280
1
1000
3.17.1.1
  0
XRECORD
  5
106
330
D6
100
AcDbXrecord
280
1
 90
4
  0
XRECORD
  5
108
330
D6
100
AcDbXrecord
280
1
 40
0.596254609311712
  0
XRECORD
  5
109
330
D6
100
AcDbXrecord
280
1
 40
1.1861253362967461
  0
ENDSEC
  0
EOF
