G75*
%MOIN*%
%OFA0B0*%
%FSLAX24Y24*%
%IPPOS*%
%LPD*%
%AMOC8*
5,1,8,0,0,1.08239X$1,22.5*
%
%ADD10C,0.0000*%
D10*
X000950Y003328D02*
X004410Y001330D01*
X004427Y001322D01*
X004446Y001318D01*
X004465Y001317D01*
X004484Y001320D01*
X004502Y001326D01*
X004518Y001336D01*
X004532Y001348D01*
X004544Y001363D01*
X004553Y001380D01*
X004558Y001398D01*
X004560Y001417D01*
X004560Y002431D01*
X004562Y002450D01*
X004567Y002468D01*
X004576Y002485D01*
X004588Y002500D01*
X004602Y002512D01*
X004618Y002522D01*
X004636Y002528D01*
X004655Y002531D01*
X004674Y002530D01*
X004693Y002525D01*
X004710Y002518D01*
X004710Y002517D02*
X008760Y000179D01*
X008760Y000178D02*
X008776Y000171D01*
X008793Y000167D01*
X008810Y000165D01*
X008827Y000167D01*
X008844Y000171D01*
X008860Y000178D01*
X008860Y000179D02*
X012911Y002517D01*
X012911Y002518D02*
X012928Y002526D01*
X012947Y002530D01*
X012966Y002531D01*
X012985Y002528D01*
X013003Y002522D01*
X013019Y002512D01*
X013033Y002500D01*
X013045Y002485D01*
X013054Y002468D01*
X013059Y002450D01*
X013061Y002431D01*
X013061Y001417D01*
X013063Y001398D01*
X013068Y001380D01*
X013077Y001363D01*
X013089Y001348D01*
X013103Y001336D01*
X013119Y001326D01*
X013137Y001320D01*
X013156Y001317D01*
X013175Y001318D01*
X013194Y001323D01*
X013211Y001330D01*
X016671Y003328D01*
X016721Y003415D02*
X016721Y004659D01*
X016723Y004676D01*
X016727Y004693D01*
X016734Y004709D01*
X016744Y004723D01*
X016757Y004736D01*
X016771Y004746D01*
X017421Y005121D01*
X017471Y005208D02*
X017471Y015092D01*
X017421Y015179D02*
X016771Y015554D01*
X016757Y015564D01*
X016744Y015577D01*
X016734Y015591D01*
X016727Y015607D01*
X016723Y015624D01*
X016721Y015641D01*
X016721Y016755D01*
X016671Y016842D02*
X013336Y018767D01*
X013336Y018768D02*
X013319Y018775D01*
X013301Y018780D01*
X013283Y018781D01*
X013264Y018779D01*
X013247Y018773D01*
X013230Y018764D01*
X013216Y018752D01*
X013204Y018738D01*
X012696Y018012D01*
X012696Y018013D02*
X012684Y017999D01*
X012670Y017987D01*
X012653Y017978D01*
X012636Y017972D01*
X012617Y017970D01*
X012599Y017971D01*
X012581Y017976D01*
X012564Y017983D01*
X008860Y020121D01*
X008760Y020121D02*
X005057Y017983D01*
X005040Y017976D01*
X005022Y017971D01*
X005004Y017970D01*
X004985Y017972D01*
X004968Y017978D01*
X004951Y017987D01*
X004937Y017999D01*
X004925Y018013D01*
X004925Y018012D02*
X004417Y018738D01*
X004405Y018752D01*
X004391Y018764D01*
X004374Y018773D01*
X004357Y018779D01*
X004338Y018781D01*
X004320Y018780D01*
X004302Y018775D01*
X004285Y018768D01*
X004285Y018767D02*
X000950Y016842D01*
X000936Y016832D01*
X000923Y016819D01*
X000913Y016805D01*
X000906Y016789D01*
X000902Y016772D01*
X000900Y016755D01*
X000900Y015641D01*
X000898Y015624D01*
X000894Y015607D01*
X000887Y015591D01*
X000877Y015577D01*
X000864Y015564D01*
X000850Y015554D01*
X000200Y015179D01*
X000186Y015169D01*
X000173Y015156D01*
X000163Y015142D01*
X000156Y015126D01*
X000152Y015109D01*
X000150Y015092D01*
X000150Y005208D01*
X000152Y005191D01*
X000156Y005174D01*
X000163Y005158D01*
X000173Y005144D01*
X000186Y005131D01*
X000200Y005121D01*
X000850Y004746D01*
X000900Y004659D02*
X000900Y003415D01*
X000902Y003398D01*
X000906Y003381D01*
X000913Y003365D01*
X000923Y003351D01*
X000936Y003338D01*
X000950Y003328D01*
X000900Y004659D02*
X000898Y004676D01*
X000894Y004693D01*
X000887Y004709D01*
X000877Y004723D01*
X000864Y004736D01*
X000850Y004746D01*
X008023Y018050D02*
X008025Y018106D01*
X008031Y018161D01*
X008041Y018215D01*
X008054Y018269D01*
X008072Y018322D01*
X008093Y018373D01*
X008117Y018423D01*
X008145Y018471D01*
X008177Y018517D01*
X008211Y018561D01*
X008249Y018602D01*
X008289Y018640D01*
X008332Y018675D01*
X008377Y018707D01*
X008425Y018736D01*
X008474Y018762D01*
X008525Y018784D01*
X008577Y018802D01*
X008631Y018816D01*
X008686Y018827D01*
X008741Y018834D01*
X008796Y018837D01*
X008852Y018836D01*
X008907Y018831D01*
X008962Y018822D01*
X009016Y018810D01*
X009069Y018793D01*
X009121Y018773D01*
X009171Y018749D01*
X009219Y018722D01*
X009266Y018692D01*
X009310Y018658D01*
X009352Y018621D01*
X009390Y018581D01*
X009427Y018539D01*
X009460Y018494D01*
X009489Y018448D01*
X009516Y018399D01*
X009538Y018348D01*
X009558Y018296D01*
X009573Y018242D01*
X009585Y018188D01*
X009593Y018133D01*
X009597Y018078D01*
X009597Y018022D01*
X009593Y017967D01*
X009585Y017912D01*
X009573Y017858D01*
X009558Y017804D01*
X009538Y017752D01*
X009516Y017701D01*
X009489Y017652D01*
X009460Y017606D01*
X009427Y017561D01*
X009390Y017519D01*
X009352Y017479D01*
X009310Y017442D01*
X009266Y017408D01*
X009219Y017378D01*
X009171Y017351D01*
X009121Y017327D01*
X009069Y017307D01*
X009016Y017290D01*
X008962Y017278D01*
X008907Y017269D01*
X008852Y017264D01*
X008796Y017263D01*
X008741Y017266D01*
X008686Y017273D01*
X008631Y017284D01*
X008577Y017298D01*
X008525Y017316D01*
X008474Y017338D01*
X008425Y017364D01*
X008377Y017393D01*
X008332Y017425D01*
X008289Y017460D01*
X008249Y017498D01*
X008211Y017539D01*
X008177Y017583D01*
X008145Y017629D01*
X008117Y017677D01*
X008093Y017727D01*
X008072Y017778D01*
X008054Y017831D01*
X008041Y017885D01*
X008031Y017939D01*
X008025Y017994D01*
X008023Y018050D01*
X008760Y020122D02*
X008776Y020129D01*
X008793Y020133D01*
X008810Y020135D01*
X008827Y020133D01*
X008844Y020129D01*
X008860Y020122D01*
X016671Y016842D02*
X016685Y016832D01*
X016698Y016819D01*
X016708Y016805D01*
X016715Y016789D01*
X016719Y016772D01*
X016721Y016755D01*
X017421Y015179D02*
X017435Y015169D01*
X017448Y015156D01*
X017458Y015142D01*
X017465Y015126D01*
X017469Y015109D01*
X017471Y015092D01*
X016683Y014141D02*
X016685Y014166D01*
X016691Y014191D01*
X016700Y014215D01*
X016713Y014237D01*
X016730Y014257D01*
X016749Y014274D01*
X016770Y014288D01*
X016794Y014298D01*
X016818Y014305D01*
X016844Y014308D01*
X016869Y014307D01*
X016894Y014302D01*
X016918Y014293D01*
X016941Y014281D01*
X016961Y014266D01*
X016979Y014247D01*
X016994Y014226D01*
X017005Y014203D01*
X017013Y014179D01*
X017017Y014154D01*
X017017Y014128D01*
X017013Y014103D01*
X017005Y014079D01*
X016994Y014056D01*
X016979Y014035D01*
X016961Y014016D01*
X016941Y014001D01*
X016918Y013989D01*
X016894Y013980D01*
X016869Y013975D01*
X016844Y013974D01*
X016818Y013977D01*
X016794Y013984D01*
X016770Y013994D01*
X016749Y014008D01*
X016730Y014025D01*
X016713Y014045D01*
X016700Y014067D01*
X016691Y014091D01*
X016685Y014116D01*
X016683Y014141D01*
X016683Y012959D02*
X016685Y012984D01*
X016691Y013009D01*
X016700Y013033D01*
X016713Y013055D01*
X016730Y013075D01*
X016749Y013092D01*
X016770Y013106D01*
X016794Y013116D01*
X016818Y013123D01*
X016844Y013126D01*
X016869Y013125D01*
X016894Y013120D01*
X016918Y013111D01*
X016941Y013099D01*
X016961Y013084D01*
X016979Y013065D01*
X016994Y013044D01*
X017005Y013021D01*
X017013Y012997D01*
X017017Y012972D01*
X017017Y012946D01*
X017013Y012921D01*
X017005Y012897D01*
X016994Y012874D01*
X016979Y012853D01*
X016961Y012834D01*
X016941Y012819D01*
X016918Y012807D01*
X016894Y012798D01*
X016869Y012793D01*
X016844Y012792D01*
X016818Y012795D01*
X016794Y012802D01*
X016770Y012812D01*
X016749Y012826D01*
X016730Y012843D01*
X016713Y012863D01*
X016700Y012885D01*
X016691Y012909D01*
X016685Y012934D01*
X016683Y012959D01*
X017471Y005208D02*
X017469Y005191D01*
X017465Y005174D01*
X017458Y005158D01*
X017448Y005144D01*
X017435Y005131D01*
X017421Y005121D01*
X016721Y003415D02*
X016719Y003398D01*
X016715Y003381D01*
X016708Y003365D01*
X016698Y003351D01*
X016685Y003338D01*
X016671Y003328D01*
M02*
