G75*
%MOIN*%
%OFA0B0*%
%FSLAX24Y24*%
%IPPOS*%
%LPD*%
%AMOC8*
5,1,8,0,0,1.08239X$1,22.5*
%
%ADD10C,0.0000*%
%ADD11C,0.0080*%
%ADD12C,0.0079*%
D10*
X000950Y003328D02*
X004410Y001330D01*
X004427Y001322D01*
X004446Y001318D01*
X004465Y001317D01*
X004484Y001320D01*
X004502Y001326D01*
X004518Y001336D01*
X004532Y001348D01*
X004544Y001363D01*
X004553Y001380D01*
X004558Y001398D01*
X004560Y001417D01*
X004560Y002431D01*
X004562Y002450D01*
X004567Y002468D01*
X004576Y002485D01*
X004588Y002500D01*
X004602Y002512D01*
X004618Y002522D01*
X004636Y002528D01*
X004655Y002531D01*
X004674Y002530D01*
X004693Y002525D01*
X004710Y002518D01*
X004710Y002517D02*
X008760Y000179D01*
X008760Y000178D02*
X008776Y000171D01*
X008793Y000167D01*
X008810Y000165D01*
X008827Y000167D01*
X008844Y000171D01*
X008860Y000178D01*
X008860Y000179D02*
X012911Y002517D01*
X012911Y002518D02*
X012928Y002526D01*
X012947Y002530D01*
X012966Y002531D01*
X012985Y002528D01*
X013003Y002522D01*
X013019Y002512D01*
X013033Y002500D01*
X013045Y002485D01*
X013054Y002468D01*
X013059Y002450D01*
X013061Y002431D01*
X013061Y001417D01*
X013063Y001398D01*
X013068Y001380D01*
X013077Y001363D01*
X013089Y001348D01*
X013103Y001336D01*
X013119Y001326D01*
X013137Y001320D01*
X013156Y001317D01*
X013175Y001318D01*
X013194Y001323D01*
X013211Y001330D01*
X016671Y003328D01*
X016721Y003415D02*
X016721Y004659D01*
X016723Y004676D01*
X016727Y004693D01*
X016734Y004709D01*
X016744Y004723D01*
X016757Y004736D01*
X016771Y004746D01*
X017421Y005121D01*
X017471Y005208D02*
X017471Y015092D01*
X017421Y015179D02*
X016771Y015554D01*
X016757Y015564D01*
X016744Y015577D01*
X016734Y015591D01*
X016727Y015607D01*
X016723Y015624D01*
X016721Y015641D01*
X016721Y016755D01*
X016671Y016842D02*
X013336Y018767D01*
X013336Y018768D02*
X013319Y018775D01*
X013301Y018780D01*
X013283Y018781D01*
X013264Y018779D01*
X013247Y018773D01*
X013230Y018764D01*
X013216Y018752D01*
X013204Y018738D01*
X012696Y018012D01*
X012696Y018013D02*
X012684Y017999D01*
X012670Y017987D01*
X012653Y017978D01*
X012636Y017972D01*
X012617Y017970D01*
X012599Y017971D01*
X012581Y017976D01*
X012564Y017983D01*
X008860Y020121D01*
X008760Y020121D02*
X005057Y017983D01*
X005040Y017976D01*
X005022Y017971D01*
X005004Y017970D01*
X004985Y017972D01*
X004968Y017978D01*
X004951Y017987D01*
X004937Y017999D01*
X004925Y018013D01*
X004925Y018012D02*
X004417Y018738D01*
X004405Y018752D01*
X004391Y018764D01*
X004374Y018773D01*
X004357Y018779D01*
X004338Y018781D01*
X004320Y018780D01*
X004302Y018775D01*
X004285Y018768D01*
X004285Y018767D02*
X000950Y016842D01*
X000936Y016832D01*
X000923Y016819D01*
X000913Y016805D01*
X000906Y016789D01*
X000902Y016772D01*
X000900Y016755D01*
X000900Y015641D01*
X000898Y015624D01*
X000894Y015607D01*
X000887Y015591D01*
X000877Y015577D01*
X000864Y015564D01*
X000850Y015554D01*
X000200Y015179D01*
X000186Y015169D01*
X000173Y015156D01*
X000163Y015142D01*
X000156Y015126D01*
X000152Y015109D01*
X000150Y015092D01*
X000150Y005208D01*
X000152Y005191D01*
X000156Y005174D01*
X000163Y005158D01*
X000173Y005144D01*
X000186Y005131D01*
X000200Y005121D01*
X000850Y004746D01*
X000900Y004659D02*
X000900Y003415D01*
X000902Y003398D01*
X000906Y003381D01*
X000913Y003365D01*
X000923Y003351D01*
X000936Y003338D01*
X000950Y003328D01*
X000900Y004659D02*
X000898Y004676D01*
X000894Y004693D01*
X000887Y004709D01*
X000877Y004723D01*
X000864Y004736D01*
X000850Y004746D01*
X008023Y018050D02*
X008025Y018106D01*
X008031Y018161D01*
X008041Y018215D01*
X008054Y018269D01*
X008072Y018322D01*
X008093Y018373D01*
X008117Y018423D01*
X008145Y018471D01*
X008177Y018517D01*
X008211Y018561D01*
X008249Y018602D01*
X008289Y018640D01*
X008332Y018675D01*
X008377Y018707D01*
X008425Y018736D01*
X008474Y018762D01*
X008525Y018784D01*
X008577Y018802D01*
X008631Y018816D01*
X008686Y018827D01*
X008741Y018834D01*
X008796Y018837D01*
X008852Y018836D01*
X008907Y018831D01*
X008962Y018822D01*
X009016Y018810D01*
X009069Y018793D01*
X009121Y018773D01*
X009171Y018749D01*
X009219Y018722D01*
X009266Y018692D01*
X009310Y018658D01*
X009352Y018621D01*
X009390Y018581D01*
X009427Y018539D01*
X009460Y018494D01*
X009489Y018448D01*
X009516Y018399D01*
X009538Y018348D01*
X009558Y018296D01*
X009573Y018242D01*
X009585Y018188D01*
X009593Y018133D01*
X009597Y018078D01*
X009597Y018022D01*
X009593Y017967D01*
X009585Y017912D01*
X009573Y017858D01*
X009558Y017804D01*
X009538Y017752D01*
X009516Y017701D01*
X009489Y017652D01*
X009460Y017606D01*
X009427Y017561D01*
X009390Y017519D01*
X009352Y017479D01*
X009310Y017442D01*
X009266Y017408D01*
X009219Y017378D01*
X009171Y017351D01*
X009121Y017327D01*
X009069Y017307D01*
X009016Y017290D01*
X008962Y017278D01*
X008907Y017269D01*
X008852Y017264D01*
X008796Y017263D01*
X008741Y017266D01*
X008686Y017273D01*
X008631Y017284D01*
X008577Y017298D01*
X008525Y017316D01*
X008474Y017338D01*
X008425Y017364D01*
X008377Y017393D01*
X008332Y017425D01*
X008289Y017460D01*
X008249Y017498D01*
X008211Y017539D01*
X008177Y017583D01*
X008145Y017629D01*
X008117Y017677D01*
X008093Y017727D01*
X008072Y017778D01*
X008054Y017831D01*
X008041Y017885D01*
X008031Y017939D01*
X008025Y017994D01*
X008023Y018050D01*
X008760Y020122D02*
X008776Y020129D01*
X008793Y020133D01*
X008810Y020135D01*
X008827Y020133D01*
X008844Y020129D01*
X008860Y020122D01*
X016671Y016842D02*
X016685Y016832D01*
X016698Y016819D01*
X016708Y016805D01*
X016715Y016789D01*
X016719Y016772D01*
X016721Y016755D01*
X017421Y015179D02*
X017435Y015169D01*
X017448Y015156D01*
X017458Y015142D01*
X017465Y015126D01*
X017469Y015109D01*
X017471Y015092D01*
X016683Y014141D02*
X016685Y014166D01*
X016691Y014191D01*
X016700Y014215D01*
X016713Y014237D01*
X016730Y014257D01*
X016749Y014274D01*
X016770Y014288D01*
X016794Y014298D01*
X016818Y014305D01*
X016844Y014308D01*
X016869Y014307D01*
X016894Y014302D01*
X016918Y014293D01*
X016941Y014281D01*
X016961Y014266D01*
X016979Y014247D01*
X016994Y014226D01*
X017005Y014203D01*
X017013Y014179D01*
X017017Y014154D01*
X017017Y014128D01*
X017013Y014103D01*
X017005Y014079D01*
X016994Y014056D01*
X016979Y014035D01*
X016961Y014016D01*
X016941Y014001D01*
X016918Y013989D01*
X016894Y013980D01*
X016869Y013975D01*
X016844Y013974D01*
X016818Y013977D01*
X016794Y013984D01*
X016770Y013994D01*
X016749Y014008D01*
X016730Y014025D01*
X016713Y014045D01*
X016700Y014067D01*
X016691Y014091D01*
X016685Y014116D01*
X016683Y014141D01*
X016683Y012959D02*
X016685Y012984D01*
X016691Y013009D01*
X016700Y013033D01*
X016713Y013055D01*
X016730Y013075D01*
X016749Y013092D01*
X016770Y013106D01*
X016794Y013116D01*
X016818Y013123D01*
X016844Y013126D01*
X016869Y013125D01*
X016894Y013120D01*
X016918Y013111D01*
X016941Y013099D01*
X016961Y013084D01*
X016979Y013065D01*
X016994Y013044D01*
X017005Y013021D01*
X017013Y012997D01*
X017017Y012972D01*
X017017Y012946D01*
X017013Y012921D01*
X017005Y012897D01*
X016994Y012874D01*
X016979Y012853D01*
X016961Y012834D01*
X016941Y012819D01*
X016918Y012807D01*
X016894Y012798D01*
X016869Y012793D01*
X016844Y012792D01*
X016818Y012795D01*
X016794Y012802D01*
X016770Y012812D01*
X016749Y012826D01*
X016730Y012843D01*
X016713Y012863D01*
X016700Y012885D01*
X016691Y012909D01*
X016685Y012934D01*
X016683Y012959D01*
X017471Y005208D02*
X017469Y005191D01*
X017465Y005174D01*
X017458Y005158D01*
X017448Y005144D01*
X017435Y005131D01*
X017421Y005121D01*
X016721Y003415D02*
X016719Y003398D01*
X016715Y003381D01*
X016708Y003365D01*
X016698Y003351D01*
X016685Y003338D01*
X016671Y003328D01*
D11*
X016760Y005665D02*
X016690Y005735D01*
X016760Y005665D02*
X016900Y005665D01*
X016970Y005735D01*
X016970Y006015D01*
X016900Y006085D01*
X016760Y006085D01*
X016690Y006015D01*
X016510Y006085D02*
X016510Y005875D01*
X016370Y005945D01*
X016300Y005945D01*
X016230Y005875D01*
X016230Y005735D01*
X016300Y005665D01*
X016440Y005665D01*
X016510Y005735D01*
X016510Y006085D02*
X016230Y006085D01*
X016300Y006265D02*
X016440Y006265D01*
X016510Y006335D01*
X016510Y006475D02*
X016370Y006545D01*
X016300Y006545D01*
X016230Y006475D01*
X016230Y006335D01*
X016300Y006265D01*
X016510Y006475D02*
X016510Y006685D01*
X016230Y006685D01*
X016690Y006615D02*
X016690Y006475D01*
X016760Y006405D01*
X016970Y006405D01*
X016830Y006405D02*
X016690Y006265D01*
X016970Y006265D02*
X016970Y006685D01*
X016760Y006685D01*
X016690Y006615D01*
X015320Y006660D02*
X015320Y006240D01*
X015110Y006240D01*
X015040Y006310D01*
X015040Y006590D01*
X015110Y006660D01*
X015320Y006660D01*
X014860Y006520D02*
X014720Y006660D01*
X014720Y006240D01*
X014860Y006240D02*
X014580Y006240D01*
X013985Y006070D02*
X013915Y005930D01*
X013775Y005790D01*
X013775Y006000D01*
X013705Y006070D01*
X013635Y006070D01*
X013565Y006000D01*
X013565Y005860D01*
X013635Y005790D01*
X013775Y005790D01*
X013775Y005610D02*
X013705Y005540D01*
X013705Y005330D01*
X013705Y005470D02*
X013565Y005610D01*
X013775Y005610D02*
X013915Y005610D01*
X013985Y005540D01*
X013985Y005330D01*
X013565Y005330D01*
X013285Y005330D02*
X013285Y005540D01*
X013215Y005610D01*
X013075Y005610D01*
X013005Y005540D01*
X013005Y005330D01*
X013005Y005470D02*
X012865Y005610D01*
X012865Y005790D02*
X012865Y006070D01*
X012865Y005930D02*
X013285Y005930D01*
X013145Y005790D01*
X013285Y005330D02*
X012865Y005330D01*
X012861Y003836D02*
X012801Y003801D01*
X012698Y003418D01*
X012558Y003661D01*
X012861Y003836D02*
X012957Y003811D01*
X013027Y003689D01*
X013001Y003593D01*
X013091Y003437D02*
X012849Y003297D01*
X012823Y003202D01*
X012928Y003020D01*
X013292Y003230D01*
X013187Y003412D01*
X013091Y003437D01*
X013382Y003074D02*
X013522Y002831D01*
X013158Y002621D01*
X013018Y002864D01*
X013270Y002847D02*
X013340Y002726D01*
X013248Y002465D02*
X013389Y002222D01*
X013753Y002432D01*
X011010Y002100D02*
X011010Y001960D01*
X010940Y001890D01*
X010730Y001890D01*
X010730Y001820D02*
X010730Y002170D01*
X010940Y002170D01*
X011010Y002100D01*
X010870Y001750D02*
X010800Y001750D01*
X010730Y001820D01*
X010550Y001890D02*
X010409Y001890D01*
X010480Y001890D02*
X010480Y002170D01*
X010550Y002170D01*
X010480Y002310D02*
X010480Y002380D01*
X010243Y002170D02*
X010103Y002170D01*
X010173Y002240D02*
X010173Y001960D01*
X010103Y001890D01*
X009936Y001890D02*
X009866Y001890D01*
X009866Y001960D01*
X009936Y001960D01*
X009936Y001890D01*
X009706Y001890D02*
X009565Y001890D01*
X009635Y001890D02*
X009635Y002170D01*
X009706Y002170D01*
X009635Y002310D02*
X009635Y002380D01*
X009399Y002100D02*
X009399Y001960D01*
X009329Y001890D01*
X009188Y001890D01*
X009118Y001960D01*
X009118Y002100D01*
X009188Y002170D01*
X009329Y002170D01*
X009399Y002100D01*
X008938Y001890D02*
X008658Y002310D01*
X008478Y002100D02*
X008478Y001960D01*
X008408Y001890D01*
X008198Y001890D01*
X008017Y001960D02*
X008017Y002170D01*
X008198Y002170D02*
X008408Y002170D01*
X008478Y002100D01*
X008017Y001960D02*
X007947Y001890D01*
X007877Y001960D01*
X007807Y001890D01*
X007737Y001960D01*
X007737Y002170D01*
X007557Y002170D02*
X007417Y002170D01*
X007487Y002240D02*
X007487Y001960D01*
X007417Y001890D01*
X007250Y001890D02*
X007250Y002310D01*
X007040Y002170D02*
X007250Y002030D01*
X007040Y001890D01*
X006866Y001890D02*
X006866Y002170D01*
X006656Y002170D01*
X006586Y002100D01*
X006586Y001890D01*
X004912Y003395D02*
X005052Y003638D01*
X004688Y003848D01*
X004458Y003449D02*
X004822Y003239D01*
X004682Y002996D01*
X004592Y002840D02*
X004487Y002658D01*
X004391Y002633D01*
X004148Y002773D01*
X004123Y002869D01*
X004228Y003051D01*
X004592Y002840D01*
X004570Y003223D02*
X004640Y003344D01*
X004458Y003449D02*
X004318Y003207D01*
X004058Y002617D02*
X003963Y002591D01*
X003893Y002470D01*
X003918Y002374D01*
X003979Y002339D01*
X004075Y002365D01*
X004100Y002269D01*
X004161Y002234D01*
X004257Y002260D01*
X004327Y002381D01*
X004301Y002477D01*
X004110Y002425D02*
X004075Y002365D01*
X005529Y004040D02*
X005669Y004040D01*
X005739Y004110D01*
X005599Y004250D02*
X005529Y004250D01*
X005459Y004180D01*
X005459Y004110D01*
X005529Y004040D01*
X005529Y004250D02*
X005459Y004320D01*
X005459Y004390D01*
X005529Y004460D01*
X005669Y004460D01*
X005739Y004390D01*
X005919Y004460D02*
X006059Y004460D01*
X005989Y004460D02*
X005989Y004110D01*
X006059Y004040D01*
X006130Y004040D01*
X006200Y004110D01*
X006380Y004110D02*
X006450Y004040D01*
X006590Y004040D01*
X006660Y004110D01*
X006590Y004250D02*
X006450Y004250D01*
X006380Y004180D01*
X006380Y004110D01*
X006590Y004250D02*
X006660Y004320D01*
X006660Y004390D01*
X006590Y004460D01*
X006450Y004460D01*
X006380Y004390D01*
X007480Y004485D02*
X007550Y004415D01*
X007690Y004415D01*
X007760Y004485D01*
X007760Y004625D01*
X007550Y004625D01*
X007480Y004555D01*
X007480Y004485D01*
X007620Y004765D02*
X007760Y004625D01*
X007620Y004765D02*
X007480Y004835D01*
X007940Y004765D02*
X008010Y004835D01*
X008150Y004835D01*
X008220Y004765D01*
X008220Y004485D01*
X008150Y004415D01*
X008010Y004415D01*
X007940Y004485D01*
X009010Y003660D02*
X009220Y003450D01*
X008940Y003450D01*
X009010Y003240D02*
X009010Y003660D01*
X009401Y003660D02*
X009541Y003660D01*
X009471Y003660D02*
X009471Y003310D01*
X009541Y003240D01*
X009611Y003240D01*
X009681Y003310D01*
X009861Y003310D02*
X009931Y003240D01*
X010071Y003240D01*
X010141Y003310D01*
X010071Y003450D02*
X010141Y003520D01*
X010141Y003590D01*
X010071Y003660D01*
X009931Y003660D01*
X009861Y003590D01*
X009931Y003450D02*
X009861Y003380D01*
X009861Y003310D01*
X009931Y003450D02*
X010071Y003450D01*
X010120Y006130D02*
X009839Y006130D01*
X009839Y006410D02*
X009839Y006480D01*
X009909Y006550D01*
X010050Y006550D01*
X010120Y006480D01*
X010300Y006550D02*
X010300Y006200D01*
X010370Y006130D01*
X010510Y006130D01*
X010580Y006200D01*
X010580Y006550D01*
X010120Y006130D02*
X009839Y006410D01*
X009755Y007480D02*
X009755Y007690D01*
X009825Y007760D01*
X009965Y007760D01*
X010035Y007690D01*
X010035Y007480D01*
X009615Y007480D01*
X009755Y007620D02*
X009615Y007760D01*
X009825Y007940D02*
X009825Y008220D01*
X009615Y008150D02*
X010035Y008150D01*
X009825Y007940D01*
X009250Y008515D02*
X009320Y008585D01*
X009320Y008865D01*
X009250Y008935D01*
X009110Y008935D01*
X009040Y008865D01*
X008860Y008725D02*
X008580Y008725D01*
X008650Y008515D02*
X008650Y008935D01*
X008860Y008725D01*
X009040Y008585D02*
X009110Y008515D01*
X009250Y008515D01*
X008890Y007860D02*
X008750Y007860D01*
X008680Y007790D01*
X008750Y007650D02*
X008680Y007580D01*
X008680Y007510D01*
X008750Y007440D01*
X008890Y007440D01*
X008960Y007510D01*
X008890Y007650D02*
X008750Y007650D01*
X008890Y007650D02*
X008960Y007720D01*
X008960Y007790D01*
X008890Y007860D01*
X008500Y007510D02*
X008430Y007440D01*
X008359Y007440D01*
X008289Y007510D01*
X008289Y007860D01*
X008359Y007860D02*
X008219Y007860D01*
X008039Y007720D02*
X007899Y007860D01*
X007899Y007440D01*
X008039Y007440D02*
X007759Y007440D01*
X011080Y009785D02*
X011150Y009715D01*
X011290Y009715D01*
X011360Y009785D01*
X011540Y009785D02*
X011610Y009715D01*
X011750Y009715D01*
X011820Y009785D01*
X011820Y010065D01*
X011750Y010135D01*
X011610Y010135D01*
X011540Y010065D01*
X011360Y010065D02*
X011290Y010135D01*
X011150Y010135D01*
X011080Y010065D01*
X011080Y009995D01*
X011150Y009925D01*
X011080Y009855D01*
X011080Y009785D01*
X011150Y009925D02*
X011220Y009925D01*
X011930Y010465D02*
X012210Y010465D01*
X011930Y010745D01*
X011930Y010815D01*
X012000Y010885D01*
X012140Y010885D01*
X012210Y010815D01*
X012390Y010815D02*
X012460Y010885D01*
X012600Y010885D01*
X012670Y010815D01*
X012670Y010535D01*
X012600Y010465D01*
X012460Y010465D01*
X012390Y010535D01*
X012570Y010185D02*
X012570Y009765D01*
X012710Y009765D02*
X012430Y009765D01*
X012710Y010045D02*
X012570Y010185D01*
X012890Y009765D02*
X013170Y009765D01*
X013170Y010185D01*
X013689Y011202D02*
X013619Y011272D01*
X013619Y011412D01*
X013689Y011483D01*
X013969Y011483D01*
X014039Y011412D01*
X014039Y011272D01*
X013969Y011202D01*
X013689Y011202D01*
X013759Y011342D02*
X013619Y011483D01*
X013619Y011663D02*
X013619Y011943D01*
X013619Y011803D02*
X014039Y011803D01*
X013899Y011663D01*
X015230Y011852D02*
X015300Y011782D01*
X015511Y011782D01*
X015511Y012202D01*
X015300Y012202D01*
X015230Y012132D01*
X015230Y012062D01*
X015300Y011992D01*
X015511Y011992D01*
X015691Y011922D02*
X015691Y011852D01*
X015761Y011782D01*
X015901Y011782D01*
X015971Y011852D01*
X015901Y011992D02*
X015761Y011992D01*
X015691Y011922D01*
X015691Y012132D02*
X015761Y012202D01*
X015901Y012202D01*
X015971Y012132D01*
X015971Y012062D01*
X015901Y011992D01*
X016151Y011852D02*
X016151Y012202D01*
X016431Y012202D02*
X016431Y011852D01*
X016361Y011782D01*
X016221Y011782D01*
X016151Y011852D01*
X015300Y011992D02*
X015230Y011922D01*
X015230Y011852D01*
X015200Y009485D02*
X015060Y009485D01*
X014990Y009415D01*
X014810Y009345D02*
X014670Y009485D01*
X014670Y009065D01*
X014810Y009065D02*
X014530Y009065D01*
X014650Y008910D02*
X014580Y008840D01*
X014580Y008770D01*
X014860Y008490D01*
X014580Y008490D01*
X014650Y008910D02*
X014790Y008910D01*
X014860Y008840D01*
X015040Y008840D02*
X015040Y008560D01*
X015110Y008490D01*
X015320Y008490D01*
X015320Y008910D01*
X015110Y008910D01*
X015040Y008840D01*
X015060Y009065D02*
X014990Y009135D01*
X015060Y009065D02*
X015200Y009065D01*
X015270Y009135D01*
X015270Y009415D01*
X015200Y009485D01*
X015828Y008770D02*
X015828Y008349D01*
X015968Y008349D02*
X015688Y008349D01*
X015968Y008630D02*
X015828Y008770D01*
X016148Y008770D02*
X016288Y008770D01*
X016218Y008770D02*
X016218Y008420D01*
X016288Y008349D01*
X016358Y008349D01*
X016428Y008420D01*
X013620Y008415D02*
X013620Y008835D01*
X013410Y008835D01*
X013340Y008765D01*
X013340Y008625D01*
X013410Y008555D01*
X013620Y008555D01*
X013480Y008555D02*
X013340Y008415D01*
X013160Y008415D02*
X013160Y008485D01*
X012880Y008765D01*
X012880Y008835D01*
X013160Y008835D01*
X012060Y007460D02*
X012060Y007110D01*
X011990Y007040D01*
X011850Y007040D01*
X011780Y007110D01*
X011780Y007460D01*
X011600Y007320D02*
X011459Y007460D01*
X011459Y007040D01*
X011319Y007040D02*
X011600Y007040D01*
X004664Y011424D02*
X004384Y011424D01*
X004214Y011424D02*
X004004Y011424D01*
X003934Y011354D01*
X003934Y011284D01*
X004004Y011214D01*
X004214Y011214D01*
X004214Y011634D01*
X004004Y011634D01*
X003934Y011564D01*
X003934Y011494D01*
X004004Y011424D01*
X003754Y011424D02*
X003474Y011424D01*
X002631Y011620D02*
X002351Y011620D01*
X002170Y011620D02*
X001890Y011620D01*
X001710Y011620D02*
X001500Y011620D01*
X001430Y011690D01*
X001430Y011970D01*
X001500Y012040D01*
X001710Y012040D01*
X001710Y011620D01*
X002030Y011830D02*
X002170Y011830D01*
X002170Y012040D02*
X002170Y011620D01*
X002170Y012040D02*
X001890Y012040D01*
X001950Y012509D02*
X001950Y012719D01*
X001880Y012789D01*
X001810Y012789D01*
X001740Y012719D01*
X001740Y012509D01*
X002160Y012509D01*
X002160Y012719D01*
X002090Y012789D01*
X002020Y012789D01*
X001950Y012719D01*
X001950Y012969D02*
X001950Y013249D01*
X002020Y013249D02*
X002160Y013109D01*
X002020Y012969D01*
X001740Y012969D01*
X001740Y013249D02*
X002020Y013249D01*
X002160Y013429D02*
X002160Y013710D01*
X002160Y013570D02*
X001740Y013570D01*
X001740Y013890D02*
X001740Y014170D01*
X001740Y014030D02*
X002160Y014030D01*
X002020Y013890D01*
X002631Y012040D02*
X002631Y011620D01*
X001250Y011830D02*
X000969Y011830D01*
X001039Y011620D02*
X001039Y012040D01*
X001250Y011830D01*
X003040Y009660D02*
X003040Y009380D01*
X003320Y009660D01*
X003390Y009660D01*
X003460Y009590D01*
X003460Y009450D01*
X003390Y009380D01*
X003460Y009199D02*
X003460Y009059D01*
X003460Y009129D02*
X003110Y009129D01*
X003040Y009059D01*
X003040Y008989D01*
X003110Y008919D01*
X001590Y007510D02*
X001590Y007370D01*
X001520Y007300D01*
X001170Y007300D01*
X001240Y007120D02*
X001170Y007050D01*
X001170Y006909D01*
X001240Y006839D01*
X001310Y006839D01*
X001380Y006909D01*
X001450Y006839D01*
X001520Y006839D01*
X001590Y006909D01*
X001590Y007050D01*
X001520Y007120D01*
X001380Y006979D02*
X001380Y006909D01*
X001590Y007510D02*
X001520Y007580D01*
X001170Y007580D01*
X004524Y011284D02*
X004524Y011564D01*
X004859Y016252D02*
X004718Y016495D01*
X004628Y016651D02*
X004488Y016894D01*
X004398Y017050D02*
X004293Y017232D01*
X004319Y017327D01*
X004561Y017467D01*
X004657Y017442D01*
X004762Y017260D01*
X004398Y017050D01*
X004628Y016651D02*
X004992Y016861D01*
X004852Y017104D01*
X004740Y016877D02*
X004810Y016756D01*
X005223Y016462D02*
X004859Y016252D01*
X004229Y017483D02*
X004133Y017509D01*
X004063Y017630D01*
X004088Y017726D01*
X004210Y017796D01*
X004306Y017770D01*
X004341Y017710D01*
X004350Y017553D01*
X004532Y017659D01*
X004392Y017901D01*
X012378Y016419D02*
X012508Y016505D01*
X012700Y016557D01*
X012595Y016375D01*
X012620Y016279D01*
X012681Y016244D01*
X012777Y016270D01*
X012847Y016391D01*
X012821Y016487D01*
X012700Y016557D01*
X012911Y016643D02*
X012668Y016783D01*
X012643Y016879D01*
X012748Y017061D01*
X013112Y016850D01*
X013007Y016668D01*
X012911Y016643D01*
X013202Y017006D02*
X013342Y017249D01*
X012978Y017459D01*
X012838Y017217D01*
X013090Y017233D02*
X013160Y017354D01*
X013432Y017405D02*
X013572Y017648D01*
X013208Y017858D01*
X015690Y015040D02*
X015970Y015040D01*
X015830Y015040D02*
X015830Y015460D01*
X015970Y015320D01*
X016151Y015460D02*
X016151Y015040D01*
X016291Y015180D01*
X016431Y015040D01*
X016431Y015460D01*
X016611Y015390D02*
X016681Y015460D01*
X016821Y015460D01*
X016891Y015390D01*
X016891Y015320D01*
X016821Y015250D01*
X016681Y015250D01*
X016611Y015180D01*
X016611Y015110D01*
X016681Y015040D01*
X016821Y015040D01*
X016891Y015110D01*
D12*
X013350Y011900D02*
X013350Y011650D01*
X013150Y011650D01*
X013150Y011900D01*
X013350Y011900D01*
M02*
